<svg width="1240" height="743" viewBox="0 0 1240 743" fill="none" xmlns="http://www.w3.org/2000/svg">
<g clip-path="url(#clip0_9_26)">
<rect width="1240" height="743" fill="white"/>
<path d="M519.882 96.1602C519.719 94.6405 519.035 93.4573 517.828 92.6104C516.634 91.7636 515.079 91.3402 513.165 91.3402C511.819 91.3402 510.665 91.5432 509.702 91.9492C508.74 92.3552 508.003 92.9062 507.493 93.6023C506.982 94.2983 506.721 95.0929 506.71 95.9862C506.71 96.7286 506.878 97.3724 507.214 97.9176C507.562 98.4628 508.032 98.9268 508.624 99.3097C509.215 99.6809 509.871 99.9941 510.59 100.249C511.309 100.504 512.034 100.719 512.765 100.893L516.106 101.728C517.451 102.042 518.745 102.465 519.986 102.999C521.239 103.532 522.358 104.205 523.344 105.017C524.342 105.829 525.131 106.809 525.711 107.958C526.291 109.106 526.581 110.452 526.581 111.995C526.581 114.083 526.047 115.921 524.98 117.511C523.913 119.088 522.37 120.324 520.352 121.217C518.345 122.099 515.914 122.539 513.061 122.539C510.288 122.539 507.881 122.11 505.839 121.252C503.809 120.393 502.22 119.141 501.072 117.493C499.935 115.846 499.32 113.839 499.227 111.473H505.578C505.671 112.714 506.054 113.746 506.727 114.57C507.4 115.394 508.276 116.008 509.354 116.414C510.445 116.82 511.663 117.023 513.009 117.023C514.412 117.023 515.642 116.815 516.697 116.397C517.765 115.968 518.6 115.376 519.203 114.622C519.806 113.857 520.114 112.963 520.125 111.942C520.114 111.014 519.841 110.249 519.308 109.646C518.774 109.031 518.026 108.52 517.063 108.114C516.112 107.697 514.998 107.326 513.722 107.001L509.668 105.957C506.733 105.203 504.413 104.06 502.707 102.529C501.014 100.986 500.167 98.9384 500.167 96.3864C500.167 94.2867 500.735 92.448 501.872 90.8704C503.021 89.2927 504.581 88.0689 506.553 87.1989C508.525 86.3172 510.758 85.8764 513.252 85.8764C515.781 85.8764 517.997 86.3172 519.899 87.1989C521.813 88.0689 523.315 89.2811 524.406 90.8356C525.496 92.3784 526.059 94.1533 526.094 96.1602H519.882ZM530.77 91.7752V86.3636H559.203V91.7752H548.188V122H541.785V91.7752H530.77ZM564.954 122H558.063L570.609 86.3636H578.578L591.141 122H584.251L574.733 93.6719H574.454L564.954 122ZM565.18 108.027H583.972V113.213H565.18V108.027ZM589.963 91.7752V86.3636H618.395V91.7752H607.381V122H600.977V91.7752H589.963ZM623.876 86.3636H631.776L642.356 112.186H642.773L653.353 86.3636H661.253V122H655.058V97.5174H654.727L644.879 121.896H640.25L630.401 97.4652H630.071V122H623.876V86.3636ZM672.859 122H665.968L678.514 86.3636H686.483L699.047 122H692.156L682.638 93.6719H682.36L672.859 122ZM673.085 108.027H691.878V113.213H673.085V108.027ZM733.026 86.3636V122H727.283L710.492 97.7262H710.196V122H703.741V86.3636H709.517L726.292 110.655H726.605V86.3636H733.026Z" fill="#FF7373"/>
<rect x="-198.75" y="504.25" width="553.5" height="255.5" rx="26.75" fill="white" stroke="#FF7373" stroke-width="2.5"/>
<rect x="343.25" y="181.25" width="553.5" height="255.5" rx="26.75" fill="white" stroke="#FF7373" stroke-width="2.5"/>
<rect x="1101.25" y="-127.75" width="553.5" height="255.5" rx="26.75" fill="white" stroke="#FF7373" stroke-width="2.5"/>
<rect x="254.25" y="-199.75" width="1672.5" height="255.5" rx="26.75" fill="white" stroke="#FF7373" stroke-width="2.5"/>
<path d="M379.152 240V218.182H393.342V221.495H383.104V227.418H392.607V230.732H383.104V236.687H393.428V240H379.152ZM397.375 240V218.182H405.556C407.233 218.182 408.639 218.473 409.775 219.055C410.919 219.638 411.782 220.455 412.364 221.506C412.953 222.55 413.248 223.768 413.248 225.16C413.248 226.559 412.95 227.773 412.353 228.803C411.764 229.826 410.894 230.618 409.743 231.179C408.593 231.733 407.179 232.01 405.503 232.01H399.676V228.729H404.971C405.951 228.729 406.753 228.594 407.378 228.324C408.003 228.047 408.465 227.646 408.763 227.12C409.069 226.587 409.221 225.934 409.221 225.16C409.221 224.386 409.069 223.725 408.763 223.178C408.458 222.624 407.993 222.205 407.368 221.921C406.743 221.63 405.936 221.484 404.949 221.484H401.327V240H397.375ZM408.646 230.114L414.047 240H409.637L404.331 230.114H408.646ZM416.886 240V218.182H425.068C426.744 218.182 428.151 218.473 429.287 219.055C430.43 219.638 431.293 220.455 431.876 221.506C432.465 222.55 432.76 223.768 432.76 225.16C432.76 226.559 432.462 227.773 431.865 228.803C431.276 229.826 430.406 230.618 429.255 231.179C428.104 231.733 426.691 232.01 425.015 232.01H419.188V228.729H424.482C425.462 228.729 426.265 228.594 426.89 228.324C427.515 228.047 427.977 227.646 428.275 227.12C428.58 226.587 428.733 225.934 428.733 225.16C428.733 224.386 428.58 223.725 428.275 223.178C427.969 222.624 427.504 222.205 426.879 221.921C426.254 221.63 425.448 221.484 424.461 221.484H420.839V240H416.886ZM428.158 230.114L433.559 240H429.148L423.843 230.114H428.158ZM455.894 229.091C455.894 231.442 455.453 233.455 454.573 235.131C453.699 236.8 452.506 238.079 450.993 238.967C449.488 239.854 447.779 240.298 445.869 240.298C443.958 240.298 442.247 239.854 440.734 238.967C439.228 238.072 438.035 236.79 437.154 235.121C436.281 233.445 435.844 231.435 435.844 229.091C435.844 226.74 436.281 224.73 437.154 223.061C438.035 221.385 439.228 220.103 440.734 219.215C442.247 218.327 443.958 217.884 445.869 217.884C447.779 217.884 449.488 218.327 450.993 219.215C452.506 220.103 453.699 221.385 454.573 223.061C455.453 224.73 455.894 226.74 455.894 229.091ZM451.92 229.091C451.92 227.436 451.661 226.04 451.142 224.904C450.631 223.761 449.921 222.898 449.012 222.315C448.103 221.726 447.055 221.431 445.869 221.431C444.683 221.431 443.635 221.726 442.726 222.315C441.817 222.898 441.103 223.761 440.585 224.904C440.074 226.04 439.818 227.436 439.818 229.091C439.818 230.746 440.074 232.145 440.585 233.288C441.103 234.425 441.817 235.288 442.726 235.877C443.635 236.46 444.683 236.751 445.869 236.751C447.055 236.751 448.103 236.46 449.012 235.877C449.921 235.288 450.631 234.425 451.142 233.288C451.661 232.145 451.92 230.746 451.92 229.091ZM459.631 240V218.182H467.812C469.488 218.182 470.895 218.473 472.031 219.055C473.175 219.638 474.037 220.455 474.62 221.506C475.209 222.55 475.504 223.768 475.504 225.16C475.504 226.559 475.206 227.773 474.609 228.803C474.02 229.826 473.15 230.618 471.999 231.179C470.849 231.733 469.435 232.01 467.759 232.01H461.932V228.729H467.226C468.206 228.729 469.009 228.594 469.634 228.324C470.259 228.047 470.721 227.646 471.019 227.12C471.324 226.587 471.477 225.934 471.477 225.16C471.477 224.386 471.324 223.725 471.019 223.178C470.714 222.624 470.248 222.205 469.623 221.921C468.998 221.63 468.192 221.484 467.205 221.484H463.583V240H459.631ZM470.902 230.114L476.303 240H471.893L466.587 230.114H470.902ZM496.331 227.504V230.678H486.509V227.504H496.331ZM507.392 235.952V232.809L516.65 218.182H519.271V222.656H517.673L511.441 232.532V232.702H524.363V235.952H507.392ZM517.801 240V234.993L517.843 233.587V218.182H521.572V240H517.801ZM535.832 240.415C534.077 240.415 532.572 239.972 531.315 239.084C530.065 238.189 529.102 236.9 528.428 235.217C527.76 233.526 527.426 231.491 527.426 229.112C527.433 226.733 527.771 224.709 528.438 223.04C529.113 221.364 530.075 220.085 531.325 219.205C532.582 218.324 534.085 217.884 535.832 217.884C537.579 217.884 539.081 218.324 540.338 219.205C541.595 220.085 542.558 221.364 543.225 223.04C543.9 224.716 544.237 226.74 544.237 229.112C544.237 231.499 543.9 233.537 543.225 235.227C542.558 236.911 541.595 238.196 540.338 239.084C539.088 239.972 537.586 240.415 535.832 240.415ZM535.832 237.081C537.195 237.081 538.271 236.41 539.06 235.067C539.855 233.718 540.253 231.733 540.253 229.112C540.253 227.379 540.072 225.923 539.71 224.744C539.347 223.565 538.836 222.678 538.175 222.081C537.515 221.477 536.734 221.175 535.832 221.175C534.475 221.175 533.403 221.85 532.614 223.2C531.826 224.542 531.428 226.513 531.421 229.112C531.414 230.852 531.588 232.315 531.943 233.501C532.305 234.687 532.817 235.582 533.477 236.186C534.138 236.783 534.923 237.081 535.832 237.081ZM547.383 235.952V232.809L556.64 218.182H559.261V222.656H557.663L551.431 232.532V232.702H564.354V235.952H547.383ZM557.791 240V234.993L557.834 233.587V218.182H561.562V240H557.791Z" fill="#FF6363"/>
<path d="M377.795 281.663V279.455H389.401V281.663H384.905V294H382.291V281.663H377.795ZM394.095 287.608V294H391.524V279.455H394.038V284.945H394.166C394.422 284.329 394.817 283.844 395.352 283.489C395.892 283.129 396.579 282.949 397.412 282.949C398.17 282.949 398.83 283.107 399.393 283.425C399.957 283.742 400.393 284.206 400.7 284.817C401.013 285.428 401.169 286.173 401.169 287.054V294H398.598V287.452C398.598 286.718 398.409 286.147 398.03 285.74C397.656 285.328 397.13 285.122 396.453 285.122C395.999 285.122 395.591 285.222 395.232 285.42C394.876 285.615 394.597 285.896 394.393 286.266C394.195 286.635 394.095 287.082 394.095 287.608ZM403.79 294V283.091H406.361V294H403.79ZM405.082 281.543C404.675 281.543 404.325 281.408 404.031 281.138C403.738 280.863 403.591 280.534 403.591 280.151C403.591 279.762 403.738 279.433 404.031 279.163C404.325 278.889 404.675 278.751 405.082 278.751C405.494 278.751 405.845 278.889 406.134 279.163C406.427 279.433 406.574 279.762 406.574 280.151C406.574 280.534 406.427 280.863 406.134 281.138C405.845 281.408 405.494 281.543 405.082 281.543ZM417.627 285.974L415.283 286.23C415.217 285.993 415.101 285.771 414.935 285.562C414.774 285.354 414.556 285.186 414.282 285.058C414.007 284.93 413.671 284.866 413.273 284.866C412.738 284.866 412.288 284.982 411.924 285.214C411.564 285.446 411.386 285.747 411.391 286.116C411.386 286.434 411.502 286.692 411.739 286.891C411.98 287.089 412.378 287.253 412.932 287.381L414.793 287.778C415.825 288.001 416.592 288.354 417.094 288.837C417.601 289.32 417.856 289.952 417.861 290.733C417.856 291.42 417.655 292.026 417.257 292.551C416.864 293.072 416.318 293.479 415.617 293.773C414.916 294.066 414.111 294.213 413.202 294.213C411.867 294.213 410.792 293.934 409.978 293.375C409.163 292.812 408.678 292.028 408.522 291.024L411.029 290.783C411.142 291.275 411.384 291.647 411.753 291.898C412.123 292.149 412.603 292.274 413.195 292.274C413.806 292.274 414.296 292.149 414.665 291.898C415.039 291.647 415.226 291.337 415.226 290.967C415.226 290.655 415.105 290.397 414.864 290.193C414.627 289.99 414.258 289.833 413.756 289.724L411.895 289.334C410.849 289.116 410.075 288.749 409.573 288.233C409.071 287.712 408.822 287.054 408.827 286.259C408.822 285.586 409.005 285.004 409.374 284.511C409.748 284.014 410.266 283.631 410.929 283.361C411.597 283.086 412.366 282.949 413.238 282.949C414.516 282.949 415.522 283.221 416.256 283.766C416.995 284.31 417.452 285.046 417.627 285.974ZM429.772 294.213C428.678 294.213 427.733 293.986 426.938 293.531C426.147 293.072 425.539 292.423 425.113 291.585C424.686 290.742 424.473 289.75 424.473 288.609C424.473 287.487 424.686 286.502 425.113 285.655C425.543 284.803 426.145 284.14 426.917 283.666C427.688 283.188 428.595 282.949 429.637 282.949C430.309 282.949 430.944 283.058 431.54 283.276C432.141 283.489 432.672 283.82 433.131 284.27C433.595 284.72 433.96 285.293 434.225 285.989C434.49 286.68 434.623 287.504 434.623 288.46V289.249H425.681V287.516H432.158C432.153 287.023 432.047 286.585 431.838 286.202C431.63 285.813 431.339 285.508 430.965 285.286C430.596 285.063 430.165 284.952 429.672 284.952C429.147 284.952 428.685 285.08 428.287 285.335C427.89 285.586 427.579 285.918 427.357 286.33C427.139 286.737 427.028 287.184 427.023 287.672V289.185C427.023 289.819 427.139 290.364 427.371 290.818C427.603 291.268 427.927 291.614 428.344 291.855C428.761 292.092 429.248 292.21 429.807 292.21C430.181 292.21 430.52 292.158 430.823 292.054C431.126 291.945 431.389 291.786 431.611 291.578C431.834 291.37 432.002 291.112 432.115 290.804L434.516 291.074C434.364 291.708 434.076 292.262 433.65 292.736C433.228 293.205 432.688 293.569 432.03 293.83C431.372 294.085 430.619 294.213 429.772 294.213ZM436.798 294V283.091H439.29V284.909H439.404C439.603 284.279 439.944 283.794 440.427 283.453C440.915 283.107 441.471 282.935 442.096 282.935C442.238 282.935 442.397 282.942 442.572 282.956C442.752 282.965 442.901 282.982 443.019 283.006V285.371C442.91 285.333 442.737 285.3 442.501 285.271C442.269 285.238 442.044 285.222 441.826 285.222C441.357 285.222 440.936 285.323 440.562 285.527C440.192 285.726 439.901 286.003 439.688 286.358C439.475 286.713 439.369 287.123 439.369 287.587V294H436.798ZM444.727 294V283.091H447.22V284.909H447.334C447.533 284.279 447.874 283.794 448.357 283.453C448.844 283.107 449.401 282.935 450.026 282.935C450.168 282.935 450.326 282.942 450.501 282.956C450.681 282.965 450.83 282.982 450.949 283.006V285.371C450.84 285.333 450.667 285.3 450.43 285.271C450.198 285.238 449.973 285.222 449.756 285.222C449.287 285.222 448.866 285.323 448.491 285.527C448.122 285.726 447.831 286.003 447.618 286.358C447.405 286.713 447.298 287.123 447.298 287.587V294H444.727ZM456.966 294.213C455.901 294.213 454.978 293.979 454.196 293.51C453.415 293.041 452.809 292.385 452.378 291.543C451.952 290.7 451.739 289.715 451.739 288.588C451.739 287.461 451.952 286.474 452.378 285.626C452.809 284.779 453.415 284.121 454.196 283.652C454.978 283.183 455.901 282.949 456.966 282.949C458.032 282.949 458.955 283.183 459.736 283.652C460.517 284.121 461.121 284.779 461.547 285.626C461.978 286.474 462.194 287.461 462.194 288.588C462.194 289.715 461.978 290.7 461.547 291.543C461.121 292.385 460.517 293.041 459.736 293.51C458.955 293.979 458.032 294.213 456.966 294.213ZM456.98 292.153C457.558 292.153 458.041 291.995 458.429 291.678C458.818 291.356 459.106 290.925 459.296 290.385C459.49 289.845 459.587 289.244 459.587 288.581C459.587 287.913 459.49 287.31 459.296 286.77C459.106 286.225 458.818 285.792 458.429 285.47C458.041 285.148 457.558 284.987 456.98 284.987C456.389 284.987 455.896 285.148 455.503 285.47C455.115 285.792 454.824 286.225 454.63 286.77C454.44 287.31 454.346 287.913 454.346 288.581C454.346 289.244 454.44 289.845 454.63 290.385C454.824 290.925 455.115 291.356 455.503 291.678C455.896 291.995 456.389 292.153 456.98 292.153ZM464.376 294V283.091H466.869V284.909H466.982C467.181 284.279 467.522 283.794 468.005 283.453C468.493 283.107 469.049 282.935 469.674 282.935C469.816 282.935 469.975 282.942 470.15 282.956C470.33 282.965 470.479 282.982 470.597 283.006V285.371C470.488 285.333 470.316 285.3 470.079 285.271C469.847 285.238 469.622 285.222 469.404 285.222C468.935 285.222 468.514 285.323 468.14 285.527C467.771 285.726 467.479 286.003 467.266 286.358C467.053 286.713 466.947 287.123 466.947 287.587V294H464.376ZM482.025 294.213C480.96 294.213 480.036 293.979 479.255 293.51C478.474 293.041 477.868 292.385 477.437 291.543C477.011 290.7 476.798 289.715 476.798 288.588C476.798 287.461 477.011 286.474 477.437 285.626C477.868 284.779 478.474 284.121 479.255 283.652C480.036 283.183 480.96 282.949 482.025 282.949C483.09 282.949 484.013 283.183 484.795 283.652C485.576 284.121 486.18 284.779 486.606 285.626C487.037 286.474 487.252 287.461 487.252 288.588C487.252 289.715 487.037 290.7 486.606 291.543C486.18 292.385 485.576 293.041 484.795 293.51C484.013 293.979 483.09 294.213 482.025 294.213ZM482.039 292.153C482.617 292.153 483.1 291.995 483.488 291.678C483.876 291.356 484.165 290.925 484.354 290.385C484.549 289.845 484.646 289.244 484.646 288.581C484.646 287.913 484.549 287.31 484.354 286.77C484.165 286.225 483.876 285.792 483.488 285.47C483.1 285.148 482.617 284.987 482.039 284.987C481.447 284.987 480.955 285.148 480.562 285.47C480.174 285.792 479.882 286.225 479.688 286.77C479.499 287.31 479.404 287.913 479.404 288.581C479.404 289.244 479.499 289.845 479.688 290.385C479.882 290.925 480.174 291.356 480.562 291.678C480.955 291.995 481.447 292.153 482.039 292.153ZM494.193 294.213C493.104 294.213 492.169 293.974 491.387 293.496C490.611 293.018 490.012 292.357 489.591 291.514C489.174 290.667 488.966 289.691 488.966 288.588C488.966 287.48 489.179 286.502 489.605 285.655C490.031 284.803 490.632 284.14 491.409 283.666C492.19 283.188 493.113 282.949 494.179 282.949C495.064 282.949 495.848 283.112 496.529 283.439C497.216 283.761 497.763 284.218 498.17 284.81C498.577 285.397 498.809 286.083 498.866 286.869H496.409C496.309 286.344 496.073 285.906 495.699 285.555C495.329 285.2 494.834 285.023 494.214 285.023C493.689 285.023 493.227 285.165 492.829 285.449C492.431 285.728 492.121 286.131 491.899 286.656C491.681 287.182 491.572 287.812 491.572 288.545C491.572 289.289 491.681 289.928 491.899 290.463C492.117 290.993 492.422 291.403 492.815 291.692C493.213 291.976 493.679 292.118 494.214 292.118C494.593 292.118 494.931 292.047 495.23 291.905C495.533 291.758 495.786 291.547 495.99 291.273C496.193 290.998 496.333 290.664 496.409 290.271H498.866C498.805 291.043 498.577 291.727 498.184 292.324C497.791 292.916 497.256 293.38 496.579 293.716C495.902 294.047 495.107 294.213 494.193 294.213ZM505.736 294.213C504.647 294.213 503.712 293.974 502.93 293.496C502.154 293.018 501.555 292.357 501.134 291.514C500.717 290.667 500.509 289.691 500.509 288.588C500.509 287.48 500.722 286.502 501.148 285.655C501.574 284.803 502.175 284.14 502.952 283.666C503.733 283.188 504.656 282.949 505.722 282.949C506.607 282.949 507.391 283.112 508.072 283.439C508.759 283.761 509.306 284.218 509.713 284.81C510.12 285.397 510.352 286.083 510.409 286.869H507.952C507.852 286.344 507.616 285.906 507.241 285.555C506.872 285.2 506.377 285.023 505.757 285.023C505.232 285.023 504.77 285.165 504.372 285.449C503.974 285.728 503.664 286.131 503.442 286.656C503.224 287.182 503.115 287.812 503.115 288.545C503.115 289.289 503.224 289.928 503.442 290.463C503.66 290.993 503.965 291.403 504.358 291.692C504.756 291.976 505.222 292.118 505.757 292.118C506.136 292.118 506.474 292.047 506.773 291.905C507.076 291.758 507.329 291.547 507.533 291.273C507.736 290.998 507.876 290.664 507.952 290.271H510.409C510.348 291.043 510.12 291.727 509.727 292.324C509.334 292.916 508.799 293.38 508.122 293.716C507.445 294.047 506.65 294.213 505.736 294.213ZM519.473 289.412V283.091H522.044V294H519.551V292.061H519.438C519.192 292.672 518.787 293.171 518.223 293.56C517.665 293.948 516.976 294.142 516.157 294.142C515.442 294.142 514.81 293.983 514.26 293.666C513.716 293.344 513.29 292.878 512.982 292.267C512.674 291.652 512.52 290.908 512.52 290.037V283.091H515.091V289.639C515.091 290.33 515.281 290.88 515.659 291.287C516.038 291.694 516.535 291.898 517.151 291.898C517.53 291.898 517.897 291.805 518.252 291.621C518.607 291.436 518.898 291.161 519.125 290.797C519.357 290.428 519.473 289.966 519.473 289.412ZM524.688 294V283.091H527.181V284.909H527.295C527.494 284.279 527.835 283.794 528.317 283.453C528.805 283.107 529.362 282.935 529.987 282.935C530.129 282.935 530.287 282.942 530.462 282.956C530.642 282.965 530.791 282.982 530.91 283.006V285.371C530.801 285.333 530.628 285.3 530.391 285.271C530.159 285.238 529.934 285.222 529.717 285.222C529.248 285.222 528.826 285.323 528.452 285.527C528.083 285.726 527.792 286.003 527.579 286.358C527.366 286.713 527.259 287.123 527.259 287.587V294H524.688ZM532.618 294V283.091H535.111V284.909H535.224C535.423 284.279 535.764 283.794 536.247 283.453C536.735 283.107 537.291 282.935 537.916 282.935C538.058 282.935 538.217 282.942 538.392 282.956C538.572 282.965 538.721 282.982 538.839 283.006V285.371C538.731 285.333 538.558 285.3 538.321 285.271C538.089 285.238 537.864 285.222 537.646 285.222C537.178 285.222 536.756 285.323 536.382 285.527C536.013 285.726 535.722 286.003 535.509 286.358C535.295 286.713 535.189 287.123 535.189 287.587V294H532.618ZM544.928 294.213C543.834 294.213 542.89 293.986 542.094 293.531C541.303 293.072 540.695 292.423 540.269 291.585C539.843 290.742 539.63 289.75 539.63 288.609C539.63 287.487 539.843 286.502 540.269 285.655C540.7 284.803 541.301 284.14 542.073 283.666C542.845 283.188 543.751 282.949 544.793 282.949C545.465 282.949 546.1 283.058 546.696 283.276C547.298 283.489 547.828 283.82 548.287 284.27C548.751 284.72 549.116 285.293 549.381 285.989C549.646 286.68 549.779 287.504 549.779 288.46V289.249H540.837V287.516H547.314C547.31 287.023 547.203 286.585 546.995 286.202C546.786 285.813 546.495 285.508 546.121 285.286C545.752 285.063 545.321 284.952 544.828 284.952C544.303 284.952 543.841 285.08 543.444 285.335C543.046 285.586 542.736 285.918 542.513 286.33C542.295 286.737 542.184 287.184 542.179 287.672V289.185C542.179 289.819 542.295 290.364 542.527 290.818C542.759 291.268 543.084 291.614 543.5 291.855C543.917 292.092 544.405 292.21 544.963 292.21C545.337 292.21 545.676 292.158 545.979 292.054C546.282 291.945 546.545 291.786 546.767 291.578C546.99 291.37 547.158 291.112 547.272 290.804L549.672 291.074C549.521 291.708 549.232 292.262 548.806 292.736C548.384 293.205 547.845 293.569 547.186 293.83C546.528 294.085 545.775 294.213 544.928 294.213ZM556.002 294.192C555.145 294.192 554.378 293.972 553.701 293.531C553.024 293.091 552.489 292.452 552.096 291.614C551.703 290.776 551.506 289.758 551.506 288.56C551.506 287.348 551.705 286.325 552.103 285.491C552.505 284.653 553.048 284.021 553.729 283.595C554.411 283.164 555.171 282.949 556.009 282.949C556.648 282.949 557.174 283.058 557.586 283.276C557.998 283.489 558.325 283.747 558.566 284.05C558.808 284.348 558.995 284.63 559.127 284.895H559.234V279.455H561.812V294H559.283V292.281H559.127C558.995 292.546 558.803 292.828 558.552 293.126C558.301 293.42 557.969 293.671 557.558 293.879C557.146 294.088 556.627 294.192 556.002 294.192ZM556.719 292.082C557.264 292.082 557.728 291.936 558.112 291.642C558.495 291.344 558.786 290.929 558.985 290.399C559.184 289.869 559.283 289.251 559.283 288.545C559.283 287.84 559.184 287.227 558.985 286.706C558.791 286.185 558.502 285.78 558.119 285.491C557.74 285.203 557.273 285.058 556.719 285.058C556.147 285.058 555.668 285.207 555.285 285.506C554.901 285.804 554.612 286.216 554.418 286.741C554.224 287.267 554.127 287.868 554.127 288.545C554.127 289.227 554.224 289.836 554.418 290.371C554.617 290.901 554.908 291.32 555.292 291.628C555.68 291.931 556.156 292.082 556.719 292.082ZM569.626 294V279.455H572.197V284.895H572.304C572.436 284.63 572.623 284.348 572.865 284.05C573.106 283.747 573.433 283.489 573.845 283.276C574.257 283.058 574.782 282.949 575.422 282.949C576.264 282.949 577.024 283.164 577.701 283.595C578.383 284.021 578.923 284.653 579.321 285.491C579.723 286.325 579.924 287.348 579.924 288.56C579.924 289.758 579.728 290.776 579.335 291.614C578.942 292.452 578.407 293.091 577.73 293.531C577.053 293.972 576.286 294.192 575.429 294.192C574.804 294.192 574.285 294.088 573.873 293.879C573.461 293.671 573.13 293.42 572.879 293.126C572.633 292.828 572.441 292.546 572.304 292.281H572.154V294H569.626ZM572.147 288.545C572.147 289.251 572.247 289.869 572.446 290.399C572.649 290.929 572.94 291.344 573.319 291.642C573.703 291.936 574.167 292.082 574.711 292.082C575.279 292.082 575.755 291.931 576.139 291.628C576.522 291.32 576.811 290.901 577.005 290.371C577.204 289.836 577.304 289.227 577.304 288.545C577.304 287.868 577.207 287.267 577.012 286.741C576.818 286.216 576.529 285.804 576.146 285.506C575.762 285.207 575.284 285.058 574.711 285.058C574.162 285.058 573.696 285.203 573.312 285.491C572.929 285.78 572.637 286.185 572.439 286.706C572.244 287.227 572.147 287.84 572.147 288.545ZM586.94 294.213C585.846 294.213 584.901 293.986 584.106 293.531C583.315 293.072 582.707 292.423 582.281 291.585C581.854 290.742 581.641 289.75 581.641 288.609C581.641 287.487 581.854 286.502 582.281 285.655C582.711 284.803 583.313 284.14 584.085 283.666C584.856 283.188 585.763 282.949 586.805 282.949C587.477 282.949 588.112 283.058 588.708 283.276C589.309 283.489 589.84 283.82 590.299 284.27C590.763 284.72 591.128 285.293 591.393 285.989C591.658 286.68 591.79 287.504 591.79 288.46V289.249H582.849V287.516H589.326C589.321 287.023 589.215 286.585 589.006 286.202C588.798 285.813 588.507 285.508 588.133 285.286C587.763 285.063 587.333 284.952 586.84 284.952C586.315 284.952 585.853 285.08 585.455 285.335C585.058 285.586 584.747 285.918 584.525 286.33C584.307 286.737 584.196 287.184 584.191 287.672V289.185C584.191 289.819 584.307 290.364 584.539 290.818C584.771 291.268 585.095 291.614 585.512 291.855C585.929 292.092 586.416 292.21 586.975 292.21C587.349 292.21 587.688 292.158 587.991 292.054C588.294 291.945 588.557 291.786 588.779 291.578C589.002 291.37 589.17 291.112 589.283 290.804L591.684 291.074C591.532 291.708 591.244 292.262 590.817 292.736C590.396 293.205 589.856 293.569 589.198 293.83C588.54 294.085 587.787 294.213 586.94 294.213ZM598.724 294.213C597.635 294.213 596.7 293.974 595.919 293.496C595.142 293.018 594.543 292.357 594.122 291.514C593.705 290.667 593.497 289.691 593.497 288.588C593.497 287.48 593.71 286.502 594.136 285.655C594.562 284.803 595.163 284.14 595.94 283.666C596.721 283.188 597.645 282.949 598.71 282.949C599.595 282.949 600.379 283.112 601.061 283.439C601.747 283.761 602.294 284.218 602.701 284.81C603.109 285.397 603.341 286.083 603.397 286.869H600.94C600.841 286.344 600.604 285.906 600.23 285.555C599.86 285.2 599.366 285.023 598.745 285.023C598.22 285.023 597.758 285.165 597.36 285.449C596.963 285.728 596.653 286.131 596.43 286.656C596.212 287.182 596.103 287.812 596.103 288.545C596.103 289.289 596.212 289.928 596.43 290.463C596.648 290.993 596.953 291.403 597.346 291.692C597.744 291.976 598.21 292.118 598.745 292.118C599.124 292.118 599.463 292.047 599.761 291.905C600.064 291.758 600.317 291.547 600.521 291.273C600.725 290.998 600.864 290.664 600.94 290.271H603.397C603.336 291.043 603.109 291.727 602.716 292.324C602.323 292.916 601.788 293.38 601.11 293.716C600.433 294.047 599.638 294.213 598.724 294.213ZM608.648 294.22C607.956 294.22 607.334 294.097 606.78 293.851C606.231 293.6 605.795 293.231 605.473 292.743C605.156 292.255 604.997 291.654 604.997 290.939C604.997 290.323 605.111 289.814 605.338 289.412C605.565 289.009 605.875 288.688 606.268 288.446C606.661 288.205 607.104 288.022 607.597 287.899C608.094 287.771 608.607 287.679 609.138 287.622C609.777 287.556 610.295 287.497 610.693 287.445C611.091 287.388 611.38 287.303 611.56 287.189C611.744 287.071 611.837 286.888 611.837 286.642V286.599C611.837 286.064 611.678 285.65 611.361 285.357C611.044 285.063 610.587 284.916 609.99 284.916C609.36 284.916 608.861 285.054 608.491 285.328C608.127 285.603 607.881 285.927 607.753 286.301L605.352 285.96C605.542 285.297 605.854 284.743 606.29 284.298C606.725 283.848 607.258 283.512 607.888 283.29C608.518 283.062 609.214 282.949 609.976 282.949C610.501 282.949 611.025 283.01 611.545 283.134C612.066 283.257 612.542 283.46 612.973 283.744C613.404 284.024 613.75 284.405 614.01 284.888C614.275 285.371 614.408 285.974 614.408 286.699V294H611.936V292.501H611.851C611.695 292.804 611.474 293.089 611.19 293.354C610.911 293.614 610.558 293.825 610.132 293.986C609.711 294.142 609.216 294.22 608.648 294.22ZM609.315 292.331C609.831 292.331 610.279 292.229 610.658 292.026C611.036 291.817 611.328 291.543 611.531 291.202C611.74 290.861 611.844 290.489 611.844 290.087V288.801C611.763 288.867 611.626 288.929 611.432 288.986C611.242 289.043 611.029 289.092 610.793 289.135C610.556 289.178 610.321 289.215 610.089 289.249C609.857 289.282 609.656 289.31 609.486 289.334C609.102 289.386 608.759 289.471 608.456 289.589C608.153 289.708 607.914 289.874 607.739 290.087C607.563 290.295 607.476 290.565 607.476 290.896C607.476 291.37 607.649 291.727 607.994 291.969C608.34 292.21 608.78 292.331 609.315 292.331ZM623.946 289.412V283.091H626.517V294H624.024V292.061H623.911C623.664 292.672 623.259 293.171 622.696 293.56C622.137 293.948 621.448 294.142 620.629 294.142C619.914 294.142 619.282 293.983 618.733 293.666C618.188 293.344 617.762 292.878 617.455 292.267C617.147 291.652 616.993 290.908 616.993 290.037V283.091H619.564V289.639C619.564 290.33 619.753 290.88 620.132 291.287C620.511 291.694 621.008 291.898 621.624 291.898C622.002 291.898 622.369 291.805 622.724 291.621C623.08 291.436 623.371 291.161 623.598 290.797C623.83 290.428 623.946 289.966 623.946 289.412ZM637.783 285.974L635.439 286.23C635.373 285.993 635.257 285.771 635.091 285.562C634.93 285.354 634.712 285.186 634.438 285.058C634.163 284.93 633.827 284.866 633.429 284.866C632.894 284.866 632.444 284.982 632.08 285.214C631.72 285.446 631.542 285.747 631.547 286.116C631.542 286.434 631.658 286.692 631.895 286.891C632.137 287.089 632.534 287.253 633.088 287.381L634.949 287.778C635.981 288.001 636.748 288.354 637.25 288.837C637.757 289.32 638.013 289.952 638.017 290.733C638.013 291.42 637.811 292.026 637.414 292.551C637.021 293.072 636.474 293.479 635.773 293.773C635.072 294.066 634.267 294.213 633.358 294.213C632.023 294.213 630.948 293.934 630.134 293.375C629.319 292.812 628.834 292.028 628.678 291.024L631.185 290.783C631.299 291.275 631.54 291.647 631.909 291.898C632.279 292.149 632.759 292.274 633.351 292.274C633.962 292.274 634.452 292.149 634.821 291.898C635.195 291.647 635.382 291.337 635.382 290.967C635.382 290.655 635.262 290.397 635.02 290.193C634.783 289.99 634.414 289.833 633.912 289.724L632.051 289.334C631.005 289.116 630.231 288.749 629.729 288.233C629.227 287.712 628.979 287.054 628.983 286.259C628.979 285.586 629.161 285.004 629.53 284.511C629.904 284.014 630.423 283.631 631.086 283.361C631.753 283.086 632.523 282.949 633.394 282.949C634.672 282.949 635.678 283.221 636.412 283.766C637.151 284.31 637.608 285.046 637.783 285.974ZM644.967 294.213C643.873 294.213 642.929 293.986 642.133 293.531C641.342 293.072 640.734 292.423 640.308 291.585C639.882 290.742 639.669 289.75 639.669 288.609C639.669 287.487 639.882 286.502 640.308 285.655C640.739 284.803 641.34 284.14 642.112 283.666C642.884 283.188 643.79 282.949 644.832 282.949C645.504 282.949 646.139 283.058 646.735 283.276C647.337 283.489 647.867 283.82 648.326 284.27C648.79 284.72 649.155 285.293 649.42 285.989C649.685 286.68 649.818 287.504 649.818 288.46V289.249H640.876V287.516H647.353C647.349 287.023 647.242 286.585 647.034 286.202C646.825 285.813 646.534 285.508 646.16 285.286C645.791 285.063 645.36 284.952 644.868 284.952C644.342 284.952 643.88 285.08 643.483 285.335C643.085 285.586 642.775 285.918 642.552 286.33C642.334 286.737 642.223 287.184 642.218 287.672V289.185C642.218 289.819 642.334 290.364 642.566 290.818C642.798 291.268 643.123 291.614 643.539 291.855C643.956 292.092 644.444 292.21 645.002 292.21C645.377 292.21 645.715 292.158 646.018 292.054C646.321 291.945 646.584 291.786 646.806 291.578C647.029 291.37 647.197 291.112 647.311 290.804L649.711 291.074C649.56 291.708 649.271 292.262 648.845 292.736C648.423 293.205 647.884 293.569 647.225 293.83C646.567 294.085 645.815 294.213 644.967 294.213ZM658.552 298.091C658.201 298.091 657.877 298.063 657.579 298.006C657.285 297.954 657.051 297.892 656.876 297.821L657.472 295.818C657.846 295.927 658.18 295.979 658.474 295.974C658.767 295.97 659.025 295.877 659.248 295.697C659.475 295.522 659.667 295.229 659.823 294.817L660.043 294.227L656.087 283.091H658.815L661.329 291.33H661.442L663.964 283.091H666.698L662.33 295.321C662.127 295.899 661.857 296.393 661.521 296.805C661.184 297.222 660.772 297.539 660.285 297.757C659.802 297.98 659.224 298.091 658.552 298.091ZM672.865 294.213C671.799 294.213 670.876 293.979 670.095 293.51C669.314 293.041 668.708 292.385 668.277 291.543C667.85 290.7 667.637 289.715 667.637 288.588C667.637 287.461 667.85 286.474 668.277 285.626C668.708 284.779 669.314 284.121 670.095 283.652C670.876 283.183 671.799 282.949 672.865 282.949C673.93 282.949 674.853 283.183 675.635 283.652C676.416 284.121 677.02 284.779 677.446 285.626C677.877 286.474 678.092 287.461 678.092 288.588C678.092 289.715 677.877 290.7 677.446 291.543C677.02 292.385 676.416 293.041 675.635 293.51C674.853 293.979 673.93 294.213 672.865 294.213ZM672.879 292.153C673.457 292.153 673.94 291.995 674.328 291.678C674.716 291.356 675.005 290.925 675.194 290.385C675.388 289.845 675.485 289.244 675.485 288.581C675.485 287.913 675.388 287.31 675.194 286.77C675.005 286.225 674.716 285.792 674.328 285.47C673.94 285.148 673.457 284.987 672.879 284.987C672.287 284.987 671.795 285.148 671.402 285.47C671.013 285.792 670.722 286.225 670.528 286.77C670.339 287.31 670.244 287.913 670.244 288.581C670.244 289.244 670.339 289.845 670.528 290.385C670.722 290.925 671.013 291.356 671.402 291.678C671.795 291.995 672.287 292.153 672.879 292.153ZM687.227 289.412V283.091H689.798V294H687.305V292.061H687.192C686.946 292.672 686.541 293.171 685.977 293.56C685.419 293.948 684.73 294.142 683.911 294.142C683.196 294.142 682.563 293.983 682.014 293.666C681.47 293.344 681.044 292.878 680.736 292.267C680.428 291.652 680.274 290.908 680.274 290.037V283.091H682.845V289.639C682.845 290.33 683.035 290.88 683.413 291.287C683.792 291.694 684.289 291.898 684.905 291.898C685.284 291.898 685.651 291.805 686.006 291.621C686.361 291.436 686.652 291.161 686.879 290.797C687.111 290.428 687.227 289.966 687.227 289.412ZM702.85 283.091V285.08H696.579V283.091H702.85ZM698.127 280.477H700.699V290.719C700.699 291.064 700.751 291.33 700.855 291.514C700.964 291.694 701.106 291.817 701.281 291.884C701.456 291.95 701.65 291.983 701.863 291.983C702.024 291.983 702.171 291.971 702.304 291.947C702.441 291.924 702.545 291.902 702.616 291.884L703.049 293.893C702.912 293.941 702.716 293.993 702.46 294.05C702.209 294.107 701.901 294.14 701.537 294.149C700.893 294.168 700.313 294.071 699.797 293.858C699.28 293.64 698.871 293.304 698.568 292.849C698.27 292.395 698.123 291.827 698.127 291.145V280.477ZM705.001 294V283.091H707.494V284.909H707.607C707.806 284.279 708.147 283.794 708.63 283.453C709.118 283.107 709.674 282.935 710.299 282.935C710.441 282.935 710.6 282.942 710.775 282.956C710.955 282.965 711.104 282.982 711.222 283.006V285.371C711.113 285.333 710.941 285.3 710.704 285.271C710.472 285.238 710.247 285.222 710.029 285.222C709.56 285.222 709.139 285.323 708.765 285.527C708.396 285.726 708.104 286.003 707.891 286.358C707.678 286.713 707.572 287.123 707.572 287.587V294H705.001ZM712.93 294V283.091H715.501V294H712.93ZM714.223 281.543C713.816 281.543 713.465 281.408 713.172 281.138C712.878 280.863 712.732 280.534 712.732 280.151C712.732 279.762 712.878 279.433 713.172 279.163C713.465 278.889 713.816 278.751 714.223 278.751C714.635 278.751 714.985 278.889 715.274 279.163C715.568 279.433 715.714 279.762 715.714 280.151C715.714 280.534 715.568 280.863 715.274 281.138C714.985 281.408 714.635 281.543 714.223 281.543ZM722.975 294.213C721.881 294.213 720.936 293.986 720.141 293.531C719.35 293.072 718.742 292.423 718.316 291.585C717.89 290.742 717.676 289.75 717.676 288.609C717.676 287.487 717.89 286.502 718.316 285.655C718.747 284.803 719.348 284.14 720.12 283.666C720.891 283.188 721.798 282.949 722.84 282.949C723.512 282.949 724.147 283.058 724.743 283.276C725.345 283.489 725.875 283.82 726.334 284.27C726.798 284.72 727.163 285.293 727.428 285.989C727.693 286.68 727.826 287.504 727.826 288.46V289.249H718.884V287.516H725.361C725.356 287.023 725.25 286.585 725.042 286.202C724.833 285.813 724.542 285.508 724.168 285.286C723.799 285.063 723.368 284.952 722.875 284.952C722.35 284.952 721.888 285.08 721.49 285.335C721.093 285.586 720.783 285.918 720.56 286.33C720.342 286.737 720.231 287.184 720.226 287.672V289.185C720.226 289.819 720.342 290.364 720.574 290.818C720.806 291.268 721.131 291.614 721.547 291.855C721.964 292.092 722.452 292.21 723.01 292.21C723.384 292.21 723.723 292.158 724.026 292.054C724.329 291.945 724.592 291.786 724.814 291.578C725.037 291.37 725.205 291.112 725.319 290.804L727.719 291.074C727.568 291.708 727.279 292.262 726.853 292.736C726.431 293.205 725.891 293.569 725.233 293.83C724.575 294.085 723.822 294.213 722.975 294.213ZM734.049 294.192C733.192 294.192 732.425 293.972 731.748 293.531C731.071 293.091 730.536 292.452 730.143 291.614C729.75 290.776 729.553 289.758 729.553 288.56C729.553 287.348 729.752 286.325 730.15 285.491C730.552 284.653 731.094 284.021 731.776 283.595C732.458 283.164 733.218 282.949 734.056 282.949C734.695 282.949 735.221 283.058 735.633 283.276C736.045 283.489 736.371 283.747 736.613 284.05C736.854 284.348 737.041 284.63 737.174 284.895H737.281V279.455H739.859V294H737.33V292.281H737.174C737.041 292.546 736.85 292.828 736.599 293.126C736.348 293.42 736.016 293.671 735.604 293.879C735.192 294.088 734.674 294.192 734.049 294.192ZM734.766 292.082C735.311 292.082 735.775 291.936 736.158 291.642C736.542 291.344 736.833 290.929 737.032 290.399C737.231 289.869 737.33 289.251 737.33 288.545C737.33 287.84 737.231 287.227 737.032 286.706C736.838 286.185 736.549 285.78 736.165 285.491C735.787 285.203 735.32 285.058 734.766 285.058C734.193 285.058 733.715 285.207 733.332 285.506C732.948 285.804 732.659 286.216 732.465 286.741C732.271 287.267 732.174 287.868 732.174 288.545C732.174 289.227 732.271 289.836 732.465 290.371C732.664 290.901 732.955 291.32 733.339 291.628C733.727 291.931 734.203 292.082 734.766 292.082ZM753.007 283.091V285.08H746.735V283.091H753.007ZM748.284 280.477H750.855V290.719C750.855 291.064 750.907 291.33 751.011 291.514C751.12 291.694 751.262 291.817 751.437 291.884C751.612 291.95 751.806 291.983 752.02 291.983C752.181 291.983 752.327 291.971 752.46 291.947C752.597 291.924 752.701 291.902 752.772 291.884L753.206 293.893C753.068 293.941 752.872 293.993 752.616 294.05C752.365 294.107 752.057 294.14 751.693 294.149C751.049 294.168 750.469 294.071 749.953 293.858C749.437 293.64 749.027 293.304 748.724 292.849C748.426 292.395 748.279 291.827 748.284 291.145V280.477ZM759.798 294.213C758.733 294.213 757.81 293.979 757.028 293.51C756.247 293.041 755.641 292.385 755.21 291.543C754.784 290.7 754.571 289.715 754.571 288.588C754.571 287.461 754.784 286.474 755.21 285.626C755.641 284.779 756.247 284.121 757.028 283.652C757.81 283.183 758.733 282.949 759.798 282.949C760.864 282.949 761.787 283.183 762.568 283.652C763.349 284.121 763.953 284.779 764.379 285.626C764.81 286.474 765.026 287.461 765.026 288.588C765.026 289.715 764.81 290.7 764.379 291.543C763.953 292.385 763.349 293.041 762.568 293.51C761.787 293.979 760.864 294.213 759.798 294.213ZM759.812 292.153C760.39 292.153 760.873 291.995 761.261 291.678C761.65 291.356 761.938 290.925 762.128 290.385C762.322 289.845 762.419 289.244 762.419 288.581C762.419 287.913 762.322 287.31 762.128 286.77C761.938 286.225 761.65 285.792 761.261 285.47C760.873 285.148 760.39 284.987 759.812 284.987C759.221 284.987 758.728 285.148 758.335 285.47C757.947 285.792 757.656 286.225 757.462 286.77C757.272 287.31 757.178 287.913 757.178 288.581C757.178 289.244 757.272 289.845 757.462 290.385C757.656 290.925 757.947 291.356 758.335 291.678C758.728 291.995 759.221 292.153 759.812 292.153ZM781.913 283.091L778.028 294H775.187L771.302 283.091H774.044L776.551 291.195H776.664L779.179 283.091H781.913ZM783.692 294V283.091H786.263V294H783.692ZM784.985 281.543C784.578 281.543 784.227 281.408 783.934 281.138C783.64 280.863 783.493 280.534 783.493 280.151C783.493 279.762 783.64 279.433 783.934 279.163C784.227 278.889 784.578 278.751 784.985 278.751C785.397 278.751 785.747 278.889 786.036 279.163C786.329 279.433 786.476 279.762 786.476 280.151C786.476 280.534 786.329 280.863 786.036 281.138C785.747 281.408 785.397 281.543 784.985 281.543ZM797.529 285.974L795.185 286.23C795.119 285.993 795.003 285.771 794.837 285.562C794.676 285.354 794.459 285.186 794.184 285.058C793.909 284.93 793.573 284.866 793.175 284.866C792.64 284.866 792.191 284.982 791.826 285.214C791.466 285.446 791.289 285.747 791.293 286.116C791.289 286.434 791.405 286.692 791.641 286.891C791.883 287.089 792.281 287.253 792.835 287.381L794.695 287.778C795.728 288.001 796.495 288.354 796.996 288.837C797.503 289.32 797.759 289.952 797.763 290.733C797.759 291.42 797.558 292.026 797.16 292.551C796.767 293.072 796.22 293.479 795.519 293.773C794.818 294.066 794.013 294.213 793.104 294.213C791.769 294.213 790.694 293.934 789.88 293.375C789.066 292.812 788.58 292.028 788.424 291.024L790.931 290.783C791.045 291.275 791.286 291.647 791.656 291.898C792.025 292.149 792.505 292.274 793.097 292.274C793.708 292.274 794.198 292.149 794.567 291.898C794.942 291.647 795.129 291.337 795.129 290.967C795.129 290.655 795.008 290.397 794.766 290.193C794.53 289.99 794.16 289.833 793.658 289.724L791.798 289.334C790.751 289.116 789.977 288.749 789.475 288.233C788.973 287.712 788.725 287.054 788.729 286.259C788.725 285.586 788.907 285.004 789.276 284.511C789.65 284.014 790.169 283.631 790.832 283.361C791.499 283.086 792.269 282.949 793.14 282.949C794.418 282.949 795.424 283.221 796.158 283.766C796.897 284.31 797.354 285.046 797.529 285.974ZM799.884 294V283.091H802.455V294H799.884ZM801.176 281.543C800.769 281.543 800.419 281.408 800.125 281.138C799.831 280.863 799.685 280.534 799.685 280.151C799.685 279.762 799.831 279.433 800.125 279.163C800.419 278.889 800.769 278.751 801.176 278.751C801.588 278.751 801.938 278.889 802.227 279.163C802.521 279.433 802.668 279.762 802.668 280.151C802.668 280.534 802.521 280.863 802.227 281.138C801.938 281.408 801.588 281.543 801.176 281.543ZM810.546 283.091V285.08H804.275V283.091H810.546ZM805.823 280.477H808.394V290.719C808.394 291.064 808.446 291.33 808.55 291.514C808.659 291.694 808.801 291.817 808.976 291.884C809.151 291.95 809.346 291.983 809.559 291.983C809.72 291.983 809.866 291.971 809.999 291.947C810.136 291.924 810.24 291.902 810.311 291.884L810.745 293.893C810.607 293.941 810.411 293.993 810.155 294.05C809.904 294.107 809.596 294.14 809.232 294.149C808.588 294.168 808.008 294.071 807.492 293.858C806.976 293.64 806.566 293.304 806.263 292.849C805.965 292.395 805.818 291.827 805.823 291.145V280.477ZM820.796 294.22C820.105 294.22 819.482 294.097 818.928 293.851C818.379 293.6 817.943 293.231 817.621 292.743C817.304 292.255 817.146 291.654 817.146 290.939C817.146 290.323 817.259 289.814 817.487 289.412C817.714 289.009 818.024 288.688 818.417 288.446C818.81 288.205 819.253 288.022 819.745 287.899C820.242 287.771 820.756 287.679 821.286 287.622C821.925 287.556 822.444 287.497 822.842 287.445C823.239 287.388 823.528 287.303 823.708 287.189C823.893 287.071 823.985 286.888 823.985 286.642V286.599C823.985 286.064 823.826 285.65 823.509 285.357C823.192 285.063 822.735 284.916 822.138 284.916C821.509 284.916 821.009 285.054 820.64 285.328C820.275 285.603 820.029 285.927 819.901 286.301L817.501 285.96C817.69 285.297 818.003 284.743 818.438 284.298C818.874 283.848 819.406 283.512 820.036 283.29C820.666 283.062 821.362 282.949 822.124 282.949C822.65 282.949 823.173 283.01 823.694 283.134C824.215 283.257 824.691 283.46 825.121 283.744C825.552 284.024 825.898 284.405 826.158 284.888C826.424 285.371 826.556 285.974 826.556 286.699V294H824.085V292.501H823.999C823.843 292.804 823.623 293.089 823.339 293.354C823.059 293.614 822.707 293.825 822.281 293.986C821.859 294.142 821.364 294.22 820.796 294.22ZM821.464 292.331C821.98 292.331 822.427 292.229 822.806 292.026C823.185 291.817 823.476 291.543 823.68 291.202C823.888 290.861 823.992 290.489 823.992 290.087V288.801C823.912 288.867 823.774 288.929 823.58 288.986C823.391 289.043 823.178 289.092 822.941 289.135C822.704 289.178 822.47 289.215 822.238 289.249C822.006 289.282 821.805 289.31 821.634 289.334C821.251 289.386 820.907 289.471 820.604 289.589C820.301 289.708 820.062 289.874 819.887 290.087C819.712 290.295 819.624 290.565 819.624 290.896C819.624 291.37 819.797 291.727 820.143 291.969C820.488 292.21 820.929 292.331 821.464 292.331ZM385.533 318L382.451 307.091H385.072L386.989 314.761H387.089L389.049 307.091H391.641L393.602 314.719H393.708L395.597 307.091H398.225L395.136 318H392.458L390.413 310.628H390.263L388.218 318H385.533ZM404.537 318.213C403.444 318.213 402.499 317.986 401.703 317.531C400.913 317.072 400.304 316.423 399.878 315.585C399.452 314.742 399.239 313.75 399.239 312.609C399.239 311.487 399.452 310.502 399.878 309.655C400.309 308.803 400.91 308.14 401.682 307.666C402.454 307.188 403.361 306.949 404.402 306.949C405.075 306.949 405.709 307.058 406.306 307.276C406.907 307.489 407.437 307.82 407.897 308.27C408.361 308.72 408.725 309.293 408.99 309.989C409.256 310.68 409.388 311.504 409.388 312.46V313.249H400.446V311.516H406.924C406.919 311.023 406.812 310.585 406.604 310.202C406.396 309.813 406.105 309.508 405.73 309.286C405.361 309.063 404.93 308.952 404.438 308.952C403.912 308.952 403.451 309.08 403.053 309.335C402.655 309.586 402.345 309.918 402.123 310.33C401.905 310.737 401.793 311.184 401.789 311.672V313.185C401.789 313.819 401.905 314.364 402.137 314.818C402.369 315.268 402.693 315.614 403.11 315.855C403.526 316.092 404.014 316.21 404.573 316.21C404.947 316.21 405.285 316.158 405.588 316.054C405.891 315.945 406.154 315.786 406.377 315.578C406.599 315.37 406.767 315.112 406.881 314.804L409.282 315.074C409.13 315.708 408.841 316.262 408.415 316.736C407.994 317.205 407.454 317.569 406.796 317.83C406.138 318.085 405.385 318.213 404.537 318.213ZM411.677 318V303.455H414.248V308.895H414.354C414.487 308.63 414.674 308.348 414.915 308.05C415.157 307.747 415.484 307.489 415.896 307.276C416.308 307.058 416.833 306.949 417.472 306.949C418.315 306.949 419.075 307.164 419.752 307.595C420.434 308.021 420.974 308.653 421.371 309.491C421.774 310.325 421.975 311.348 421.975 312.56C421.975 313.758 421.779 314.776 421.386 315.614C420.993 316.452 420.458 317.091 419.781 317.531C419.103 317.972 418.336 318.192 417.479 318.192C416.854 318.192 416.336 318.088 415.924 317.879C415.512 317.671 415.181 317.42 414.93 317.126C414.683 316.828 414.492 316.546 414.354 316.281H414.205V318H411.677ZM414.198 312.545C414.198 313.251 414.298 313.869 414.496 314.399C414.7 314.929 414.991 315.344 415.37 315.642C415.754 315.936 416.218 316.082 416.762 316.082C417.33 316.082 417.806 315.931 418.19 315.628C418.573 315.32 418.862 314.901 419.056 314.371C419.255 313.836 419.354 313.227 419.354 312.545C419.354 311.868 419.257 311.267 419.063 310.741C418.869 310.216 418.58 309.804 418.197 309.506C417.813 309.207 417.335 309.058 416.762 309.058C416.213 309.058 415.746 309.203 415.363 309.491C414.979 309.78 414.688 310.185 414.489 310.706C414.295 311.227 414.198 311.84 414.198 312.545ZM424.161 322.091V307.091H426.689V308.895H426.838C426.971 308.63 427.158 308.348 427.4 308.05C427.641 307.747 427.968 307.489 428.38 307.276C428.792 307.058 429.317 306.949 429.956 306.949C430.799 306.949 431.559 307.164 432.236 307.595C432.918 308.021 433.458 308.653 433.855 309.491C434.258 310.325 434.459 311.348 434.459 312.56C434.459 313.758 434.263 314.776 433.87 315.614C433.477 316.452 432.942 317.091 432.265 317.531C431.587 317.972 430.82 318.192 429.963 318.192C429.338 318.192 428.82 318.088 428.408 317.879C427.996 317.671 427.665 317.42 427.414 317.126C427.167 316.828 426.976 316.546 426.838 316.281H426.732V322.091H424.161ZM426.682 312.545C426.682 313.251 426.782 313.869 426.98 314.399C427.184 314.929 427.475 315.344 427.854 315.642C428.238 315.936 428.702 316.082 429.246 316.082C429.814 316.082 430.29 315.931 430.674 315.628C431.057 315.32 431.346 314.901 431.54 314.371C431.739 313.836 431.838 313.227 431.838 312.545C431.838 311.868 431.741 311.267 431.547 310.741C431.353 310.216 431.064 309.804 430.681 309.506C430.297 309.207 429.819 309.058 429.246 309.058C428.697 309.058 428.23 309.203 427.847 309.491C427.463 309.78 427.172 310.185 426.973 310.706C426.779 311.227 426.682 311.84 426.682 312.545ZM439.8 318.22C439.109 318.22 438.486 318.097 437.932 317.851C437.383 317.6 436.947 317.231 436.625 316.743C436.308 316.255 436.15 315.654 436.15 314.939C436.15 314.323 436.263 313.814 436.49 313.412C436.718 313.009 437.028 312.688 437.421 312.446C437.814 312.205 438.257 312.022 438.749 311.899C439.246 311.771 439.76 311.679 440.29 311.622C440.929 311.556 441.448 311.497 441.846 311.445C442.243 311.388 442.532 311.303 442.712 311.189C442.897 311.071 442.989 310.888 442.989 310.642V310.599C442.989 310.064 442.83 309.65 442.513 309.357C442.196 309.063 441.739 308.916 441.142 308.916C440.513 308.916 440.013 309.054 439.644 309.328C439.279 309.603 439.033 309.927 438.905 310.301L436.505 309.96C436.694 309.297 437.007 308.743 437.442 308.298C437.878 307.848 438.41 307.512 439.04 307.29C439.67 307.062 440.366 306.949 441.128 306.949C441.654 306.949 442.177 307.01 442.698 307.134C443.219 307.257 443.694 307.46 444.125 307.744C444.556 308.024 444.902 308.405 445.162 308.888C445.427 309.371 445.56 309.974 445.56 310.699V318H443.088V316.501H443.003C442.847 316.804 442.627 317.089 442.343 317.354C442.063 317.614 441.711 317.825 441.284 317.986C440.863 318.142 440.368 318.22 439.8 318.22ZM440.468 316.331C440.984 316.331 441.431 316.229 441.81 316.026C442.189 315.817 442.48 315.543 442.684 315.202C442.892 314.861 442.996 314.489 442.996 314.087V312.801C442.916 312.867 442.778 312.929 442.584 312.986C442.395 313.043 442.182 313.092 441.945 313.135C441.708 313.178 441.474 313.215 441.242 313.249C441.01 313.282 440.809 313.31 440.638 313.334C440.255 313.386 439.911 313.471 439.608 313.589C439.305 313.708 439.066 313.874 438.891 314.087C438.716 314.295 438.628 314.565 438.628 314.896C438.628 315.37 438.801 315.727 439.147 315.969C439.492 316.21 439.933 316.331 440.468 316.331ZM452.89 322.318C451.966 322.318 451.173 322.193 450.51 321.942C449.847 321.696 449.315 321.364 448.912 320.947C448.51 320.531 448.23 320.069 448.074 319.562L450.39 319.001C450.494 319.214 450.645 319.425 450.844 319.634C451.043 319.847 451.31 320.022 451.647 320.159C451.988 320.301 452.416 320.372 452.932 320.372C453.661 320.372 454.265 320.195 454.743 319.839C455.221 319.489 455.461 318.911 455.461 318.107V316.04H455.333C455.2 316.305 455.006 316.577 454.75 316.857C454.499 317.136 454.166 317.37 453.749 317.56C453.337 317.749 452.819 317.844 452.194 317.844C451.355 317.844 450.596 317.647 449.914 317.254C449.237 316.857 448.697 316.265 448.294 315.479C447.897 314.688 447.698 313.698 447.698 312.51C447.698 311.312 447.897 310.301 448.294 309.477C448.697 308.649 449.239 308.021 449.921 307.595C450.603 307.164 451.363 306.949 452.201 306.949C452.84 306.949 453.365 307.058 453.777 307.276C454.194 307.489 454.525 307.747 454.772 308.05C455.018 308.348 455.205 308.63 455.333 308.895H455.475V307.091H458.01V318.178C458.01 319.11 457.788 319.882 457.343 320.493C456.898 321.104 456.289 321.561 455.517 321.864C454.746 322.167 453.87 322.318 452.89 322.318ZM452.911 315.827C453.455 315.827 453.919 315.694 454.303 315.429C454.686 315.164 454.978 314.783 455.176 314.286C455.375 313.788 455.475 313.192 455.475 312.496C455.475 311.809 455.375 311.208 455.176 310.692C454.982 310.176 454.694 309.776 454.31 309.491C453.931 309.203 453.465 309.058 452.911 309.058C452.338 309.058 451.86 309.207 451.476 309.506C451.093 309.804 450.804 310.214 450.61 310.734C450.416 311.25 450.319 311.838 450.319 312.496C450.319 313.163 450.416 313.748 450.61 314.25C450.809 314.747 451.1 315.135 451.483 315.415C451.872 315.689 452.347 315.827 452.911 315.827ZM465.475 318.213C464.381 318.213 463.436 317.986 462.641 317.531C461.85 317.072 461.242 316.423 460.816 315.585C460.39 314.742 460.176 313.75 460.176 312.609C460.176 311.487 460.39 310.502 460.816 309.655C461.247 308.803 461.848 308.14 462.62 307.666C463.391 307.188 464.298 306.949 465.34 306.949C466.012 306.949 466.647 307.058 467.243 307.276C467.845 307.489 468.375 307.82 468.834 308.27C469.298 308.72 469.663 309.293 469.928 309.989C470.193 310.68 470.326 311.504 470.326 312.46V313.249H461.384V311.516H467.861C467.856 311.023 467.75 310.585 467.542 310.202C467.333 309.813 467.042 309.508 466.668 309.286C466.299 309.063 465.868 308.952 465.375 308.952C464.85 308.952 464.388 309.08 463.99 309.335C463.593 309.586 463.283 309.918 463.06 310.33C462.842 310.737 462.731 311.184 462.726 311.672V313.185C462.726 313.819 462.842 314.364 463.074 314.818C463.306 315.268 463.631 315.614 464.047 315.855C464.464 316.092 464.952 316.21 465.51 316.21C465.884 316.21 466.223 316.158 466.526 316.054C466.829 315.945 467.092 315.786 467.314 315.578C467.537 315.37 467.705 315.112 467.819 314.804L470.219 315.074C470.068 315.708 469.779 316.262 469.353 316.736C468.931 317.205 468.391 317.569 467.733 317.83C467.075 318.085 466.322 318.213 465.475 318.213ZM477.575 318V303.455H480.146V308.895H480.253C480.385 308.63 480.572 308.348 480.814 308.05C481.055 307.747 481.382 307.489 481.794 307.276C482.206 307.058 482.732 306.949 483.371 306.949C484.214 306.949 484.973 307.164 485.651 307.595C486.332 308.021 486.872 308.653 487.27 309.491C487.672 310.325 487.874 311.348 487.874 312.56C487.874 313.758 487.677 314.776 487.284 315.614C486.891 316.452 486.356 317.091 485.679 317.531C485.002 317.972 484.235 318.192 483.378 318.192C482.753 318.192 482.234 318.088 481.822 317.879C481.411 317.671 481.079 317.42 480.828 317.126C480.582 316.828 480.39 316.546 480.253 316.281H480.104V318H477.575ZM480.097 312.545C480.097 313.251 480.196 313.869 480.395 314.399C480.598 314.929 480.89 315.344 481.268 315.642C481.652 315.936 482.116 316.082 482.661 316.082C483.229 316.082 483.705 315.931 484.088 315.628C484.472 315.32 484.76 314.901 484.955 314.371C485.153 313.836 485.253 313.227 485.253 312.545C485.253 311.868 485.156 311.267 484.962 310.741C484.768 310.216 484.479 309.804 484.095 309.506C483.712 309.207 483.233 309.058 482.661 309.058C482.111 309.058 481.645 309.203 481.261 309.491C480.878 309.78 480.587 310.185 480.388 310.706C480.194 311.227 480.097 311.84 480.097 312.545ZM494.889 318.213C493.795 318.213 492.85 317.986 492.055 317.531C491.264 317.072 490.656 316.423 490.23 315.585C489.804 314.742 489.591 313.75 489.591 312.609C489.591 311.487 489.804 310.502 490.23 309.655C490.661 308.803 491.262 308.14 492.034 307.666C492.806 307.188 493.712 306.949 494.754 306.949C495.426 306.949 496.061 307.058 496.657 307.276C497.259 307.489 497.789 307.82 498.248 308.27C498.712 308.72 499.077 309.293 499.342 309.989C499.607 310.68 499.74 311.504 499.74 312.46V313.249H490.798V311.516H497.275C497.27 311.023 497.164 310.585 496.956 310.202C496.747 309.813 496.456 309.508 496.082 309.286C495.713 309.063 495.282 308.952 494.789 308.952C494.264 308.952 493.802 309.08 493.404 309.335C493.007 309.586 492.697 309.918 492.474 310.33C492.256 310.737 492.145 311.184 492.14 311.672V313.185C492.14 313.819 492.256 314.364 492.488 314.818C492.72 315.268 493.045 315.614 493.461 315.855C493.878 316.092 494.366 316.21 494.924 316.21C495.298 316.21 495.637 316.158 495.94 316.054C496.243 315.945 496.506 315.786 496.728 315.578C496.951 315.37 497.119 315.112 497.233 314.804L499.633 315.074C499.482 315.708 499.193 316.262 498.767 316.736C498.345 317.205 497.806 317.569 497.147 317.83C496.489 318.085 495.736 318.213 494.889 318.213ZM507.44 307.091V309.08H500.991V307.091H507.44ZM502.604 318V306.061C502.604 305.327 502.755 304.716 503.058 304.229C503.366 303.741 503.778 303.376 504.294 303.135C504.81 302.893 505.383 302.773 506.013 302.773C506.458 302.773 506.853 302.808 507.199 302.879C507.545 302.95 507.8 303.014 507.966 303.071L507.455 305.06C507.346 305.027 507.208 304.993 507.043 304.96C506.877 304.922 506.692 304.903 506.489 304.903C506.01 304.903 505.672 305.019 505.473 305.251C505.279 305.479 505.182 305.805 505.182 306.232V318H502.604ZM513.802 318.213C512.737 318.213 511.814 317.979 511.032 317.51C510.251 317.041 509.645 316.385 509.214 315.543C508.788 314.7 508.575 313.715 508.575 312.588C508.575 311.461 508.788 310.474 509.214 309.626C509.645 308.779 510.251 308.121 511.032 307.652C511.814 307.183 512.737 306.949 513.802 306.949C514.868 306.949 515.791 307.183 516.572 307.652C517.353 308.121 517.957 308.779 518.383 309.626C518.814 310.474 519.029 311.461 519.029 312.588C519.029 313.715 518.814 314.7 518.383 315.543C517.957 316.385 517.353 317.041 516.572 317.51C515.791 317.979 514.868 318.213 513.802 318.213ZM513.816 316.153C514.394 316.153 514.877 315.995 515.265 315.678C515.654 315.356 515.942 314.925 516.132 314.385C516.326 313.845 516.423 313.244 516.423 312.581C516.423 311.913 516.326 311.31 516.132 310.77C515.942 310.225 515.654 309.792 515.265 309.47C514.877 309.148 514.394 308.987 513.816 308.987C513.225 308.987 512.732 309.148 512.339 309.47C511.951 309.792 511.66 310.225 511.466 310.77C511.276 311.31 511.181 311.913 511.181 312.581C511.181 313.244 511.276 313.845 511.466 314.385C511.66 314.925 511.951 315.356 512.339 315.678C512.732 315.995 513.225 316.153 513.816 316.153ZM521.212 318V307.091H523.705V308.909H523.818C524.017 308.279 524.358 307.794 524.841 307.453C525.329 307.107 525.885 306.935 526.51 306.935C526.652 306.935 526.811 306.942 526.986 306.956C527.166 306.965 527.315 306.982 527.433 307.006V309.371C527.324 309.333 527.152 309.3 526.915 309.271C526.683 309.238 526.458 309.222 526.24 309.222C525.771 309.222 525.35 309.323 524.976 309.527C524.607 309.726 524.315 310.003 524.102 310.358C523.889 310.713 523.783 311.123 523.783 311.587V318H521.212ZM533.522 318.213C532.428 318.213 531.483 317.986 530.688 317.531C529.897 317.072 529.289 316.423 528.863 315.585C528.436 314.742 528.223 313.75 528.223 312.609C528.223 311.487 528.436 310.502 528.863 309.655C529.293 308.803 529.895 308.14 530.667 307.666C531.438 307.188 532.345 306.949 533.387 306.949C534.059 306.949 534.694 307.058 535.29 307.276C535.891 307.489 536.422 307.82 536.881 308.27C537.345 308.72 537.71 309.293 537.975 309.989C538.24 310.68 538.373 311.504 538.373 312.46V313.249H529.431V311.516H535.908C535.903 311.023 535.797 310.585 535.588 310.202C535.38 309.813 535.089 309.508 534.715 309.286C534.346 309.063 533.915 308.952 533.422 308.952C532.897 308.952 532.435 309.08 532.037 309.335C531.64 309.586 531.329 309.918 531.107 310.33C530.889 310.737 530.778 311.184 530.773 311.672V313.185C530.773 313.819 530.889 314.364 531.121 314.818C531.353 315.268 531.677 315.614 532.094 315.855C532.511 316.092 532.998 316.21 533.557 316.21C533.931 316.21 534.27 316.158 534.573 316.054C534.876 315.945 535.139 315.786 535.361 315.578C535.584 315.37 535.752 315.112 535.865 314.804L538.266 315.074C538.114 315.708 537.826 316.262 537.4 316.736C536.978 317.205 536.438 317.569 535.78 317.83C535.122 318.085 534.369 318.213 533.522 318.213ZM550.267 318.213C549.178 318.213 548.243 317.974 547.462 317.496C546.685 317.018 546.086 316.357 545.665 315.514C545.248 314.667 545.04 313.691 545.04 312.588C545.04 311.48 545.253 310.502 545.679 309.655C546.105 308.803 546.706 308.14 547.483 307.666C548.264 307.188 549.188 306.949 550.253 306.949C551.138 306.949 551.922 307.112 552.604 307.439C553.29 307.761 553.837 308.218 554.244 308.81C554.652 309.397 554.884 310.083 554.94 310.869H552.483C552.384 310.344 552.147 309.906 551.773 309.555C551.403 309.2 550.909 309.023 550.288 309.023C549.763 309.023 549.301 309.165 548.903 309.449C548.506 309.728 548.196 310.131 547.973 310.656C547.755 311.182 547.646 311.812 547.646 312.545C547.646 313.289 547.755 313.928 547.973 314.463C548.191 314.993 548.496 315.403 548.889 315.692C549.287 315.976 549.753 316.118 550.288 316.118C550.667 316.118 551.006 316.047 551.304 315.905C551.607 315.758 551.86 315.547 552.064 315.273C552.268 314.998 552.407 314.664 552.483 314.271H554.94C554.879 315.043 554.652 315.727 554.259 316.324C553.866 316.916 553.33 317.38 552.653 317.716C551.976 318.047 551.181 318.213 550.267 318.213ZM557.051 318V307.091H559.544V308.909H559.658C559.857 308.279 560.198 307.794 560.681 307.453C561.168 307.107 561.725 306.935 562.35 306.935C562.492 306.935 562.65 306.942 562.826 306.956C563.006 306.965 563.155 306.982 563.273 307.006V309.371C563.164 309.333 562.991 309.3 562.755 309.271C562.523 309.238 562.298 309.222 562.08 309.222C561.611 309.222 561.19 309.323 560.816 309.527C560.446 309.726 560.155 310.003 559.942 310.358C559.729 310.713 559.623 311.123 559.623 311.587V318H557.051ZM569.362 318.213C568.268 318.213 567.323 317.986 566.528 317.531C565.737 317.072 565.129 316.423 564.702 315.585C564.276 314.742 564.063 313.75 564.063 312.609C564.063 311.487 564.276 310.502 564.702 309.655C565.133 308.803 565.735 308.14 566.506 307.666C567.278 307.188 568.185 306.949 569.227 306.949C569.899 306.949 570.533 307.058 571.13 307.276C571.731 307.489 572.262 307.82 572.721 308.27C573.185 308.72 573.549 309.293 573.815 309.989C574.08 310.68 574.212 311.504 574.212 312.46V313.249H565.271V311.516H571.748C571.743 311.023 571.637 310.585 571.428 310.202C571.22 309.813 570.929 309.508 570.555 309.286C570.185 309.063 569.754 308.952 569.262 308.952C568.737 308.952 568.275 309.08 567.877 309.335C567.479 309.586 567.169 309.918 566.947 310.33C566.729 310.737 566.618 311.184 566.613 311.672V313.185C566.613 313.819 566.729 314.364 566.961 314.818C567.193 315.268 567.517 315.614 567.934 315.855C568.351 316.092 568.838 316.21 569.397 316.21C569.771 316.21 570.11 316.158 570.413 316.054C570.716 315.945 570.978 315.786 571.201 315.578C571.424 315.37 571.592 315.112 571.705 314.804L574.106 315.074C573.954 315.708 573.665 316.262 573.239 316.736C572.818 317.205 572.278 317.569 571.62 317.83C570.962 318.085 570.209 318.213 569.362 318.213ZM579.527 318.22C578.835 318.22 578.213 318.097 577.659 317.851C577.109 317.6 576.674 317.231 576.352 316.743C576.035 316.255 575.876 315.654 575.876 314.939C575.876 314.323 575.99 313.814 576.217 313.412C576.444 313.009 576.754 312.688 577.147 312.446C577.54 312.205 577.983 312.022 578.475 311.899C578.973 311.771 579.486 311.679 580.017 311.622C580.656 311.556 581.174 311.497 581.572 311.445C581.97 311.388 582.259 311.303 582.439 311.189C582.623 311.071 582.716 310.888 582.716 310.642V310.599C582.716 310.064 582.557 309.65 582.24 309.357C581.922 309.063 581.466 308.916 580.869 308.916C580.239 308.916 579.74 309.054 579.37 309.328C579.006 309.603 578.76 309.927 578.632 310.301L576.231 309.96C576.421 309.297 576.733 308.743 577.169 308.298C577.604 307.848 578.137 307.512 578.767 307.29C579.396 307.062 580.092 306.949 580.855 306.949C581.38 306.949 581.904 307.01 582.424 307.134C582.945 307.257 583.421 307.46 583.852 307.744C584.283 308.024 584.628 308.405 584.889 308.888C585.154 309.371 585.287 309.974 585.287 310.699V318H582.815V316.501H582.73C582.574 316.804 582.353 317.089 582.069 317.354C581.79 317.614 581.437 317.825 581.011 317.986C580.59 318.142 580.095 318.22 579.527 318.22ZM580.194 316.331C580.71 316.331 581.158 316.229 581.537 316.026C581.915 315.817 582.207 315.543 582.41 315.202C582.618 314.861 582.723 314.489 582.723 314.087V312.801C582.642 312.867 582.505 312.929 582.311 312.986C582.121 313.043 581.908 313.092 581.672 313.135C581.435 313.178 581.2 313.215 580.968 313.249C580.736 313.282 580.535 313.31 580.365 313.334C579.981 313.386 579.638 313.471 579.335 313.589C579.032 313.708 578.793 313.874 578.618 314.087C578.442 314.295 578.355 314.565 578.355 314.896C578.355 315.37 578.528 315.727 578.873 315.969C579.219 316.21 579.659 316.331 580.194 316.331ZM593.319 307.091V309.08H587.048V307.091H593.319ZM588.596 304.477H591.167V314.719C591.167 315.064 591.219 315.33 591.324 315.514C591.432 315.694 591.574 315.817 591.75 315.884C591.925 315.95 592.119 315.983 592.332 315.983C592.493 315.983 592.64 315.971 592.772 315.947C592.91 315.924 593.014 315.902 593.085 315.884L593.518 317.893C593.381 317.941 593.184 317.993 592.929 318.05C592.678 318.107 592.37 318.14 592.005 318.149C591.361 318.168 590.781 318.071 590.265 317.858C589.749 317.64 589.34 317.304 589.037 316.849C588.738 316.395 588.592 315.827 588.596 315.145V304.477ZM595.469 318V307.091H598.04V318H595.469ZM596.762 305.543C596.355 305.543 596.004 305.408 595.711 305.138C595.417 304.863 595.271 304.534 595.271 304.151C595.271 303.762 595.417 303.433 595.711 303.163C596.004 302.889 596.355 302.751 596.762 302.751C597.174 302.751 597.524 302.889 597.813 303.163C598.107 303.433 598.254 303.762 598.254 304.151C598.254 304.534 598.107 304.863 597.813 305.138C597.524 305.408 597.174 305.543 596.762 305.543ZM605.443 318.213C604.377 318.213 603.454 317.979 602.673 317.51C601.892 317.041 601.286 316.385 600.855 315.543C600.429 314.7 600.216 313.715 600.216 312.588C600.216 311.461 600.429 310.474 600.855 309.626C601.286 308.779 601.892 308.121 602.673 307.652C603.454 307.183 604.377 306.949 605.443 306.949C606.508 306.949 607.431 307.183 608.213 307.652C608.994 308.121 609.598 308.779 610.024 309.626C610.455 310.474 610.67 311.461 610.67 312.588C610.67 313.715 610.455 314.7 610.024 315.543C609.598 316.385 608.994 317.041 608.213 317.51C607.431 317.979 606.508 318.213 605.443 318.213ZM605.457 316.153C606.035 316.153 606.518 315.995 606.906 315.678C607.294 315.356 607.583 314.925 607.772 314.385C607.967 313.845 608.064 313.244 608.064 312.581C608.064 311.913 607.967 311.31 607.772 310.77C607.583 310.225 607.294 309.792 606.906 309.47C606.518 309.148 606.035 308.987 605.457 308.987C604.865 308.987 604.373 309.148 603.98 309.47C603.592 309.792 603.3 310.225 603.106 310.77C602.917 311.31 602.822 311.913 602.822 312.581C602.822 313.244 602.917 313.845 603.106 314.385C603.3 314.925 603.592 315.356 603.98 315.678C604.373 315.995 604.865 316.153 605.457 316.153ZM615.423 311.608V318H612.852V307.091H615.31V308.945H615.438C615.688 308.334 616.089 307.848 616.638 307.489C617.192 307.129 617.876 306.949 618.69 306.949C619.443 306.949 620.099 307.11 620.658 307.432C621.221 307.754 621.657 308.22 621.964 308.831C622.277 309.442 622.431 310.183 622.426 311.054V318H619.855V311.452C619.855 310.723 619.666 310.152 619.287 309.74C618.913 309.328 618.394 309.122 617.732 309.122C617.282 309.122 616.882 309.222 616.531 309.42C616.186 309.615 615.913 309.896 615.714 310.266C615.52 310.635 615.423 311.082 615.423 311.608ZM626.624 318.156C626.193 318.156 625.823 318.005 625.516 317.702C625.208 317.399 625.056 317.029 625.061 316.594C625.056 316.168 625.208 315.803 625.516 315.5C625.823 315.197 626.193 315.045 626.624 315.045C627.04 315.045 627.402 315.197 627.71 315.5C628.023 315.803 628.181 316.168 628.186 316.594C628.181 316.883 628.106 317.145 627.959 317.382C627.817 317.619 627.627 317.808 627.391 317.95C627.159 318.088 626.903 318.156 626.624 318.156ZM632.424 318.156C631.993 318.156 631.624 318.005 631.316 317.702C631.009 317.399 630.857 317.029 630.862 316.594C630.857 316.168 631.009 315.803 631.316 315.5C631.624 315.197 631.993 315.045 632.424 315.045C632.841 315.045 633.203 315.197 633.511 315.5C633.824 315.803 633.982 316.168 633.987 316.594C633.982 316.883 633.906 317.145 633.76 317.382C633.618 317.619 633.428 317.808 633.191 317.95C632.959 318.088 632.704 318.156 632.424 318.156Z" fill="#FF7373"/>
</g>
<defs>
<clipPath id="clip0_9_26">
<rect width="1240" height="743" fill="white"/>
</clipPath>
</defs>
</svg>
