<svg width="1240" height="743" viewBox="0 0 1240 743" fill="none" xmlns="http://www.w3.org/2000/svg">
<g clip-path="url(#clip0_9_8)">
<rect width="1240" height="743" fill="white"/>
<path d="M519.882 96.1602C519.719 94.6405 519.035 93.4573 517.828 92.6104C516.634 91.7636 515.079 91.3402 513.165 91.3402C511.819 91.3402 510.665 91.5432 509.702 91.9492C508.74 92.3552 508.003 92.9062 507.493 93.6023C506.982 94.2983 506.721 95.0929 506.71 95.9862C506.71 96.7286 506.878 97.3724 507.214 97.9176C507.562 98.4628 508.032 98.9268 508.624 99.3097C509.215 99.6809 509.871 99.9941 510.59 100.249C511.309 100.504 512.034 100.719 512.765 100.893L516.106 101.728C517.451 102.042 518.745 102.465 519.986 102.999C521.239 103.532 522.358 104.205 523.344 105.017C524.342 105.829 525.131 106.809 525.711 107.958C526.291 109.106 526.581 110.452 526.581 111.995C526.581 114.083 526.047 115.921 524.98 117.511C523.913 119.088 522.37 120.324 520.352 121.217C518.345 122.099 515.914 122.539 513.061 122.539C510.288 122.539 507.881 122.11 505.839 121.252C503.809 120.393 502.22 119.141 501.072 117.493C499.935 115.846 499.32 113.839 499.227 111.473H505.578C505.671 112.714 506.054 113.746 506.727 114.57C507.4 115.394 508.276 116.008 509.354 116.414C510.445 116.82 511.663 117.023 513.009 117.023C514.412 117.023 515.642 116.815 516.697 116.397C517.765 115.968 518.6 115.376 519.203 114.622C519.806 113.857 520.114 112.963 520.125 111.942C520.114 111.014 519.841 110.249 519.308 109.646C518.774 109.031 518.026 108.52 517.063 108.114C516.112 107.697 514.998 107.326 513.722 107.001L509.668 105.957C506.733 105.203 504.413 104.06 502.707 102.529C501.014 100.986 500.167 98.9384 500.167 96.3864C500.167 94.2867 500.735 92.448 501.872 90.8704C503.021 89.2927 504.581 88.0689 506.553 87.1989C508.525 86.3172 510.758 85.8764 513.252 85.8764C515.781 85.8764 517.997 86.3172 519.899 87.1989C521.813 88.0689 523.315 89.2811 524.406 90.8356C525.496 92.3784 526.059 94.1533 526.094 96.1602H519.882ZM530.77 91.7752V86.3636H559.203V91.7752H548.188V122H541.785V91.7752H530.77ZM564.954 122H558.063L570.609 86.3636H578.578L591.141 122H584.251L574.733 93.6719H574.454L564.954 122ZM565.18 108.027H583.972V113.213H565.18V108.027ZM589.963 91.7752V86.3636H618.395V91.7752H607.381V122H600.977V91.7752H589.963ZM623.876 86.3636H631.776L642.356 112.186H642.773L653.353 86.3636H661.253V122H655.058V97.5174H654.727L644.879 121.896H640.25L630.401 97.4652H630.071V122H623.876V86.3636ZM672.859 122H665.968L678.514 86.3636H686.483L699.047 122H692.156L682.638 93.6719H682.36L672.859 122ZM673.085 108.027H691.878V113.213H673.085V108.027ZM733.026 86.3636V122H727.283L710.492 97.7262H710.196V122H703.741V86.3636H709.517L726.292 110.655H726.605V86.3636H733.026Z" fill="black"/>
<path d="M557.885 153.362H555.229C555.153 152.927 555.013 152.541 554.81 152.205C554.606 151.864 554.353 151.575 554.05 151.338C553.747 151.101 553.401 150.924 553.013 150.805C552.629 150.682 552.215 150.621 551.77 150.621C550.979 150.621 550.278 150.82 549.668 151.217C549.057 151.61 548.579 152.188 548.233 152.95C547.887 153.708 547.714 154.634 547.714 155.727C547.714 156.84 547.887 157.777 548.233 158.54C548.583 159.297 549.062 159.87 549.668 160.259C550.278 160.642 550.977 160.834 551.763 160.834C552.198 160.834 552.606 160.777 552.984 160.663C553.368 160.545 553.711 160.372 554.014 160.145C554.322 159.918 554.58 159.638 554.788 159.307C555.001 158.975 555.148 158.597 555.229 158.17L557.885 158.185C557.786 158.876 557.57 159.525 557.239 160.131C556.912 160.737 556.483 161.272 555.953 161.736C555.423 162.195 554.803 162.555 554.092 162.815C553.382 163.071 552.594 163.199 551.727 163.199C550.449 163.199 549.308 162.903 548.304 162.311C547.3 161.719 546.509 160.865 545.932 159.747C545.354 158.63 545.065 157.29 545.065 155.727C545.065 154.16 545.357 152.82 545.939 151.707C546.521 150.59 547.314 149.735 548.318 149.143C549.322 148.552 550.458 148.256 551.727 148.256C552.537 148.256 553.29 148.369 553.986 148.597C554.682 148.824 555.302 149.158 555.847 149.598C556.391 150.034 556.839 150.569 557.189 151.203C557.544 151.833 557.776 152.553 557.885 153.362ZM563.324 163.22C562.632 163.22 562.01 163.097 561.456 162.851C560.906 162.6 560.471 162.231 560.149 161.743C559.832 161.255 559.673 160.654 559.673 159.939C559.673 159.323 559.787 158.814 560.014 158.412C560.241 158.009 560.551 157.688 560.944 157.446C561.337 157.205 561.78 157.022 562.272 156.899C562.77 156.771 563.283 156.679 563.814 156.622C564.453 156.556 564.971 156.497 565.369 156.445C565.767 156.388 566.056 156.303 566.235 156.189C566.42 156.071 566.512 155.888 566.512 155.642V155.599C566.512 155.064 566.354 154.65 566.037 154.357C565.719 154.063 565.262 153.916 564.666 153.916C564.036 153.916 563.537 154.054 563.167 154.328C562.803 154.603 562.556 154.927 562.429 155.301L560.028 154.96C560.217 154.297 560.53 153.743 560.966 153.298C561.401 152.848 561.934 152.512 562.564 152.29C563.193 152.062 563.889 151.949 564.652 151.949C565.177 151.949 565.7 152.01 566.221 152.134C566.742 152.257 567.218 152.46 567.649 152.744C568.08 153.024 568.425 153.405 568.686 153.888C568.951 154.371 569.083 154.974 569.083 155.699V163H566.612V161.501H566.527C566.37 161.804 566.15 162.089 565.866 162.354C565.587 162.614 565.234 162.825 564.808 162.986C564.386 163.142 563.892 163.22 563.324 163.22ZM563.991 161.331C564.507 161.331 564.955 161.229 565.333 161.026C565.712 160.817 566.003 160.543 566.207 160.202C566.415 159.861 566.52 159.489 566.52 159.087V157.801C566.439 157.867 566.302 157.929 566.108 157.986C565.918 158.043 565.705 158.092 565.468 158.135C565.232 158.178 564.997 158.215 564.765 158.249C564.533 158.282 564.332 158.31 564.162 158.334C563.778 158.386 563.435 158.471 563.132 158.589C562.829 158.708 562.59 158.874 562.414 159.087C562.239 159.295 562.152 159.565 562.152 159.896C562.152 160.37 562.324 160.727 562.67 160.969C563.016 161.21 563.456 161.331 563.991 161.331ZM580.291 154.974L577.947 155.23C577.881 154.993 577.765 154.771 577.599 154.562C577.438 154.354 577.22 154.186 576.946 154.058C576.671 153.93 576.335 153.866 575.937 153.866C575.402 153.866 574.952 153.982 574.588 154.214C574.228 154.446 574.05 154.747 574.055 155.116C574.05 155.434 574.166 155.692 574.403 155.891C574.645 156.089 575.042 156.253 575.596 156.381L577.457 156.778C578.489 157.001 579.256 157.354 579.758 157.837C580.265 158.32 580.52 158.952 580.525 159.733C580.52 160.42 580.319 161.026 579.922 161.551C579.529 162.072 578.982 162.479 578.281 162.773C577.58 163.066 576.775 163.213 575.866 163.213C574.531 163.213 573.456 162.934 572.642 162.375C571.827 161.812 571.342 161.028 571.186 160.024L573.693 159.783C573.806 160.275 574.048 160.647 574.417 160.898C574.787 161.149 575.267 161.274 575.859 161.274C576.47 161.274 576.96 161.149 577.329 160.898C577.703 160.647 577.89 160.337 577.89 159.967C577.89 159.655 577.77 159.397 577.528 159.193C577.291 158.99 576.922 158.833 576.42 158.724L574.559 158.334C573.513 158.116 572.739 157.749 572.237 157.233C571.735 156.712 571.486 156.054 571.491 155.259C571.486 154.586 571.669 154.004 572.038 153.511C572.412 153.014 572.931 152.631 573.593 152.361C574.261 152.086 575.03 151.949 575.902 151.949C577.18 151.949 578.186 152.221 578.92 152.766C579.659 153.31 580.116 154.046 580.291 154.974ZM587.404 163.213C586.315 163.213 585.38 162.974 584.598 162.496C583.822 162.018 583.223 161.357 582.801 160.514C582.385 159.667 582.176 158.691 582.176 157.588C582.176 156.48 582.39 155.502 582.816 154.655C583.242 153.803 583.843 153.14 584.62 152.666C585.401 152.188 586.324 151.949 587.39 151.949C588.275 151.949 589.059 152.112 589.74 152.439C590.427 152.761 590.974 153.218 591.381 153.81C591.788 154.397 592.02 155.083 592.077 155.869H589.62C589.52 155.344 589.283 154.906 588.909 154.555C588.54 154.2 588.045 154.023 587.425 154.023C586.9 154.023 586.438 154.165 586.04 154.449C585.642 154.728 585.332 155.131 585.11 155.656C584.892 156.182 584.783 156.812 584.783 157.545C584.783 158.289 584.892 158.928 585.11 159.463C585.328 159.993 585.633 160.403 586.026 160.692C586.424 160.976 586.89 161.118 587.425 161.118C587.804 161.118 588.142 161.047 588.441 160.905C588.744 160.758 588.997 160.547 589.201 160.273C589.404 159.998 589.544 159.664 589.62 159.271H592.077C592.016 160.043 591.788 160.727 591.395 161.324C591.002 161.916 590.467 162.38 589.79 162.716C589.113 163.047 588.318 163.213 587.404 163.213ZM597.327 163.22C596.636 163.22 596.013 163.097 595.46 162.851C594.91 162.6 594.475 162.231 594.153 161.743C593.835 161.255 593.677 160.654 593.677 159.939C593.677 159.323 593.79 158.814 594.018 158.412C594.245 158.009 594.555 157.688 594.948 157.446C595.341 157.205 595.784 157.022 596.276 156.899C596.773 156.771 597.287 156.679 597.817 156.622C598.457 156.556 598.975 156.497 599.373 156.445C599.771 156.388 600.059 156.303 600.239 156.189C600.424 156.071 600.516 155.888 600.516 155.642V155.599C600.516 155.064 600.358 154.65 600.04 154.357C599.723 154.063 599.266 153.916 598.67 153.916C598.04 153.916 597.54 154.054 597.171 154.328C596.807 154.603 596.56 154.927 596.433 155.301L594.032 154.96C594.221 154.297 594.534 153.743 594.969 153.298C595.405 152.848 595.938 152.512 596.567 152.29C597.197 152.062 597.893 151.949 598.656 151.949C599.181 151.949 599.704 152.01 600.225 152.134C600.746 152.257 601.222 152.46 601.653 152.744C602.084 153.024 602.429 153.405 602.69 153.888C602.955 154.371 603.087 154.974 603.087 155.699V163H600.616V161.501H600.531C600.374 161.804 600.154 162.089 599.87 162.354C599.591 162.614 599.238 162.825 598.812 162.986C598.39 163.142 597.896 163.22 597.327 163.22ZM597.995 161.331C598.511 161.331 598.959 161.229 599.337 161.026C599.716 160.817 600.007 160.543 600.211 160.202C600.419 159.861 600.523 159.489 600.523 159.087V157.801C600.443 157.867 600.306 157.929 600.112 157.986C599.922 158.043 599.709 158.092 599.472 158.135C599.236 158.178 599.001 158.215 598.769 158.249C598.537 158.282 598.336 158.31 598.165 158.334C597.782 158.386 597.439 158.471 597.136 158.589C596.833 158.708 596.594 158.874 596.418 159.087C596.243 159.295 596.156 159.565 596.156 159.896C596.156 160.37 596.328 160.727 596.674 160.969C597.02 161.21 597.46 161.331 597.995 161.331ZM609.721 163.192C608.864 163.192 608.097 162.972 607.42 162.531C606.743 162.091 606.208 161.452 605.815 160.614C605.422 159.776 605.225 158.758 605.225 157.56C605.225 156.348 605.424 155.325 605.822 154.491C606.224 153.653 606.766 153.021 607.448 152.595C608.13 152.164 608.89 151.949 609.728 151.949C610.367 151.949 610.893 152.058 611.305 152.276C611.717 152.489 612.043 152.747 612.285 153.05C612.526 153.348 612.713 153.63 612.846 153.895H612.952V148.455H615.531V163H613.002V161.281H612.846C612.713 161.546 612.522 161.828 612.271 162.126C612.02 162.42 611.688 162.671 611.276 162.879C610.864 163.088 610.346 163.192 609.721 163.192ZM610.438 161.082C610.983 161.082 611.447 160.936 611.83 160.642C612.214 160.344 612.505 159.929 612.704 159.399C612.903 158.869 613.002 158.251 613.002 157.545C613.002 156.84 612.903 156.227 612.704 155.706C612.51 155.185 612.221 154.78 611.837 154.491C611.459 154.203 610.992 154.058 610.438 154.058C609.865 154.058 609.387 154.207 609.004 154.506C608.62 154.804 608.331 155.216 608.137 155.741C607.943 156.267 607.846 156.868 607.846 157.545C607.846 158.227 607.943 158.836 608.137 159.371C608.336 159.901 608.627 160.32 609.011 160.628C609.399 160.931 609.875 161.082 610.438 161.082ZM618.27 163V152.091H620.841V163H618.27ZM619.563 150.543C619.156 150.543 618.805 150.408 618.512 150.138C618.218 149.863 618.071 149.534 618.071 149.151C618.071 148.762 618.218 148.433 618.512 148.163C618.805 147.889 619.156 147.751 619.563 147.751C619.975 147.751 620.325 147.889 620.614 148.163C620.908 148.433 621.054 148.762 621.054 149.151C621.054 149.534 620.908 149.863 620.614 150.138C620.325 150.408 619.975 150.543 619.563 150.543ZM626.056 156.608V163H623.485V152.091H625.942V153.945H626.07C626.321 153.334 626.721 152.848 627.271 152.489C627.825 152.129 628.509 151.949 629.323 151.949C630.076 151.949 630.732 152.11 631.29 152.432C631.854 152.754 632.29 153.22 632.597 153.831C632.91 154.442 633.064 155.183 633.059 156.054V163H630.488V156.452C630.488 155.723 630.299 155.152 629.92 154.74C629.546 154.328 629.027 154.122 628.364 154.122C627.915 154.122 627.514 154.222 627.164 154.42C626.818 154.615 626.546 154.896 626.347 155.266C626.153 155.635 626.056 156.082 626.056 156.608ZM640.417 167.318C639.494 167.318 638.701 167.193 638.038 166.942C637.375 166.696 636.842 166.364 636.44 165.947C636.037 165.531 635.758 165.069 635.602 164.562L637.917 164.001C638.021 164.214 638.173 164.425 638.371 164.634C638.57 164.847 638.838 165.022 639.174 165.159C639.515 165.301 639.943 165.372 640.46 165.372C641.189 165.372 641.792 165.195 642.271 164.839C642.749 164.489 642.988 163.911 642.988 163.107V161.04H642.86C642.728 161.305 642.533 161.577 642.278 161.857C642.027 162.136 641.693 162.37 641.276 162.56C640.864 162.749 640.346 162.844 639.721 162.844C638.883 162.844 638.123 162.647 637.441 162.254C636.764 161.857 636.224 161.265 635.822 160.479C635.424 159.688 635.225 158.698 635.225 157.51C635.225 156.312 635.424 155.301 635.822 154.477C636.224 153.649 636.766 153.021 637.448 152.595C638.13 152.164 638.89 151.949 639.728 151.949C640.367 151.949 640.893 152.058 641.305 152.276C641.721 152.489 642.053 152.747 642.299 153.05C642.545 153.348 642.732 153.63 642.86 153.895H643.002V152.091H645.538V163.178C645.538 164.11 645.315 164.882 644.87 165.493C644.425 166.104 643.817 166.561 643.045 166.864C642.273 167.167 641.397 167.318 640.417 167.318ZM640.438 160.827C640.983 160.827 641.447 160.694 641.83 160.429C642.214 160.164 642.505 159.783 642.704 159.286C642.903 158.788 643.002 158.192 643.002 157.496C643.002 156.809 642.903 156.208 642.704 155.692C642.51 155.176 642.221 154.776 641.837 154.491C641.459 154.203 640.992 154.058 640.438 154.058C639.865 154.058 639.387 154.207 639.004 154.506C638.62 154.804 638.331 155.214 638.137 155.734C637.943 156.25 637.846 156.838 637.846 157.496C637.846 158.163 637.943 158.748 638.137 159.25C638.336 159.747 638.627 160.135 639.011 160.415C639.399 160.689 639.875 160.827 640.438 160.827ZM652.608 150.663V148.455H664.213V150.663H659.717V163H657.104V150.663H652.608ZM669.584 163.213C668.49 163.213 667.546 162.986 666.75 162.531C665.96 162.072 665.351 161.423 664.925 160.585C664.499 159.742 664.286 158.75 664.286 157.609C664.286 156.487 664.499 155.502 664.925 154.655C665.356 153.803 665.957 153.14 666.729 152.666C667.501 152.188 668.408 151.949 669.449 151.949C670.122 151.949 670.756 152.058 671.353 152.276C671.954 152.489 672.484 152.82 672.944 153.27C673.408 153.72 673.772 154.293 674.037 154.989C674.302 155.68 674.435 156.504 674.435 157.46V158.249H665.493V156.516H671.971C671.966 156.023 671.859 155.585 671.651 155.202C671.443 154.813 671.151 154.508 670.777 154.286C670.408 154.063 669.977 153.952 669.485 153.952C668.959 153.952 668.498 154.08 668.1 154.335C667.702 154.586 667.392 154.918 667.169 155.33C666.952 155.737 666.84 156.184 666.836 156.672V158.185C666.836 158.819 666.952 159.364 667.184 159.818C667.416 160.268 667.74 160.614 668.157 160.855C668.573 161.092 669.061 161.21 669.62 161.21C669.994 161.21 670.332 161.158 670.635 161.054C670.938 160.945 671.201 160.786 671.424 160.578C671.646 160.37 671.814 160.112 671.928 159.804L674.328 160.074C674.177 160.708 673.888 161.262 673.462 161.736C673.041 162.205 672.501 162.569 671.843 162.83C671.185 163.085 670.432 163.213 669.584 163.213ZM678.478 152.091L680.68 156.118L682.917 152.091H685.637L682.349 157.545L685.694 163H682.988L680.68 159.072L678.393 163H675.665L678.989 157.545L675.751 152.091H678.478ZM693.073 152.091V154.08H686.802V152.091H693.073ZM688.35 149.477H690.921V159.719C690.921 160.064 690.973 160.33 691.077 160.514C691.186 160.694 691.328 160.817 691.504 160.884C691.679 160.95 691.873 160.983 692.086 160.983C692.247 160.983 692.394 160.971 692.526 160.947C692.664 160.924 692.768 160.902 692.839 160.884L693.272 162.893C693.135 162.941 692.938 162.993 692.683 163.05C692.432 163.107 692.124 163.14 691.759 163.149C691.115 163.168 690.535 163.071 690.019 162.858C689.503 162.64 689.094 162.304 688.79 161.849C688.492 161.395 688.345 160.827 688.35 160.145V149.477Z" fill="black"/>
<rect x="-198.75" y="504.25" width="553.5" height="255.5" rx="26.75" fill="white" stroke="black" stroke-width="2.5"/>
<rect x="1101.25" y="-127.75" width="553.5" height="255.5" rx="26.75" fill="white" stroke="black" stroke-width="2.5"/>
<rect x="254.25" y="-199.75" width="1672.5" height="255.5" rx="26.75" fill="white" stroke="black" stroke-width="2.5"/>
</g>
<defs>
<clipPath id="clip0_9_8">
<rect width="1240" height="743" fill="white"/>
</clipPath>
</defs>
</svg>
