<svg width="1240" height="743" viewBox="0 0 1240 743" fill="none" xmlns="http://www.w3.org/2000/svg">
<g clip-path="url(#clip0_9_14)">
<rect width="1240" height="743" fill="white"/>
<path d="M519.882 96.1602C519.719 94.6405 519.035 93.4573 517.828 92.6104C516.634 91.7636 515.079 91.3402 513.165 91.3402C511.819 91.3402 510.665 91.5432 509.702 91.9492C508.74 92.3552 508.003 92.9062 507.493 93.6023C506.982 94.2983 506.721 95.0929 506.71 95.9862C506.71 96.7286 506.878 97.3724 507.214 97.9176C507.562 98.4628 508.032 98.9268 508.624 99.3097C509.215 99.6809 509.871 99.9941 510.59 100.249C511.309 100.504 512.034 100.719 512.765 100.893L516.106 101.728C517.451 102.042 518.745 102.465 519.986 102.999C521.239 103.532 522.358 104.205 523.344 105.017C524.342 105.829 525.131 106.809 525.711 107.958C526.291 109.106 526.581 110.452 526.581 111.995C526.581 114.083 526.047 115.921 524.98 117.511C523.913 119.088 522.37 120.324 520.352 121.217C518.345 122.099 515.914 122.539 513.061 122.539C510.288 122.539 507.881 122.11 505.839 121.252C503.809 120.393 502.22 119.141 501.072 117.493C499.935 115.846 499.32 113.839 499.227 111.473H505.578C505.671 112.714 506.054 113.746 506.727 114.57C507.4 115.394 508.276 116.008 509.354 116.414C510.445 116.82 511.663 117.023 513.009 117.023C514.412 117.023 515.642 116.815 516.697 116.397C517.765 115.968 518.6 115.376 519.203 114.622C519.806 113.857 520.114 112.963 520.125 111.942C520.114 111.014 519.841 110.249 519.308 109.646C518.774 109.031 518.026 108.52 517.063 108.114C516.112 107.697 514.998 107.326 513.722 107.001L509.668 105.957C506.733 105.203 504.413 104.06 502.707 102.529C501.014 100.986 500.167 98.9384 500.167 96.3864C500.167 94.2867 500.735 92.448 501.872 90.8704C503.021 89.2927 504.581 88.0689 506.553 87.1989C508.525 86.3172 510.758 85.8764 513.252 85.8764C515.781 85.8764 517.997 86.3172 519.899 87.1989C521.813 88.0689 523.315 89.2811 524.406 90.8356C525.496 92.3784 526.059 94.1533 526.094 96.1602H519.882ZM530.77 91.7752V86.3636H559.203V91.7752H548.188V122H541.785V91.7752H530.77ZM564.954 122H558.063L570.609 86.3636H578.578L591.141 122H584.251L574.733 93.6719H574.454L564.954 122ZM565.18 108.027H583.972V113.213H565.18V108.027ZM589.963 91.7752V86.3636H618.395V91.7752H607.381V122H600.977V91.7752H589.963ZM623.876 86.3636H631.776L642.356 112.186H642.773L653.353 86.3636H661.253V122H655.058V97.5174H654.727L644.879 121.896H640.25L630.401 97.4652H630.071V122H623.876V86.3636ZM672.859 122H665.968L678.514 86.3636H686.483L699.047 122H692.156L682.638 93.6719H682.36L672.859 122ZM673.085 108.027H691.878V113.213H673.085V108.027ZM733.026 86.3636V122H727.283L710.492 97.7262H710.196V122H703.741V86.3636H709.517L726.292 110.655H726.605V86.3636H733.026Z" fill="black"/>
<path d="M574.435 165V150.455H577.07V162.791H583.476V165H574.435ZM590.408 165.213C589.342 165.213 588.419 164.979 587.638 164.51C586.857 164.041 586.25 163.385 585.82 162.543C585.393 161.7 585.18 160.715 585.18 159.588C585.18 158.461 585.393 157.474 585.82 156.626C586.25 155.779 586.857 155.121 587.638 154.652C588.419 154.183 589.342 153.949 590.408 153.949C591.473 153.949 592.396 154.183 593.178 154.652C593.959 155.121 594.563 155.779 594.989 156.626C595.42 157.474 595.635 158.461 595.635 159.588C595.635 160.715 595.42 161.7 594.989 162.543C594.563 163.385 593.959 164.041 593.178 164.51C592.396 164.979 591.473 165.213 590.408 165.213ZM590.422 163.153C591 163.153 591.482 162.995 591.871 162.678C592.259 162.356 592.548 161.925 592.737 161.385C592.931 160.845 593.028 160.244 593.028 159.581C593.028 158.913 592.931 158.31 592.737 157.77C592.548 157.225 592.259 156.792 591.871 156.47C591.482 156.148 591 155.987 590.422 155.987C589.83 155.987 589.338 156.148 588.945 156.47C588.556 156.792 588.265 157.225 588.071 157.77C587.882 158.31 587.787 158.913 587.787 159.581C587.787 160.244 587.882 160.845 588.071 161.385C588.265 161.925 588.556 162.356 588.945 162.678C589.338 162.995 589.83 163.153 590.422 163.153ZM600.956 165.22C600.265 165.22 599.642 165.097 599.088 164.851C598.539 164.6 598.104 164.231 597.782 163.743C597.464 163.255 597.306 162.654 597.306 161.939C597.306 161.323 597.419 160.814 597.647 160.412C597.874 160.009 598.184 159.688 598.577 159.446C598.97 159.205 599.413 159.022 599.905 158.899C600.402 158.771 600.916 158.679 601.446 158.622C602.086 158.556 602.604 158.497 603.002 158.445C603.4 158.388 603.688 158.303 603.868 158.189C604.053 158.071 604.145 157.888 604.145 157.642V157.599C604.145 157.064 603.987 156.65 603.669 156.357C603.352 156.063 602.895 155.916 602.299 155.916C601.669 155.916 601.169 156.054 600.8 156.328C600.435 156.603 600.189 156.927 600.061 157.301L597.661 156.96C597.85 156.297 598.163 155.743 598.598 155.298C599.034 154.848 599.567 154.512 600.196 154.29C600.826 154.062 601.522 153.949 602.284 153.949C602.81 153.949 603.333 154.01 603.854 154.134C604.375 154.257 604.851 154.46 605.282 154.744C605.712 155.024 606.058 155.405 606.319 155.888C606.584 156.371 606.716 156.974 606.716 157.699V165H604.245V163.501H604.159C604.003 163.804 603.783 164.089 603.499 164.354C603.22 164.614 602.867 164.825 602.441 164.986C602.019 165.142 601.525 165.22 600.956 165.22ZM601.624 163.331C602.14 163.331 602.587 163.229 602.966 163.026C603.345 162.817 603.636 162.543 603.84 162.202C604.048 161.861 604.152 161.489 604.152 161.087V159.801C604.072 159.867 603.935 159.929 603.74 159.986C603.551 160.043 603.338 160.092 603.101 160.135C602.864 160.178 602.63 160.215 602.398 160.249C602.166 160.282 601.965 160.31 601.794 160.334C601.411 160.386 601.068 160.471 600.765 160.589C600.462 160.708 600.222 160.874 600.047 161.087C599.872 161.295 599.784 161.565 599.784 161.896C599.784 162.37 599.957 162.727 600.303 162.969C600.649 163.21 601.089 163.331 601.624 163.331ZM613.35 165.192C612.493 165.192 611.726 164.972 611.049 164.531C610.372 164.091 609.837 163.452 609.444 162.614C609.051 161.776 608.854 160.758 608.854 159.56C608.854 158.348 609.053 157.325 609.451 156.491C609.853 155.653 610.395 155.021 611.077 154.595C611.759 154.164 612.519 153.949 613.357 153.949C613.996 153.949 614.522 154.058 614.934 154.276C615.346 154.489 615.672 154.747 615.914 155.05C616.155 155.348 616.342 155.63 616.475 155.895H616.581V150.455H619.159V165H616.631V163.281H616.475C616.342 163.546 616.15 163.828 615.9 164.126C615.649 164.42 615.317 164.671 614.905 164.879C614.493 165.088 613.975 165.192 613.35 165.192ZM614.067 163.082C614.612 163.082 615.076 162.936 615.459 162.642C615.843 162.344 616.134 161.929 616.333 161.399C616.532 160.869 616.631 160.251 616.631 159.545C616.631 158.84 616.532 158.227 616.333 157.706C616.139 157.185 615.85 156.78 615.466 156.491C615.087 156.203 614.621 156.058 614.067 156.058C613.494 156.058 613.016 156.207 612.632 156.506C612.249 156.804 611.96 157.216 611.766 157.741C611.572 158.267 611.475 158.868 611.475 159.545C611.475 160.227 611.572 160.836 611.766 161.371C611.965 161.901 612.256 162.32 612.64 162.628C613.028 162.931 613.504 163.082 614.067 163.082ZM621.899 165V154.091H624.47V165H621.899ZM623.192 152.543C622.785 152.543 622.434 152.408 622.141 152.138C621.847 151.863 621.7 151.534 621.7 151.151C621.7 150.762 621.847 150.433 622.141 150.163C622.434 149.889 622.785 149.751 623.192 149.751C623.604 149.751 623.954 149.889 624.243 150.163C624.536 150.433 624.683 150.762 624.683 151.151C624.683 151.534 624.536 151.863 624.243 152.138C623.954 152.408 623.604 152.543 623.192 152.543ZM629.685 158.608V165H627.114V154.091H629.571V155.945H629.699C629.95 155.334 630.35 154.848 630.9 154.489C631.453 154.129 632.138 153.949 632.952 153.949C633.705 153.949 634.361 154.11 634.919 154.432C635.483 154.754 635.918 155.22 636.226 155.831C636.539 156.442 636.693 157.183 636.688 158.054V165H634.117V158.452C634.117 157.723 633.927 157.152 633.549 156.74C633.175 156.328 632.656 156.122 631.993 156.122C631.543 156.122 631.143 156.222 630.793 156.42C630.447 156.615 630.175 156.896 629.976 157.266C629.782 157.635 629.685 158.082 629.685 158.608ZM644.046 169.318C643.123 169.318 642.329 169.193 641.667 168.942C641.004 168.696 640.471 168.364 640.069 167.947C639.666 167.531 639.387 167.069 639.23 166.562L641.546 166.001C641.65 166.214 641.801 166.425 642 166.634C642.199 166.847 642.467 167.022 642.803 167.159C643.144 167.301 643.572 167.372 644.088 167.372C644.818 167.372 645.421 167.195 645.9 166.839C646.378 166.489 646.617 165.911 646.617 165.107V163.04H646.489C646.356 163.305 646.162 163.577 645.907 163.857C645.656 164.136 645.322 164.37 644.905 164.56C644.493 164.749 643.975 164.844 643.35 164.844C642.512 164.844 641.752 164.647 641.07 164.254C640.393 163.857 639.853 163.265 639.451 162.479C639.053 161.688 638.854 160.698 638.854 159.51C638.854 158.312 639.053 157.301 639.451 156.477C639.853 155.649 640.395 155.021 641.077 154.595C641.759 154.164 642.519 153.949 643.357 153.949C643.996 153.949 644.522 154.058 644.934 154.276C645.35 154.489 645.682 154.747 645.928 155.05C646.174 155.348 646.361 155.63 646.489 155.895H646.631V154.091H649.167V165.178C649.167 166.11 648.944 166.882 648.499 167.493C648.054 168.104 647.445 168.561 646.674 168.864C645.902 169.167 645.026 169.318 644.046 169.318ZM644.067 162.827C644.612 162.827 645.076 162.694 645.459 162.429C645.843 162.164 646.134 161.783 646.333 161.286C646.532 160.788 646.631 160.192 646.631 159.496C646.631 158.809 646.532 158.208 646.333 157.692C646.139 157.176 645.85 156.776 645.466 156.491C645.087 156.203 644.621 156.058 644.067 156.058C643.494 156.058 643.016 156.207 642.632 156.506C642.249 156.804 641.96 157.214 641.766 157.734C641.572 158.25 641.475 158.838 641.475 159.496C641.475 160.163 641.572 160.748 641.766 161.25C641.965 161.747 642.256 162.135 642.64 162.415C643.028 162.689 643.504 162.827 644.067 162.827ZM653.385 165.156C652.954 165.156 652.585 165.005 652.277 164.702C651.97 164.399 651.818 164.029 651.823 163.594C651.818 163.168 651.97 162.803 652.277 162.5C652.585 162.197 652.954 162.045 653.385 162.045C653.802 162.045 654.164 162.197 654.472 162.5C654.784 162.803 654.943 163.168 654.948 163.594C654.943 163.883 654.867 164.145 654.721 164.382C654.578 164.619 654.389 164.808 654.152 164.95C653.92 165.088 653.665 165.156 653.385 165.156ZM659.186 165.156C658.755 165.156 658.386 165.005 658.078 164.702C657.77 164.399 657.619 164.029 657.624 163.594C657.619 163.168 657.77 162.803 658.078 162.5C658.386 162.197 658.755 162.045 659.186 162.045C659.603 162.045 659.965 162.197 660.273 162.5C660.585 162.803 660.744 163.168 660.749 163.594C660.744 163.883 660.668 164.145 660.521 164.382C660.379 164.619 660.19 164.808 659.953 164.95C659.721 165.088 659.465 165.156 659.186 165.156Z" fill="black"/>
<rect x="-198.75" y="504.25" width="553.5" height="255.5" rx="26.75" fill="white" stroke="black" stroke-width="2.5"/>
<rect x="1101.25" y="-127.75" width="553.5" height="255.5" rx="26.75" fill="white" stroke="black" stroke-width="2.5"/>
<rect x="254.25" y="-199.75" width="1672.5" height="255.5" rx="26.75" fill="white" stroke="black" stroke-width="2.5"/>
</g>
<defs>
<clipPath id="clip0_9_14">
<rect width="1240" height="743" fill="white"/>
</clipPath>
</defs>
</svg>
