<svg width="1240" height="743" viewBox="0 0 1240 743" fill="none" xmlns="http://www.w3.org/2000/svg">
<g clip-path="url(#clip0_9_20)">
<rect width="1240" height="743" fill="white"/>
<path d="M519.882 96.1602C519.719 94.6405 519.035 93.4573 517.828 92.6104C516.634 91.7636 515.079 91.3402 513.165 91.3402C511.819 91.3402 510.665 91.5432 509.702 91.9492C508.74 92.3552 508.003 92.9062 507.493 93.6023C506.982 94.2983 506.721 95.0929 506.71 95.9862C506.71 96.7286 506.878 97.3724 507.214 97.9176C507.562 98.4628 508.032 98.9268 508.624 99.3097C509.215 99.6809 509.871 99.9941 510.59 100.249C511.309 100.504 512.034 100.719 512.765 100.893L516.106 101.728C517.451 102.042 518.745 102.465 519.986 102.999C521.239 103.532 522.358 104.205 523.344 105.017C524.342 105.829 525.131 106.809 525.711 107.958C526.291 109.106 526.581 110.452 526.581 111.995C526.581 114.083 526.047 115.921 524.98 117.511C523.913 119.088 522.37 120.324 520.352 121.217C518.345 122.099 515.914 122.539 513.061 122.539C510.288 122.539 507.881 122.11 505.839 121.252C503.809 120.393 502.22 119.141 501.072 117.493C499.935 115.846 499.32 113.839 499.227 111.473H505.578C505.671 112.714 506.054 113.746 506.727 114.57C507.4 115.394 508.276 116.008 509.354 116.414C510.445 116.82 511.663 117.023 513.009 117.023C514.412 117.023 515.642 116.815 516.697 116.397C517.765 115.968 518.6 115.376 519.203 114.622C519.806 113.857 520.114 112.963 520.125 111.942C520.114 111.014 519.841 110.249 519.308 109.646C518.774 109.031 518.026 108.52 517.063 108.114C516.112 107.697 514.998 107.326 513.722 107.001L509.668 105.957C506.733 105.203 504.413 104.06 502.707 102.529C501.014 100.986 500.167 98.9384 500.167 96.3864C500.167 94.2867 500.735 92.448 501.872 90.8704C503.021 89.2927 504.581 88.0689 506.553 87.1989C508.525 86.3172 510.758 85.8764 513.252 85.8764C515.781 85.8764 517.997 86.3172 519.899 87.1989C521.813 88.0689 523.315 89.2811 524.406 90.8356C525.496 92.3784 526.059 94.1533 526.094 96.1602H519.882ZM530.77 91.7752V86.3636H559.203V91.7752H548.188V122H541.785V91.7752H530.77ZM564.954 122H558.063L570.609 86.3636H578.578L591.141 122H584.251L574.733 93.6719H574.454L564.954 122ZM565.18 108.027H583.972V113.213H565.18V108.027ZM589.963 91.7752V86.3636H618.395V91.7752H607.381V122H600.977V91.7752H589.963ZM623.876 86.3636H631.776L642.356 112.186H642.773L653.353 86.3636H661.253V122H655.058V97.5174H654.727L644.879 121.896H640.25L630.401 97.4652H630.071V122H623.876V86.3636ZM672.859 122H665.968L678.514 86.3636H686.483L699.047 122H692.156L682.638 93.6719H682.36L672.859 122ZM673.085 108.027H691.878V113.213H673.085V108.027ZM733.026 86.3636V122H727.283L710.492 97.7262H710.196V122H703.741V86.3636H709.517L726.292 110.655H726.605V86.3636H733.026Z" fill="black"/>
<path d="M551.435 163V148.455H554.07V160.791H560.476V163H551.435ZM567.408 163.213C566.342 163.213 565.419 162.979 564.638 162.51C563.857 162.041 563.25 161.385 562.82 160.543C562.393 159.7 562.18 158.715 562.18 157.588C562.18 156.461 562.393 155.474 562.82 154.626C563.25 153.779 563.857 153.121 564.638 152.652C565.419 152.183 566.342 151.949 567.408 151.949C568.473 151.949 569.396 152.183 570.178 152.652C570.959 153.121 571.563 153.779 571.989 154.626C572.42 155.474 572.635 156.461 572.635 157.588C572.635 158.715 572.42 159.7 571.989 160.543C571.563 161.385 570.959 162.041 570.178 162.51C569.396 162.979 568.473 163.213 567.408 163.213ZM567.422 161.153C568 161.153 568.482 160.995 568.871 160.678C569.259 160.356 569.548 159.925 569.737 159.385C569.931 158.845 570.028 158.244 570.028 157.581C570.028 156.913 569.931 156.31 569.737 155.77C569.548 155.225 569.259 154.792 568.871 154.47C568.482 154.148 568 153.987 567.422 153.987C566.83 153.987 566.338 154.148 565.945 154.47C565.556 154.792 565.265 155.225 565.071 155.77C564.882 156.31 564.787 156.913 564.787 157.581C564.787 158.244 564.882 158.845 565.071 159.385C565.265 159.925 565.556 160.356 565.945 160.678C566.338 160.995 566.83 161.153 567.422 161.153ZM577.956 163.22C577.265 163.22 576.642 163.097 576.088 162.851C575.539 162.6 575.104 162.231 574.782 161.743C574.464 161.255 574.306 160.654 574.306 159.939C574.306 159.323 574.419 158.814 574.647 158.412C574.874 158.009 575.184 157.688 575.577 157.446C575.97 157.205 576.413 157.022 576.905 156.899C577.402 156.771 577.916 156.679 578.446 156.622C579.086 156.556 579.604 156.497 580.002 156.445C580.4 156.388 580.688 156.303 580.868 156.189C581.053 156.071 581.145 155.888 581.145 155.642V155.599C581.145 155.064 580.987 154.65 580.669 154.357C580.352 154.063 579.895 153.916 579.299 153.916C578.669 153.916 578.169 154.054 577.8 154.328C577.435 154.603 577.189 154.927 577.061 155.301L574.661 154.96C574.85 154.297 575.163 153.743 575.598 153.298C576.034 152.848 576.567 152.512 577.196 152.29C577.826 152.062 578.522 151.949 579.284 151.949C579.81 151.949 580.333 152.01 580.854 152.134C581.375 152.257 581.851 152.46 582.282 152.744C582.712 153.024 583.058 153.405 583.319 153.888C583.584 154.371 583.716 154.974 583.716 155.699V163H581.245V161.501H581.159C581.003 161.804 580.783 162.089 580.499 162.354C580.22 162.614 579.867 162.825 579.441 162.986C579.019 163.142 578.525 163.22 577.956 163.22ZM578.624 161.331C579.14 161.331 579.587 161.229 579.966 161.026C580.345 160.817 580.636 160.543 580.84 160.202C581.048 159.861 581.152 159.489 581.152 159.087V157.801C581.072 157.867 580.935 157.929 580.74 157.986C580.551 158.043 580.338 158.092 580.101 158.135C579.864 158.178 579.63 158.215 579.398 158.249C579.166 158.282 578.965 158.31 578.794 158.334C578.411 158.386 578.068 158.471 577.765 158.589C577.462 158.708 577.222 158.874 577.047 159.087C576.872 159.295 576.784 159.565 576.784 159.896C576.784 160.37 576.957 160.727 577.303 160.969C577.649 161.21 578.089 161.331 578.624 161.331ZM590.35 163.192C589.493 163.192 588.726 162.972 588.049 162.531C587.372 162.091 586.837 161.452 586.444 160.614C586.051 159.776 585.854 158.758 585.854 157.56C585.854 156.348 586.053 155.325 586.451 154.491C586.853 153.653 587.395 153.021 588.077 152.595C588.759 152.164 589.519 151.949 590.357 151.949C590.996 151.949 591.522 152.058 591.934 152.276C592.346 152.489 592.672 152.747 592.914 153.05C593.155 153.348 593.342 153.63 593.475 153.895H593.581V148.455H596.159V163H593.631V161.281H593.475C593.342 161.546 593.15 161.828 592.9 162.126C592.649 162.42 592.317 162.671 591.905 162.879C591.493 163.088 590.975 163.192 590.35 163.192ZM591.067 161.082C591.612 161.082 592.076 160.936 592.459 160.642C592.843 160.344 593.134 159.929 593.333 159.399C593.532 158.869 593.631 158.251 593.631 157.545C593.631 156.84 593.532 156.227 593.333 155.706C593.139 155.185 592.85 154.78 592.466 154.491C592.087 154.203 591.621 154.058 591.067 154.058C590.494 154.058 590.016 154.207 589.632 154.506C589.249 154.804 588.96 155.216 588.766 155.741C588.572 156.267 588.475 156.868 588.475 157.545C588.475 158.227 588.572 158.836 588.766 159.371C588.965 159.901 589.256 160.32 589.64 160.628C590.028 160.931 590.504 161.082 591.067 161.082ZM598.899 163V152.091H601.47V163H598.899ZM600.192 150.543C599.785 150.543 599.434 150.408 599.141 150.138C598.847 149.863 598.7 149.534 598.7 149.151C598.7 148.762 598.847 148.433 599.141 148.163C599.434 147.889 599.785 147.751 600.192 147.751C600.604 147.751 600.954 147.889 601.243 148.163C601.536 148.433 601.683 148.762 601.683 149.151C601.683 149.534 601.536 149.863 601.243 150.138C600.954 150.408 600.604 150.543 600.192 150.543ZM606.685 156.608V163H604.114V152.091H606.571V153.945H606.699C606.95 153.334 607.35 152.848 607.9 152.489C608.453 152.129 609.138 151.949 609.952 151.949C610.705 151.949 611.361 152.11 611.919 152.432C612.483 152.754 612.918 153.22 613.226 153.831C613.539 154.442 613.693 155.183 613.688 156.054V163H611.117V156.452C611.117 155.723 610.927 155.152 610.549 154.74C610.175 154.328 609.656 154.122 608.993 154.122C608.543 154.122 608.143 154.222 607.793 154.42C607.447 154.615 607.175 154.896 606.976 155.266C606.782 155.635 606.685 156.082 606.685 156.608ZM621.046 167.318C620.123 167.318 619.329 167.193 618.667 166.942C618.004 166.696 617.471 166.364 617.069 165.947C616.666 165.531 616.387 165.069 616.23 164.562L618.546 164.001C618.65 164.214 618.801 164.425 619 164.634C619.199 164.847 619.467 165.022 619.803 165.159C620.144 165.301 620.572 165.372 621.088 165.372C621.818 165.372 622.421 165.195 622.9 164.839C623.378 164.489 623.617 163.911 623.617 163.107V161.04H623.489C623.356 161.305 623.162 161.577 622.907 161.857C622.656 162.136 622.322 162.37 621.905 162.56C621.493 162.749 620.975 162.844 620.35 162.844C619.512 162.844 618.752 162.647 618.07 162.254C617.393 161.857 616.853 161.265 616.451 160.479C616.053 159.688 615.854 158.698 615.854 157.51C615.854 156.312 616.053 155.301 616.451 154.477C616.853 153.649 617.395 153.021 618.077 152.595C618.759 152.164 619.519 151.949 620.357 151.949C620.996 151.949 621.522 152.058 621.934 152.276C622.35 152.489 622.682 152.747 622.928 153.05C623.174 153.348 623.361 153.63 623.489 153.895H623.631V152.091H626.167V163.178C626.167 164.11 625.944 164.882 625.499 165.493C625.054 166.104 624.445 166.561 623.674 166.864C622.902 167.167 622.026 167.318 621.046 167.318ZM621.067 160.827C621.612 160.827 622.076 160.694 622.459 160.429C622.843 160.164 623.134 159.783 623.333 159.286C623.532 158.788 623.631 158.192 623.631 157.496C623.631 156.809 623.532 156.208 623.333 155.692C623.139 155.176 622.85 154.776 622.466 154.491C622.087 154.203 621.621 154.058 621.067 154.058C620.494 154.058 620.016 154.207 619.632 154.506C619.249 154.804 618.96 155.214 618.766 155.734C618.572 156.25 618.475 156.838 618.475 157.496C618.475 158.163 618.572 158.748 618.766 159.25C618.965 159.747 619.256 160.135 619.64 160.415C620.028 160.689 620.504 160.827 621.067 160.827ZM633.237 150.663V148.455H644.842V150.663H640.346V163H637.733V150.663H633.237ZM650.213 163.213C649.119 163.213 648.175 162.986 647.379 162.531C646.589 162.072 645.98 161.423 645.554 160.585C645.128 159.742 644.915 158.75 644.915 157.609C644.915 156.487 645.128 155.502 645.554 154.655C645.985 153.803 646.586 153.14 647.358 152.666C648.13 152.188 649.036 151.949 650.078 151.949C650.75 151.949 651.385 152.058 651.982 152.276C652.583 152.489 653.113 152.82 653.572 153.27C654.036 153.72 654.401 154.293 654.666 154.989C654.931 155.68 655.064 156.504 655.064 157.46V158.249H646.122V156.516H652.599C652.595 156.023 652.488 155.585 652.28 155.202C652.071 154.813 651.78 154.508 651.406 154.286C651.037 154.063 650.606 153.952 650.114 153.952C649.588 153.952 649.126 154.08 648.729 154.335C648.331 154.586 648.021 154.918 647.798 155.33C647.58 155.737 647.469 156.184 647.464 156.672V158.185C647.464 158.819 647.58 159.364 647.812 159.818C648.045 160.268 648.369 160.614 648.786 160.855C649.202 161.092 649.69 161.21 650.249 161.21C650.623 161.21 650.961 161.158 651.264 161.054C651.567 160.945 651.83 160.786 652.053 160.578C652.275 160.37 652.443 160.112 652.557 159.804L654.957 160.074C654.806 160.708 654.517 161.262 654.091 161.736C653.67 162.205 653.13 162.569 652.472 162.83C651.813 163.085 651.061 163.213 650.213 163.213ZM659.107 152.091L661.309 156.118L663.546 152.091H666.266L662.978 157.545L666.323 163H663.617L661.309 159.072L659.022 163H656.294L659.618 157.545L656.38 152.091H659.107ZM673.702 152.091V154.08H667.431V152.091H673.702ZM668.979 149.477H671.55V159.719C671.55 160.064 671.602 160.33 671.706 160.514C671.815 160.694 671.957 160.817 672.132 160.884C672.308 160.95 672.502 160.983 672.715 160.983C672.876 160.983 673.023 160.971 673.155 160.947C673.292 160.924 673.397 160.902 673.468 160.884L673.901 162.893C673.764 162.941 673.567 162.993 673.311 163.05C673.06 163.107 672.753 163.14 672.388 163.149C671.744 163.168 671.164 163.071 670.648 162.858C670.132 162.64 669.722 162.304 669.419 161.849C669.121 161.395 668.974 160.827 668.979 160.145V149.477ZM677.436 163.156C677.005 163.156 676.636 163.005 676.328 162.702C676.02 162.399 675.869 162.029 675.874 161.594C675.869 161.168 676.02 160.803 676.328 160.5C676.636 160.197 677.005 160.045 677.436 160.045C677.853 160.045 678.215 160.197 678.523 160.5C678.835 160.803 678.994 161.168 678.999 161.594C678.994 161.883 678.918 162.145 678.771 162.382C678.629 162.619 678.44 162.808 678.203 162.95C677.971 163.088 677.715 163.156 677.436 163.156ZM683.237 163.156C682.806 163.156 682.437 163.005 682.129 162.702C681.821 162.399 681.67 162.029 681.674 161.594C681.67 161.168 681.821 160.803 682.129 160.5C682.437 160.197 682.806 160.045 683.237 160.045C683.654 160.045 684.016 160.197 684.324 160.5C684.636 160.803 684.795 161.168 684.799 161.594C684.795 161.883 684.719 162.145 684.572 162.382C684.43 162.619 684.241 162.808 684.004 162.95C683.772 163.088 683.516 163.156 683.237 163.156Z" fill="black"/>
<rect x="-198.75" y="504.25" width="553.5" height="255.5" rx="26.75" fill="white" stroke="black" stroke-width="2.5"/>
<rect x="1101.25" y="-127.75" width="553.5" height="255.5" rx="26.75" fill="white" stroke="black" stroke-width="2.5"/>
<rect x="254.25" y="-199.75" width="1672.5" height="255.5" rx="26.75" fill="white" stroke="black" stroke-width="2.5"/>
</g>
<defs>
<clipPath id="clip0_9_20">
<rect width="1240" height="743" fill="white"/>
</clipPath>
</defs>
</svg>
