<svg width="1240" height="743" viewBox="0 0 1240 743" fill="none" xmlns="http://www.w3.org/2000/svg">
<g clip-path="url(#clip0_1_2)">
<rect width="1240" height="743" fill="white"/>
<path d="M519.882 96.1602C519.719 94.6405 519.035 93.4573 517.828 92.6104C516.634 91.7636 515.079 91.3402 513.165 91.3402C511.819 91.3402 510.665 91.5432 509.702 91.9492C508.74 92.3552 508.003 92.9062 507.493 93.6023C506.982 94.2983 506.721 95.0929 506.71 95.9862C506.71 96.7286 506.878 97.3724 507.214 97.9176C507.562 98.4628 508.032 98.9268 508.624 99.3097C509.215 99.6809 509.871 99.9941 510.59 100.249C511.309 100.504 512.034 100.719 512.765 100.893L516.106 101.728C517.451 102.042 518.745 102.465 519.986 102.999C521.239 103.532 522.358 104.205 523.344 105.017C524.342 105.829 525.131 106.809 525.711 107.958C526.291 109.106 526.581 110.452 526.581 111.995C526.581 114.083 526.047 115.921 524.98 117.511C523.913 119.088 522.37 120.324 520.352 121.217C518.345 122.099 515.914 122.539 513.061 122.539C510.288 122.539 507.881 122.11 505.839 121.252C503.809 120.393 502.22 119.141 501.072 117.493C499.935 115.846 499.32 113.839 499.227 111.473H505.578C505.671 112.714 506.054 113.746 506.727 114.57C507.4 115.394 508.276 116.008 509.354 116.414C510.445 116.82 511.663 117.023 513.009 117.023C514.412 117.023 515.642 116.815 516.697 116.397C517.765 115.968 518.6 115.376 519.203 114.622C519.806 113.857 520.114 112.963 520.125 111.942C520.114 111.014 519.841 110.249 519.308 109.646C518.774 109.031 518.026 108.52 517.063 108.114C516.112 107.697 514.998 107.326 513.722 107.001L509.668 105.957C506.733 105.203 504.413 104.06 502.707 102.529C501.014 100.986 500.167 98.9384 500.167 96.3864C500.167 94.2867 500.735 92.448 501.872 90.8704C503.021 89.2927 504.581 88.0689 506.553 87.1989C508.525 86.3172 510.758 85.8764 513.252 85.8764C515.781 85.8764 517.997 86.3172 519.899 87.1989C521.813 88.0689 523.315 89.2811 524.406 90.8356C525.496 92.3784 526.059 94.1533 526.094 96.1602H519.882ZM530.77 91.7752V86.3636H559.203V91.7752H548.188V122H541.785V91.7752H530.77ZM564.954 122H558.063L570.609 86.3636H578.578L591.141 122H584.251L574.733 93.6719H574.454L564.954 122ZM565.18 108.027H583.972V113.213H565.18V108.027ZM589.963 91.7752V86.3636H618.395V91.7752H607.381V122H600.977V91.7752H589.963ZM623.876 86.3636H631.776L642.356 112.186H642.773L653.353 86.3636H661.253V122H655.058V97.5174H654.727L644.879 121.896H640.25L630.401 97.4652H630.071V122H623.876V86.3636ZM672.859 122H665.968L678.514 86.3636H686.483L699.047 122H692.156L682.638 93.6719H682.36L672.859 122ZM673.085 108.027H691.878V113.213H673.085V108.027ZM733.026 86.3636V122H727.283L710.492 97.7262H710.196V122H703.741V86.3636H709.517L726.292 110.655H726.605V86.3636H733.026Z" fill="black"/>
<path d="M431.303 191H428.49L433.611 176.455H436.864L441.991 191H439.179L435.294 179.438H435.18L431.303 191ZM431.395 185.297H439.065V187.413H431.395V185.297ZM454.202 180.091V182.08H447.931V180.091H454.202ZM449.479 177.477H452.05V187.719C452.05 188.064 452.102 188.33 452.206 188.514C452.315 188.694 452.457 188.817 452.632 188.884C452.808 188.95 453.002 188.983 453.215 188.983C453.376 188.983 453.523 188.971 453.655 188.947C453.792 188.924 453.897 188.902 453.968 188.884L454.401 190.893C454.264 190.941 454.067 190.993 453.811 191.05C453.56 191.107 453.253 191.14 452.888 191.149C452.244 191.168 451.664 191.071 451.148 190.858C450.632 190.64 450.222 190.304 449.919 189.849C449.621 189.395 449.474 188.827 449.479 188.145V177.477ZM460.994 191.213C459.928 191.213 459.005 190.979 458.224 190.51C457.442 190.041 456.836 189.385 456.406 188.543C455.979 187.7 455.766 186.715 455.766 185.588C455.766 184.461 455.979 183.474 456.406 182.626C456.836 181.779 457.442 181.121 458.224 180.652C459.005 180.183 459.928 179.949 460.994 179.949C462.059 179.949 462.982 180.183 463.763 180.652C464.545 181.121 465.148 181.779 465.575 182.626C466.005 183.474 466.221 184.461 466.221 185.588C466.221 186.715 466.005 187.7 465.575 188.543C465.148 189.385 464.545 190.041 463.763 190.51C462.982 190.979 462.059 191.213 460.994 191.213ZM461.008 189.153C461.585 189.153 462.068 188.995 462.457 188.678C462.845 188.356 463.134 187.925 463.323 187.385C463.517 186.845 463.614 186.244 463.614 185.581C463.614 184.913 463.517 184.31 463.323 183.77C463.134 183.225 462.845 182.792 462.457 182.47C462.068 182.148 461.585 181.987 461.008 181.987C460.416 181.987 459.924 182.148 459.531 182.47C459.142 182.792 458.851 183.225 458.657 183.77C458.468 184.31 458.373 184.913 458.373 185.581C458.373 186.244 458.468 186.845 458.657 187.385C458.851 187.925 459.142 188.356 459.531 188.678C459.924 188.995 460.416 189.153 461.008 189.153ZM473.162 191.213C472.096 191.213 471.173 190.979 470.392 190.51C469.61 190.041 469.004 189.385 468.574 188.543C468.147 187.7 467.934 186.715 467.934 185.588C467.934 184.461 468.147 183.474 468.574 182.626C469.004 181.779 469.61 181.121 470.392 180.652C471.173 180.183 472.096 179.949 473.162 179.949C474.227 179.949 475.15 180.183 475.931 180.652C476.713 181.121 477.316 181.779 477.743 182.626C478.173 183.474 478.389 184.461 478.389 185.588C478.389 186.715 478.173 187.7 477.743 188.543C477.316 189.385 476.713 190.041 475.931 190.51C475.15 190.979 474.227 191.213 473.162 191.213ZM473.176 189.153C473.753 189.153 474.236 188.995 474.625 188.678C475.013 188.356 475.302 187.925 475.491 187.385C475.685 186.845 475.782 186.244 475.782 185.581C475.782 184.913 475.685 184.31 475.491 183.77C475.302 183.225 475.013 182.792 474.625 182.47C474.236 182.148 473.753 181.987 473.176 181.987C472.584 181.987 472.092 182.148 471.699 182.47C471.31 182.792 471.019 183.225 470.825 183.77C470.636 184.31 470.541 184.913 470.541 185.581C470.541 186.244 470.636 186.845 470.825 187.385C471.019 187.925 471.31 188.356 471.699 188.678C472.092 188.995 472.584 189.153 473.176 189.153ZM483.142 176.455V191H480.571V176.455H483.142ZM496.194 180.091V182.08H489.923V180.091H496.194ZM491.471 177.477H494.042V187.719C494.042 188.064 494.094 188.33 494.199 188.514C494.307 188.694 494.449 188.817 494.625 188.884C494.8 188.95 494.994 188.983 495.207 188.983C495.368 188.983 495.515 188.971 495.647 188.947C495.785 188.924 495.889 188.902 495.96 188.884L496.393 190.893C496.256 190.941 496.059 190.993 495.804 191.05C495.553 191.107 495.245 191.14 494.88 191.149C494.236 191.168 493.656 191.071 493.14 190.858C492.624 190.64 492.215 190.304 491.912 189.849C491.613 189.395 491.467 188.827 491.471 188.145V177.477ZM502.986 191.213C501.92 191.213 500.997 190.979 500.216 190.51C499.435 190.041 498.829 189.385 498.398 188.543C497.972 187.7 497.759 186.715 497.759 185.588C497.759 184.461 497.972 183.474 498.398 182.626C498.829 181.779 499.435 181.121 500.216 180.652C500.997 180.183 501.92 179.949 502.986 179.949C504.051 179.949 504.974 180.183 505.756 180.652C506.537 181.121 507.141 181.779 507.567 182.626C507.998 183.474 508.213 184.461 508.213 185.588C508.213 186.715 507.998 187.7 507.567 188.543C507.141 189.385 506.537 190.041 505.756 190.51C504.974 190.979 504.051 191.213 502.986 191.213ZM503 189.153C503.578 189.153 504.061 188.995 504.449 188.678C504.837 188.356 505.126 187.925 505.315 187.385C505.509 186.845 505.607 186.244 505.607 185.581C505.607 184.913 505.509 184.31 505.315 183.77C505.126 183.225 504.837 182.792 504.449 182.47C504.061 182.148 503.578 181.987 503 181.987C502.408 181.987 501.916 182.148 501.523 182.47C501.134 182.792 500.843 183.225 500.649 183.77C500.46 184.31 500.365 184.913 500.365 185.581C500.365 186.244 500.46 186.845 500.649 187.385C500.843 187.925 501.134 188.356 501.523 188.678C501.916 188.995 502.408 189.153 503 189.153ZM515.356 191V180.091H517.814V181.945H517.941C518.169 181.32 518.545 180.832 519.071 180.482C519.596 180.126 520.224 179.949 520.953 179.949C521.691 179.949 522.314 180.129 522.821 180.489C523.332 180.844 523.692 181.329 523.9 181.945H524.014C524.255 181.339 524.663 180.856 525.235 180.496C525.813 180.131 526.497 179.949 527.288 179.949C528.292 179.949 529.111 180.266 529.745 180.901C530.38 181.535 530.697 182.461 530.697 183.678V191H528.119V184.075C528.119 183.398 527.939 182.903 527.579 182.591C527.219 182.274 526.779 182.115 526.258 182.115C525.638 182.115 525.153 182.309 524.802 182.697C524.457 183.081 524.284 183.58 524.284 184.196V191H521.762V183.969C521.762 183.405 521.592 182.955 521.251 182.619C520.915 182.283 520.475 182.115 519.93 182.115C519.561 182.115 519.225 182.21 518.922 182.399C518.618 182.584 518.377 182.847 518.197 183.188C518.017 183.524 517.927 183.917 517.927 184.366V191H515.356ZM536.445 191.22C535.753 191.22 535.131 191.097 534.577 190.851C534.027 190.6 533.592 190.231 533.27 189.743C532.953 189.255 532.794 188.654 532.794 187.939C532.794 187.323 532.908 186.814 533.135 186.412C533.362 186.009 533.672 185.688 534.065 185.446C534.458 185.205 534.901 185.022 535.393 184.899C535.891 184.771 536.404 184.679 536.935 184.622C537.574 184.556 538.092 184.497 538.49 184.445C538.888 184.388 539.177 184.303 539.357 184.189C539.541 184.071 539.634 183.888 539.634 183.642V183.599C539.634 183.064 539.475 182.65 539.158 182.357C538.84 182.063 538.384 181.916 537.787 181.916C537.157 181.916 536.658 182.054 536.288 182.328C535.924 182.603 535.678 182.927 535.55 183.301L533.149 182.96C533.339 182.297 533.651 181.743 534.087 181.298C534.522 180.848 535.055 180.512 535.685 180.29C536.314 180.062 537.01 179.949 537.773 179.949C538.298 179.949 538.821 180.01 539.342 180.134C539.863 180.257 540.339 180.46 540.77 180.744C541.201 181.024 541.546 181.405 541.807 181.888C542.072 182.371 542.205 182.974 542.205 183.699V191H539.733V189.501H539.648C539.491 189.804 539.271 190.089 538.987 190.354C538.708 190.614 538.355 190.825 537.929 190.986C537.508 191.142 537.013 191.22 536.445 191.22ZM537.112 189.331C537.628 189.331 538.076 189.229 538.455 189.026C538.833 188.817 539.125 188.543 539.328 188.202C539.536 187.861 539.641 187.489 539.641 187.087V185.801C539.56 185.867 539.423 185.929 539.229 185.986C539.039 186.043 538.826 186.092 538.589 186.135C538.353 186.178 538.118 186.215 537.886 186.249C537.654 186.282 537.453 186.31 537.283 186.334C536.899 186.386 536.556 186.471 536.253 186.589C535.95 186.708 535.711 186.874 535.536 187.087C535.36 187.295 535.273 187.565 535.273 187.896C535.273 188.37 535.446 188.727 535.791 188.969C536.137 189.21 536.577 189.331 537.112 189.331ZM547.134 187.577L547.126 184.473H547.538L551.459 180.091H554.463L549.641 185.46H549.108L547.134 187.577ZM544.79 191V176.455H547.361V191H544.79ZM551.636 191L548.085 186.036L549.818 184.224L554.712 191H551.636ZM560.557 191.213C559.463 191.213 558.518 190.986 557.723 190.531C556.932 190.072 556.324 189.423 555.898 188.585C555.472 187.742 555.259 186.75 555.259 185.609C555.259 184.487 555.472 183.502 555.898 182.655C556.329 181.803 556.93 181.14 557.702 180.666C558.473 180.188 559.38 179.949 560.422 179.949C561.094 179.949 561.729 180.058 562.325 180.276C562.927 180.489 563.457 180.82 563.916 181.27C564.38 181.72 564.745 182.293 565.01 182.989C565.275 183.68 565.408 184.504 565.408 185.46V186.249H556.466V184.516H562.943C562.938 184.023 562.832 183.585 562.624 183.202C562.415 182.813 562.124 182.508 561.75 182.286C561.381 182.063 560.95 181.952 560.457 181.952C559.932 181.952 559.47 182.08 559.072 182.335C558.675 182.586 558.365 182.918 558.142 183.33C557.924 183.737 557.813 184.184 557.808 184.672V186.185C557.808 186.819 557.924 187.364 558.156 187.818C558.388 188.268 558.713 188.614 559.129 188.855C559.546 189.092 560.034 189.21 560.592 189.21C560.966 189.21 561.305 189.158 561.608 189.054C561.911 188.945 562.174 188.786 562.396 188.578C562.619 188.37 562.787 188.112 562.901 187.804L565.301 188.074C565.15 188.708 564.861 189.262 564.435 189.736C564.013 190.205 563.473 190.569 562.815 190.83C562.157 191.085 561.404 191.213 560.557 191.213ZM574.142 195.091C573.791 195.091 573.467 195.063 573.169 195.006C572.875 194.954 572.641 194.892 572.466 194.821L573.062 192.818C573.436 192.927 573.77 192.979 574.064 192.974C574.357 192.97 574.615 192.877 574.838 192.697C575.065 192.522 575.257 192.229 575.413 191.817L575.633 191.227L571.677 180.091H574.404L576.919 188.33H577.032L579.554 180.091H582.288L577.92 192.321C577.717 192.899 577.447 193.393 577.11 193.805C576.774 194.222 576.362 194.539 575.875 194.757C575.392 194.98 574.814 195.091 574.142 195.091ZM588.455 191.213C587.389 191.213 586.466 190.979 585.685 190.51C584.903 190.041 584.297 189.385 583.866 188.543C583.44 187.7 583.227 186.715 583.227 185.588C583.227 184.461 583.44 183.474 583.866 182.626C584.297 181.779 584.903 181.121 585.685 180.652C586.466 180.183 587.389 179.949 588.455 179.949C589.52 179.949 590.443 180.183 591.224 180.652C592.006 181.121 592.609 181.779 593.036 182.626C593.466 183.474 593.682 184.461 593.682 185.588C593.682 186.715 593.466 187.7 593.036 188.543C592.609 189.385 592.006 190.041 591.224 190.51C590.443 190.979 589.52 191.213 588.455 191.213ZM588.469 189.153C589.046 189.153 589.529 188.995 589.918 188.678C590.306 188.356 590.595 187.925 590.784 187.385C590.978 186.845 591.075 186.244 591.075 185.581C591.075 184.913 590.978 184.31 590.784 183.77C590.595 183.225 590.306 182.792 589.918 182.47C589.529 182.148 589.046 181.987 588.469 181.987C587.877 181.987 587.384 182.148 586.991 182.47C586.603 182.792 586.312 183.225 586.118 183.77C585.929 184.31 585.834 184.913 585.834 185.581C585.834 186.244 585.929 186.845 586.118 187.385C586.312 187.925 586.603 188.356 586.991 188.678C587.384 188.995 587.877 189.153 588.469 189.153ZM602.817 186.412V180.091H605.388V191H602.895V189.061H602.782C602.535 189.672 602.131 190.171 601.567 190.56C601.008 190.948 600.319 191.142 599.5 191.142C598.785 191.142 598.153 190.983 597.604 190.666C597.06 190.344 596.633 189.878 596.326 189.267C596.018 188.652 595.864 187.908 595.864 187.037V180.091H598.435V186.639C598.435 187.33 598.624 187.88 599.003 188.287C599.382 188.694 599.879 188.898 600.495 188.898C600.873 188.898 601.24 188.805 601.596 188.621C601.951 188.436 602.242 188.161 602.469 187.797C602.701 187.428 602.817 186.966 602.817 186.412ZM608.032 191V180.091H610.525V181.909H610.638C610.837 181.279 611.178 180.794 611.661 180.453C612.149 180.107 612.705 179.935 613.33 179.935C613.472 179.935 613.631 179.942 613.806 179.956C613.986 179.965 614.135 179.982 614.254 180.006V182.371C614.145 182.333 613.972 182.3 613.735 182.271C613.503 182.238 613.278 182.222 613.06 182.222C612.592 182.222 612.17 182.323 611.796 182.527C611.427 182.726 611.136 183.003 610.923 183.358C610.71 183.713 610.603 184.123 610.603 184.587V191H608.032ZM625.965 191H621.036V176.455H626.065C627.509 176.455 628.749 176.746 629.786 177.328C630.828 177.906 631.628 178.737 632.187 179.821C632.746 180.905 633.025 182.203 633.025 183.713C633.025 185.228 632.743 186.53 632.18 187.619C631.621 188.708 630.814 189.544 629.758 190.126C628.707 190.709 627.442 191 625.965 191ZM623.671 188.72H625.837C626.851 188.72 627.696 188.536 628.373 188.166C629.05 187.792 629.559 187.236 629.9 186.497C630.241 185.754 630.411 184.826 630.411 183.713C630.411 182.6 630.241 181.677 629.9 180.943C629.559 180.205 629.055 179.653 628.387 179.288C627.724 178.919 626.9 178.734 625.915 178.734H623.671V188.72ZM635.415 191V180.091H637.986V191H635.415ZM636.707 178.543C636.3 178.543 635.95 178.408 635.656 178.138C635.363 177.863 635.216 177.534 635.216 177.151C635.216 176.762 635.363 176.433 635.656 176.163C635.95 175.889 636.3 175.751 636.707 175.751C637.119 175.751 637.47 175.889 637.759 176.163C638.052 176.433 638.199 176.762 638.199 177.151C638.199 177.534 638.052 177.863 637.759 178.138C637.47 178.408 637.119 178.543 636.707 178.543ZM649.252 182.974L646.908 183.23C646.842 182.993 646.726 182.771 646.56 182.562C646.399 182.354 646.181 182.186 645.907 182.058C645.632 181.93 645.296 181.866 644.898 181.866C644.363 181.866 643.913 181.982 643.549 182.214C643.189 182.446 643.011 182.747 643.016 183.116C643.011 183.434 643.127 183.692 643.364 183.891C643.605 184.089 644.003 184.253 644.557 184.381L646.418 184.778C647.45 185.001 648.217 185.354 648.719 185.837C649.226 186.32 649.481 186.952 649.486 187.733C649.481 188.42 649.28 189.026 648.882 189.551C648.489 190.072 647.943 190.479 647.242 190.773C646.541 191.066 645.736 191.213 644.827 191.213C643.492 191.213 642.417 190.934 641.603 190.375C640.788 189.812 640.303 189.028 640.147 188.024L642.654 187.783C642.767 188.275 643.009 188.647 643.378 188.898C643.748 189.149 644.228 189.274 644.82 189.274C645.431 189.274 645.921 189.149 646.29 188.898C646.664 188.647 646.851 188.337 646.851 187.967C646.851 187.655 646.73 187.397 646.489 187.193C646.252 186.99 645.883 186.833 645.381 186.724L643.52 186.334C642.474 186.116 641.7 185.749 641.198 185.233C640.696 184.712 640.447 184.054 640.452 183.259C640.447 182.586 640.63 182.004 640.999 181.511C641.373 181.014 641.891 180.631 642.554 180.361C643.222 180.086 643.991 179.949 644.863 179.949C646.141 179.949 647.147 180.221 647.881 180.766C648.62 181.31 649.077 182.046 649.252 182.974ZM656.365 191.213C655.276 191.213 654.341 190.974 653.559 190.496C652.783 190.018 652.184 189.357 651.762 188.514C651.346 187.667 651.137 186.691 651.137 185.588C651.137 184.48 651.35 183.502 651.777 182.655C652.203 181.803 652.804 181.14 653.581 180.666C654.362 180.188 655.285 179.949 656.35 179.949C657.236 179.949 658.02 180.112 658.701 180.439C659.388 180.761 659.935 181.218 660.342 181.81C660.749 182.397 660.981 183.083 661.038 183.869H658.581C658.481 183.344 658.244 182.906 657.87 182.555C657.501 182.2 657.006 182.023 656.386 182.023C655.86 182.023 655.399 182.165 655.001 182.449C654.603 182.728 654.293 183.131 654.071 183.656C653.853 184.182 653.744 184.812 653.744 185.545C653.744 186.289 653.853 186.928 654.071 187.463C654.288 187.993 654.594 188.403 654.987 188.692C655.385 188.976 655.851 189.118 656.386 189.118C656.765 189.118 657.103 189.047 657.402 188.905C657.705 188.758 657.958 188.547 658.162 188.273C658.365 187.998 658.505 187.664 658.581 187.271H661.038C660.976 188.043 660.749 188.727 660.356 189.324C659.963 189.916 659.428 190.38 658.751 190.716C658.074 191.047 657.279 191.213 656.365 191.213ZM667.908 191.213C666.842 191.213 665.919 190.979 665.138 190.51C664.357 190.041 663.75 189.385 663.32 188.543C662.893 187.7 662.68 186.715 662.68 185.588C662.68 184.461 662.893 183.474 663.32 182.626C663.75 181.779 664.357 181.121 665.138 180.652C665.919 180.183 666.842 179.949 667.908 179.949C668.973 179.949 669.896 180.183 670.678 180.652C671.459 181.121 672.063 181.779 672.489 182.626C672.92 183.474 673.135 184.461 673.135 185.588C673.135 186.715 672.92 187.7 672.489 188.543C672.063 189.385 671.459 190.041 670.678 190.51C669.896 190.979 668.973 191.213 667.908 191.213ZM667.922 189.153C668.5 189.153 668.982 188.995 669.371 188.678C669.759 188.356 670.048 187.925 670.237 187.385C670.431 186.845 670.528 186.244 670.528 185.581C670.528 184.913 670.431 184.31 670.237 183.77C670.048 183.225 669.759 182.792 669.371 182.47C668.982 182.148 668.5 181.987 667.922 181.987C667.33 181.987 666.838 182.148 666.445 182.47C666.056 182.792 665.765 183.225 665.571 183.77C665.382 184.31 665.287 184.913 665.287 185.581C665.287 186.244 665.382 186.845 665.571 187.385C665.765 187.925 666.056 188.356 666.445 188.678C666.838 188.995 667.33 189.153 667.922 189.153ZM675.317 191V180.091H677.81V181.909H677.924C678.123 181.279 678.463 180.794 678.946 180.453C679.434 180.107 679.99 179.935 680.615 179.935C680.757 179.935 680.916 179.942 681.091 179.956C681.271 179.965 681.42 179.982 681.539 180.006V182.371C681.43 182.333 681.257 182.3 681.02 182.271C680.788 182.238 680.563 182.222 680.346 182.222C679.877 182.222 679.455 182.323 679.081 182.527C678.712 182.726 678.421 183.003 678.208 183.358C677.995 183.713 677.888 184.123 677.888 184.587V191H675.317ZM686.846 191.192C685.989 191.192 685.222 190.972 684.545 190.531C683.868 190.091 683.333 189.452 682.94 188.614C682.547 187.776 682.35 186.758 682.35 185.56C682.35 184.348 682.549 183.325 682.947 182.491C683.349 181.653 683.891 181.021 684.573 180.595C685.255 180.164 686.015 179.949 686.853 179.949C687.492 179.949 688.018 180.058 688.43 180.276C688.842 180.489 689.168 180.747 689.41 181.05C689.651 181.348 689.838 181.63 689.971 181.895H690.077V176.455H692.656V191H690.127V189.281H689.971C689.838 189.546 689.647 189.828 689.396 190.126C689.145 190.42 688.813 190.671 688.401 190.879C687.989 191.088 687.471 191.192 686.846 191.192ZM687.563 189.082C688.108 189.082 688.572 188.936 688.955 188.642C689.339 188.344 689.63 187.929 689.829 187.399C690.028 186.869 690.127 186.251 690.127 185.545C690.127 184.84 690.028 184.227 689.829 183.706C689.635 183.185 689.346 182.78 688.962 182.491C688.584 182.203 688.117 182.058 687.563 182.058C686.99 182.058 686.512 182.207 686.129 182.506C685.745 182.804 685.456 183.216 685.262 183.741C685.068 184.267 684.971 184.868 684.971 185.545C684.971 186.227 685.068 186.836 685.262 187.371C685.461 187.901 685.752 188.32 686.136 188.628C686.524 188.931 687 189.082 687.563 189.082ZM708.375 180.453C708.308 179.833 708.029 179.35 707.537 179.004C707.049 178.659 706.414 178.486 705.633 178.486C705.084 178.486 704.613 178.569 704.22 178.734C703.827 178.9 703.526 179.125 703.318 179.409C703.109 179.693 703.003 180.018 702.998 180.382C702.998 180.685 703.067 180.948 703.204 181.17C703.346 181.393 703.538 181.582 703.779 181.739C704.021 181.89 704.288 182.018 704.582 182.122C704.876 182.226 705.172 182.314 705.47 182.385L706.833 182.726C707.383 182.854 707.911 183.027 708.417 183.244C708.929 183.462 709.386 183.737 709.788 184.068C710.195 184.4 710.517 184.8 710.754 185.268C710.991 185.737 711.109 186.286 711.109 186.916C711.109 187.768 710.891 188.519 710.456 189.168C710.02 189.812 709.39 190.316 708.566 190.68C707.747 191.04 706.755 191.22 705.591 191.22C704.459 191.22 703.476 191.045 702.643 190.695C701.815 190.344 701.166 189.833 700.697 189.161C700.233 188.488 699.982 187.669 699.944 186.703H702.537C702.574 187.21 702.731 187.631 703.005 187.967C703.28 188.304 703.637 188.554 704.078 188.72C704.523 188.886 705.02 188.969 705.569 188.969C706.142 188.969 706.644 188.884 707.075 188.713C707.511 188.538 707.851 188.296 708.098 187.989C708.344 187.676 708.469 187.312 708.474 186.895C708.469 186.516 708.358 186.204 708.14 185.957C707.922 185.706 707.617 185.498 707.224 185.332C706.836 185.162 706.381 185.01 705.86 184.878L704.206 184.452C703.008 184.144 702.061 183.678 701.365 183.053C700.673 182.423 700.328 181.587 700.328 180.545C700.328 179.688 700.56 178.938 701.024 178.294C701.493 177.65 702.129 177.151 702.934 176.795C703.739 176.436 704.651 176.256 705.669 176.256C706.701 176.256 707.605 176.436 708.382 176.795C709.163 177.151 709.776 177.645 710.221 178.28C710.666 178.91 710.896 179.634 710.91 180.453H708.375ZM718.792 180.091V182.08H712.521V180.091H718.792ZM714.069 177.477H716.64V187.719C716.64 188.064 716.692 188.33 716.796 188.514C716.905 188.694 717.047 188.817 717.222 188.884C717.397 188.95 717.592 188.983 717.805 188.983C717.966 188.983 718.112 188.971 718.245 188.947C718.382 188.924 718.487 188.902 718.558 188.884L718.991 190.893C718.853 190.941 718.657 190.993 718.401 191.05C718.15 191.107 717.843 191.14 717.478 191.149C716.834 191.168 716.254 191.071 715.738 190.858C715.222 190.64 714.812 190.304 714.509 189.849C714.211 189.395 714.064 188.827 714.069 188.145V177.477ZM724.081 191.22C723.39 191.22 722.767 191.097 722.213 190.851C721.664 190.6 721.229 190.231 720.907 189.743C720.589 189.255 720.431 188.654 720.431 187.939C720.431 187.323 720.544 186.814 720.772 186.412C720.999 186.009 721.309 185.688 721.702 185.446C722.095 185.205 722.538 185.022 723.03 184.899C723.527 184.771 724.041 184.679 724.571 184.622C725.211 184.556 725.729 184.497 726.127 184.445C726.525 184.388 726.813 184.303 726.993 184.189C727.178 184.071 727.27 183.888 727.27 183.642V183.599C727.27 183.064 727.112 182.65 726.794 182.357C726.477 182.063 726.02 181.916 725.424 181.916C724.794 181.916 724.294 182.054 723.925 182.328C723.56 182.603 723.314 182.927 723.186 183.301L720.786 182.96C720.975 182.297 721.288 181.743 721.723 181.298C722.159 180.848 722.692 180.512 723.321 180.29C723.951 180.062 724.647 179.949 725.409 179.949C725.935 179.949 726.458 180.01 726.979 180.134C727.5 180.257 727.976 180.46 728.407 180.744C728.837 181.024 729.183 181.405 729.444 181.888C729.709 182.371 729.841 182.974 729.841 183.699V191H727.37V189.501H727.284C727.128 189.804 726.908 190.089 726.624 190.354C726.345 190.614 725.992 190.825 725.566 190.986C725.144 191.142 724.65 191.22 724.081 191.22ZM724.749 189.331C725.265 189.331 725.712 189.229 726.091 189.026C726.47 188.817 726.761 188.543 726.965 188.202C727.173 187.861 727.277 187.489 727.277 187.087V185.801C727.197 185.867 727.06 185.929 726.865 185.986C726.676 186.043 726.463 186.092 726.226 186.135C725.989 186.178 725.755 186.215 725.523 186.249C725.291 186.282 725.09 186.31 724.919 186.334C724.536 186.386 724.193 186.471 723.89 186.589C723.587 186.708 723.347 186.874 723.172 187.087C722.997 187.295 722.909 187.565 722.909 187.896C722.909 188.37 723.082 188.727 723.428 188.969C723.774 189.21 724.214 189.331 724.749 189.331ZM737.874 180.091V182.08H731.603V180.091H737.874ZM733.151 177.477H735.722V187.719C735.722 188.064 735.774 188.33 735.878 188.514C735.987 188.694 736.129 188.817 736.304 188.884C736.48 188.95 736.674 188.983 736.887 188.983C737.048 188.983 737.194 188.971 737.327 188.947C737.464 188.924 737.569 188.902 737.64 188.884L738.073 190.893C737.935 190.941 737.739 190.993 737.483 191.05C737.232 191.107 736.925 191.14 736.56 191.149C735.916 191.168 735.336 191.071 734.82 190.858C734.304 190.64 733.894 190.304 733.591 189.849C733.293 189.395 733.146 188.827 733.151 188.145V177.477ZM746.977 186.412V180.091H749.548V191H747.055V189.061H746.942C746.696 189.672 746.291 190.171 745.727 190.56C745.169 190.948 744.48 191.142 743.661 191.142C742.946 191.142 742.313 190.983 741.764 190.666C741.22 190.344 740.794 189.878 740.486 189.267C740.178 188.652 740.024 187.908 740.024 187.037V180.091H742.595V186.639C742.595 187.33 742.785 187.88 743.163 188.287C743.542 188.694 744.039 188.898 744.655 188.898C745.034 188.898 745.401 188.805 745.756 188.621C746.111 188.436 746.402 188.161 746.629 187.797C746.861 187.428 746.977 186.966 746.977 186.412ZM760.814 182.974L758.471 183.23C758.404 182.993 758.288 182.771 758.123 182.562C757.962 182.354 757.744 182.186 757.469 182.058C757.194 181.93 756.858 181.866 756.461 181.866C755.926 181.866 755.476 181.982 755.111 182.214C754.751 182.446 754.574 182.747 754.578 183.116C754.574 183.434 754.69 183.692 754.926 183.891C755.168 184.089 755.566 184.253 756.12 184.381L757.98 184.778C759.013 185.001 759.78 185.354 760.282 185.837C760.788 186.32 761.044 186.952 761.049 187.733C761.044 188.42 760.843 189.026 760.445 189.551C760.052 190.072 759.505 190.479 758.804 190.773C758.104 191.066 757.299 191.213 756.39 191.213C755.054 191.213 753.98 190.934 753.165 190.375C752.351 189.812 751.865 189.028 751.709 188.024L754.216 187.783C754.33 188.275 754.571 188.647 754.941 188.898C755.31 189.149 755.791 189.274 756.382 189.274C756.993 189.274 757.483 189.149 757.853 188.898C758.227 188.647 758.414 188.337 758.414 187.967C758.414 187.655 758.293 187.397 758.051 187.193C757.815 186.99 757.445 186.833 756.944 186.724L755.083 186.334C754.036 186.116 753.262 185.749 752.76 185.233C752.258 184.712 752.01 184.054 752.015 183.259C752.01 182.586 752.192 182.004 752.561 181.511C752.935 181.014 753.454 180.631 754.117 180.361C754.784 180.086 755.554 179.949 756.425 179.949C757.703 179.949 758.71 180.221 759.444 180.766C760.182 181.31 760.639 182.046 760.814 182.974ZM770.701 176.455V191H768.13V176.455H770.701ZM778.103 191.213C777.038 191.213 776.114 190.979 775.333 190.51C774.552 190.041 773.946 189.385 773.515 188.543C773.089 187.7 772.876 186.715 772.876 185.588C772.876 184.461 773.089 183.474 773.515 182.626C773.946 181.779 774.552 181.121 775.333 180.652C776.114 180.183 777.038 179.949 778.103 179.949C779.168 179.949 780.092 180.183 780.873 180.652C781.654 181.121 782.258 181.779 782.684 182.626C783.115 183.474 783.33 184.461 783.33 185.588C783.33 186.715 783.115 187.7 782.684 188.543C782.258 189.385 781.654 190.041 780.873 190.51C780.092 190.979 779.168 191.213 778.103 191.213ZM778.117 189.153C778.695 189.153 779.178 188.995 779.566 188.678C779.954 188.356 780.243 187.925 780.433 187.385C780.627 186.845 780.724 186.244 780.724 185.581C780.724 184.913 780.627 184.31 780.433 183.77C780.243 183.225 779.954 182.792 779.566 182.47C779.178 182.148 778.695 181.987 778.117 181.987C777.525 181.987 777.033 182.148 776.64 182.47C776.252 182.792 775.96 183.225 775.766 183.77C775.577 184.31 775.482 184.913 775.482 185.581C775.482 186.244 775.577 186.845 775.766 187.385C775.96 187.925 776.252 188.356 776.64 188.678C777.033 188.995 777.525 189.153 778.117 189.153ZM790.271 191.213C789.206 191.213 788.282 190.979 787.501 190.51C786.72 190.041 786.114 189.385 785.683 188.543C785.257 187.7 785.044 186.715 785.044 185.588C785.044 184.461 785.257 183.474 785.683 182.626C786.114 181.779 786.72 181.121 787.501 180.652C788.282 180.183 789.206 179.949 790.271 179.949C791.336 179.949 792.26 180.183 793.041 180.652C793.822 181.121 794.426 181.779 794.852 182.626C795.283 183.474 795.498 184.461 795.498 185.588C795.498 186.715 795.283 187.7 794.852 188.543C794.426 189.385 793.822 190.041 793.041 190.51C792.26 190.979 791.336 191.213 790.271 191.213ZM790.285 189.153C790.863 189.153 791.346 188.995 791.734 188.678C792.122 188.356 792.411 187.925 792.6 187.385C792.795 186.845 792.892 186.244 792.892 185.581C792.892 184.913 792.795 184.31 792.6 183.77C792.411 183.225 792.122 182.792 791.734 182.47C791.346 182.148 790.863 181.987 790.285 181.987C789.693 181.987 789.201 182.148 788.808 182.47C788.42 182.792 788.128 183.225 787.934 183.77C787.745 184.31 787.65 184.913 787.65 185.581C787.65 186.244 787.745 186.845 787.934 187.385C788.128 187.925 788.42 188.356 788.808 188.678C789.201 188.995 789.693 189.153 790.285 189.153ZM800.024 187.577L800.017 184.473H800.429L804.349 180.091H807.354L802.531 185.46H801.999L800.024 187.577ZM797.68 191V176.455H800.251V191H797.68ZM804.527 191L800.976 186.036L802.709 184.224L807.602 191H804.527ZM818.787 191.213C817.698 191.213 816.762 190.974 815.981 190.496C815.205 190.018 814.606 189.357 814.184 188.514C813.768 187.667 813.559 186.691 813.559 185.588C813.559 184.48 813.772 183.502 814.199 182.655C814.625 181.803 815.226 181.14 816.002 180.666C816.784 180.188 817.707 179.949 818.772 179.949C819.658 179.949 820.441 180.112 821.123 180.439C821.81 180.761 822.357 181.218 822.764 181.81C823.171 182.397 823.403 183.083 823.46 183.869H821.002C820.903 183.344 820.666 182.906 820.292 182.555C819.923 182.2 819.428 182.023 818.808 182.023C818.282 182.023 817.821 182.165 817.423 182.449C817.025 182.728 816.715 183.131 816.493 183.656C816.275 184.182 816.166 184.812 816.166 185.545C816.166 186.289 816.275 186.928 816.493 187.463C816.71 187.993 817.016 188.403 817.409 188.692C817.806 188.976 818.273 189.118 818.808 189.118C819.187 189.118 819.525 189.047 819.824 188.905C820.127 188.758 820.38 188.547 820.583 188.273C820.787 187.998 820.927 187.664 821.002 187.271H823.46C823.398 188.043 823.171 188.727 822.778 189.324C822.385 189.916 821.85 190.38 821.173 190.716C820.496 191.047 819.7 191.213 818.787 191.213ZM830.33 191.213C829.264 191.213 828.341 190.979 827.56 190.51C826.778 190.041 826.172 189.385 825.741 188.543C825.315 187.7 825.102 186.715 825.102 185.588C825.102 184.461 825.315 183.474 825.741 182.626C826.172 181.779 826.778 181.121 827.56 180.652C828.341 180.183 829.264 179.949 830.33 179.949C831.395 179.949 832.318 180.183 833.099 180.652C833.881 181.121 834.484 181.779 834.911 182.626C835.341 183.474 835.557 184.461 835.557 185.588C835.557 186.715 835.341 187.7 834.911 188.543C834.484 189.385 833.881 190.041 833.099 190.51C832.318 190.979 831.395 191.213 830.33 191.213ZM830.344 189.153C830.921 189.153 831.404 188.995 831.793 188.678C832.181 188.356 832.47 187.925 832.659 187.385C832.853 186.845 832.95 186.244 832.95 185.581C832.95 184.913 832.853 184.31 832.659 183.77C832.47 183.225 832.181 182.792 831.793 182.47C831.404 182.148 830.921 181.987 830.344 181.987C829.752 181.987 829.259 182.148 828.866 182.47C828.478 182.792 828.187 183.225 827.993 183.77C827.804 184.31 827.709 184.913 827.709 185.581C827.709 186.244 827.804 186.845 827.993 187.385C828.187 187.925 828.478 188.356 828.866 188.678C829.259 188.995 829.752 189.153 830.344 189.153ZM842.498 191.213C841.432 191.213 840.509 190.979 839.728 190.51C838.946 190.041 838.34 189.385 837.909 188.543C837.483 187.7 837.27 186.715 837.27 185.588C837.27 184.461 837.483 183.474 837.909 182.626C838.34 181.779 838.946 181.121 839.728 180.652C840.509 180.183 841.432 179.949 842.498 179.949C843.563 179.949 844.486 180.183 845.267 180.652C846.049 181.121 846.652 181.779 847.078 182.626C847.509 183.474 847.725 184.461 847.725 185.588C847.725 186.715 847.509 187.7 847.078 188.543C846.652 189.385 846.049 190.041 845.267 190.51C844.486 190.979 843.563 191.213 842.498 191.213ZM842.512 189.153C843.089 189.153 843.572 188.995 843.961 188.678C844.349 188.356 844.638 187.925 844.827 187.385C845.021 186.845 845.118 186.244 845.118 185.581C845.118 184.913 845.021 184.31 844.827 183.77C844.638 183.225 844.349 182.792 843.961 182.47C843.572 182.148 843.089 181.987 842.512 181.987C841.92 181.987 841.427 182.148 841.034 182.47C840.646 182.792 840.355 183.225 840.161 183.77C839.971 184.31 839.877 184.913 839.877 185.581C839.877 186.244 839.971 186.845 840.161 187.385C840.355 187.925 840.646 188.356 841.034 188.678C841.427 188.995 841.92 189.153 842.512 189.153ZM852.478 176.455V191H849.907V176.455H852.478ZM863.229 176.455L862.995 186.724H860.708L860.48 176.455H863.229ZM861.851 191.156C861.42 191.156 861.051 191.005 860.743 190.702C860.44 190.399 860.289 190.029 860.289 189.594C860.289 189.168 860.44 188.803 860.743 188.5C861.051 188.197 861.42 188.045 861.851 188.045C862.273 188.045 862.637 188.197 862.945 188.5C863.257 188.803 863.414 189.168 863.414 189.594C863.414 189.883 863.34 190.145 863.194 190.382C863.051 190.619 862.862 190.808 862.625 190.95C862.393 191.088 862.135 191.156 861.851 191.156ZM432.07 200.455V215H429.435V200.455H432.07ZM440.257 204.091V206.08H433.985V204.091H440.257ZM435.534 201.477H438.105V211.719C438.105 212.064 438.157 212.33 438.261 212.514C438.37 212.694 438.512 212.817 438.687 212.884C438.862 212.95 439.056 212.983 439.27 212.983C439.431 212.983 439.577 212.971 439.71 212.947C439.847 212.924 439.951 212.902 440.022 212.884L440.456 214.893C440.318 214.941 440.122 214.993 439.866 215.05C439.615 215.107 439.307 215.14 438.943 215.149C438.299 215.168 437.719 215.071 437.203 214.858C436.687 214.64 436.277 214.304 435.974 213.849C435.676 213.395 435.529 212.827 435.534 212.145V201.477ZM459.932 205.362H457.276C457.2 204.927 457.06 204.541 456.857 204.205C456.653 203.864 456.4 203.575 456.097 203.338C455.794 203.101 455.448 202.924 455.06 202.805C454.676 202.682 454.262 202.621 453.817 202.621C453.026 202.621 452.325 202.82 451.714 203.217C451.104 203.61 450.625 204.188 450.28 204.95C449.934 205.708 449.761 206.634 449.761 207.727C449.761 208.84 449.934 209.777 450.28 210.54C450.63 211.297 451.108 211.87 451.714 212.259C452.325 212.642 453.024 212.834 453.81 212.834C454.245 212.834 454.652 212.777 455.031 212.663C455.415 212.545 455.758 212.372 456.061 212.145C456.369 211.918 456.627 211.638 456.835 211.307C457.048 210.975 457.195 210.597 457.276 210.17L459.932 210.185C459.832 210.876 459.617 211.525 459.286 212.131C458.959 212.737 458.53 213.272 458 213.736C457.47 214.195 456.849 214.555 456.139 214.815C455.429 215.071 454.641 215.199 453.774 215.199C452.496 215.199 451.355 214.903 450.351 214.311C449.347 213.719 448.556 212.865 447.979 211.747C447.401 210.63 447.112 209.29 447.112 207.727C447.112 206.16 447.403 204.82 447.986 203.707C448.568 202.59 449.361 201.735 450.365 201.143C451.369 200.552 452.505 200.256 453.774 200.256C454.584 200.256 455.337 200.369 456.033 200.597C456.729 200.824 457.349 201.158 457.893 201.598C458.438 202.034 458.885 202.569 459.236 203.203C459.591 203.833 459.823 204.553 459.932 205.362ZM465.37 215.22C464.679 215.22 464.056 215.097 463.502 214.851C462.953 214.6 462.518 214.231 462.196 213.743C461.878 213.255 461.72 212.654 461.72 211.939C461.72 211.323 461.833 210.814 462.061 210.412C462.288 210.009 462.598 209.688 462.991 209.446C463.384 209.205 463.827 209.022 464.319 208.899C464.816 208.771 465.33 208.679 465.86 208.622C466.5 208.556 467.018 208.497 467.416 208.445C467.814 208.388 468.102 208.303 468.282 208.189C468.467 208.071 468.559 207.888 468.559 207.642V207.599C468.559 207.064 468.401 206.65 468.083 206.357C467.766 206.063 467.309 205.916 466.713 205.916C466.083 205.916 465.583 206.054 465.214 206.328C464.85 206.603 464.603 206.927 464.475 207.301L462.075 206.96C462.264 206.297 462.577 205.743 463.012 205.298C463.448 204.848 463.981 204.512 464.61 204.29C465.24 204.062 465.936 203.949 466.699 203.949C467.224 203.949 467.747 204.01 468.268 204.134C468.789 204.257 469.265 204.46 469.696 204.744C470.127 205.024 470.472 205.405 470.733 205.888C470.998 206.371 471.13 206.974 471.13 207.699V215H468.659V213.501H468.574C468.417 213.804 468.197 214.089 467.913 214.354C467.634 214.614 467.281 214.825 466.855 214.986C466.433 215.142 465.939 215.22 465.37 215.22ZM466.038 213.331C466.554 213.331 467.002 213.229 467.38 213.026C467.759 212.817 468.05 212.543 468.254 212.202C468.462 211.861 468.566 211.489 468.566 211.087V209.801C468.486 209.867 468.349 209.929 468.154 209.986C467.965 210.043 467.752 210.092 467.515 210.135C467.279 210.178 467.044 210.215 466.812 210.249C466.58 210.282 466.379 210.31 466.208 210.334C465.825 210.386 465.482 210.471 465.179 210.589C464.876 210.708 464.636 210.874 464.461 211.087C464.286 211.295 464.199 211.565 464.199 211.896C464.199 212.37 464.371 212.727 464.717 212.969C465.063 213.21 465.503 213.331 466.038 213.331ZM476.287 208.608V215H473.716V204.091H476.173V205.945H476.301C476.552 205.334 476.952 204.848 477.501 204.489C478.055 204.129 478.739 203.949 479.554 203.949C480.306 203.949 480.962 204.11 481.521 204.432C482.084 204.754 482.52 205.22 482.828 205.831C483.14 206.442 483.294 207.183 483.289 208.054V215H480.718V208.452C480.718 207.723 480.529 207.152 480.15 206.74C479.776 206.328 479.258 206.122 478.595 206.122C478.145 206.122 477.745 206.222 477.395 206.42C477.049 206.615 476.777 206.896 476.578 207.266C476.384 207.635 476.287 208.082 476.287 208.608ZM490.864 215V204.091H493.321V205.945H493.449C493.676 205.32 494.053 204.832 494.578 204.482C495.104 204.126 495.731 203.949 496.461 203.949C497.199 203.949 497.822 204.129 498.328 204.489C498.84 204.844 499.2 205.329 499.408 205.945H499.522C499.763 205.339 500.17 204.856 500.743 204.496C501.321 204.131 502.005 203.949 502.796 203.949C503.8 203.949 504.619 204.266 505.253 204.901C505.888 205.535 506.205 206.461 506.205 207.678V215H503.627V208.075C503.627 207.398 503.447 206.903 503.087 206.591C502.727 206.274 502.287 206.115 501.766 206.115C501.146 206.115 500.66 206.309 500.31 206.697C499.964 207.081 499.792 207.58 499.792 208.196V215H497.27V207.969C497.27 207.405 497.1 206.955 496.759 206.619C496.423 206.283 495.982 206.115 495.438 206.115C495.069 206.115 494.732 206.21 494.429 206.399C494.126 206.584 493.885 206.847 493.705 207.188C493.525 207.524 493.435 207.917 493.435 208.366V215H490.864ZM511.952 215.22C511.261 215.22 510.638 215.097 510.085 214.851C509.535 214.6 509.1 214.231 508.778 213.743C508.46 213.255 508.302 212.654 508.302 211.939C508.302 211.323 508.415 210.814 508.643 210.412C508.87 210.009 509.18 209.688 509.573 209.446C509.966 209.205 510.409 209.022 510.901 208.899C511.398 208.771 511.912 208.679 512.442 208.622C513.082 208.556 513.6 208.497 513.998 208.445C514.396 208.388 514.684 208.303 514.864 208.189C515.049 208.071 515.141 207.888 515.141 207.642V207.599C515.141 207.064 514.983 206.65 514.665 206.357C514.348 206.063 513.891 205.916 513.295 205.916C512.665 205.916 512.165 206.054 511.796 206.328C511.432 206.603 511.185 206.927 511.058 207.301L508.657 206.96C508.846 206.297 509.159 205.743 509.594 205.298C510.03 204.848 510.563 204.512 511.192 204.29C511.822 204.062 512.518 203.949 513.281 203.949C513.806 203.949 514.329 204.01 514.85 204.134C515.371 204.257 515.847 204.46 516.278 204.744C516.709 205.024 517.054 205.405 517.315 205.888C517.58 206.371 517.712 206.974 517.712 207.699V215H515.241V213.501H515.156C514.999 213.804 514.779 214.089 514.495 214.354C514.216 214.614 513.863 214.825 513.437 214.986C513.015 215.142 512.521 215.22 511.952 215.22ZM512.62 213.331C513.136 213.331 513.584 213.229 513.962 213.026C514.341 212.817 514.632 212.543 514.836 212.202C515.044 211.861 515.148 211.489 515.148 211.087V209.801C515.068 209.867 514.931 209.929 514.737 209.986C514.547 210.043 514.334 210.092 514.097 210.135C513.861 210.178 513.626 210.215 513.394 210.249C513.162 210.282 512.961 210.31 512.79 210.334C512.407 210.386 512.064 210.471 511.761 210.589C511.458 210.708 511.219 210.874 511.043 211.087C510.868 211.295 510.781 211.565 510.781 211.896C510.781 212.37 510.953 212.727 511.299 212.969C511.645 213.21 512.085 213.331 512.62 213.331ZM522.641 211.577L522.634 208.473H523.046L526.967 204.091H529.971L525.148 209.46H524.616L522.641 211.577ZM520.298 215V200.455H522.869V215H520.298ZM527.144 215L523.593 210.036L525.326 208.224L530.219 215H527.144ZM536.065 215.213C534.971 215.213 534.026 214.986 533.231 214.531C532.44 214.072 531.832 213.423 531.406 212.585C530.979 211.742 530.766 210.75 530.766 209.609C530.766 208.487 530.979 207.502 531.406 206.655C531.836 205.803 532.438 205.14 533.21 204.666C533.981 204.188 534.888 203.949 535.93 203.949C536.602 203.949 537.237 204.058 537.833 204.276C538.434 204.489 538.965 204.82 539.424 205.27C539.888 205.72 540.253 206.293 540.518 206.989C540.783 207.68 540.915 208.504 540.915 209.46V210.249H531.974V208.516H538.451C538.446 208.023 538.34 207.585 538.131 207.202C537.923 206.813 537.632 206.508 537.258 206.286C536.888 206.063 536.458 205.952 535.965 205.952C535.44 205.952 534.978 206.08 534.58 206.335C534.183 206.586 533.872 206.918 533.65 207.33C533.432 207.737 533.321 208.184 533.316 208.672V210.185C533.316 210.819 533.432 211.364 533.664 211.818C533.896 212.268 534.22 212.614 534.637 212.855C535.054 213.092 535.541 213.21 536.1 213.21C536.474 213.21 536.813 213.158 537.116 213.054C537.419 212.945 537.682 212.786 537.904 212.578C538.127 212.37 538.295 212.112 538.408 211.804L540.809 212.074C540.657 212.708 540.369 213.262 539.942 213.736C539.521 214.205 538.981 214.569 538.323 214.83C537.665 215.085 536.912 215.213 536.065 215.213ZM549.65 219.091C549.299 219.091 548.975 219.063 548.676 219.006C548.383 218.954 548.149 218.892 547.973 218.821L548.57 216.818C548.944 216.927 549.278 216.979 549.571 216.974C549.865 216.97 550.123 216.877 550.346 216.697C550.573 216.522 550.765 216.229 550.921 215.817L551.141 215.227L547.185 204.091H549.912L552.426 212.33H552.54L555.061 204.091H557.796L553.428 216.321C553.224 216.899 552.954 217.393 552.618 217.805C552.282 218.222 551.87 218.539 551.382 218.757C550.9 218.98 550.322 219.091 549.65 219.091ZM563.962 215.213C562.897 215.213 561.974 214.979 561.192 214.51C560.411 214.041 559.805 213.385 559.374 212.543C558.948 211.7 558.735 210.715 558.735 209.588C558.735 208.461 558.948 207.474 559.374 206.626C559.805 205.779 560.411 205.121 561.192 204.652C561.974 204.183 562.897 203.949 563.962 203.949C565.028 203.949 565.951 204.183 566.732 204.652C567.513 205.121 568.117 205.779 568.543 206.626C568.974 207.474 569.19 208.461 569.19 209.588C569.19 210.715 568.974 211.7 568.543 212.543C568.117 213.385 567.513 214.041 566.732 214.51C565.951 214.979 565.028 215.213 563.962 215.213ZM563.977 213.153C564.554 213.153 565.037 212.995 565.425 212.678C565.814 212.356 566.103 211.925 566.292 211.385C566.486 210.845 566.583 210.244 566.583 209.581C566.583 208.913 566.486 208.31 566.292 207.77C566.103 207.225 565.814 206.792 565.425 206.47C565.037 206.148 564.554 205.987 563.977 205.987C563.385 205.987 562.892 206.148 562.499 206.47C562.111 206.792 561.82 207.225 561.626 207.77C561.436 208.31 561.342 208.913 561.342 209.581C561.342 210.244 561.436 210.845 561.626 211.385C561.82 211.925 562.111 212.356 562.499 212.678C562.892 212.995 563.385 213.153 563.977 213.153ZM578.325 210.412V204.091H580.896V215H578.403V213.061H578.289C578.043 213.672 577.638 214.171 577.075 214.56C576.516 214.948 575.827 215.142 575.008 215.142C574.293 215.142 573.661 214.983 573.112 214.666C572.567 214.344 572.141 213.878 571.833 213.267C571.526 212.652 571.372 211.908 571.372 211.037V204.091H573.943V210.639C573.943 211.33 574.132 211.88 574.511 212.287C574.89 212.694 575.387 212.898 576.002 212.898C576.381 212.898 576.748 212.805 577.103 212.621C577.458 212.436 577.75 212.161 577.977 211.797C578.209 211.428 578.325 210.966 578.325 210.412ZM583.54 215V204.091H586.033V205.909H586.146C586.345 205.279 586.686 204.794 587.169 204.453C587.657 204.107 588.213 203.935 588.838 203.935C588.98 203.935 589.139 203.942 589.314 203.956C589.494 203.965 589.643 203.982 589.761 204.006V206.371C589.652 206.333 589.48 206.3 589.243 206.271C589.011 206.238 588.786 206.222 588.568 206.222C588.099 206.222 587.678 206.323 587.304 206.527C586.935 206.726 586.643 207.003 586.43 207.358C586.217 207.713 586.111 208.123 586.111 208.587V215H583.54ZM605.053 206.974L602.709 207.23C602.643 206.993 602.527 206.771 602.361 206.562C602.2 206.354 601.982 206.186 601.707 206.058C601.433 205.93 601.097 205.866 600.699 205.866C600.164 205.866 599.714 205.982 599.349 206.214C598.99 206.446 598.812 206.747 598.817 207.116C598.812 207.434 598.928 207.692 599.165 207.891C599.406 208.089 599.804 208.253 600.358 208.381L602.219 208.778C603.251 209.001 604.018 209.354 604.52 209.837C605.027 210.32 605.282 210.952 605.287 211.733C605.282 212.42 605.081 213.026 604.683 213.551C604.29 214.072 603.743 214.479 603.043 214.773C602.342 215.066 601.537 215.213 600.628 215.213C599.293 215.213 598.218 214.934 597.403 214.375C596.589 213.812 596.104 213.028 595.947 212.024L598.455 211.783C598.568 212.275 598.81 212.647 599.179 212.898C599.548 213.149 600.029 213.274 600.621 213.274C601.232 213.274 601.722 213.149 602.091 212.898C602.465 212.647 602.652 212.337 602.652 211.967C602.652 211.655 602.531 211.397 602.29 211.193C602.053 210.99 601.684 210.833 601.182 210.724L599.321 210.334C598.275 210.116 597.5 209.749 596.999 209.233C596.497 208.712 596.248 208.054 596.253 207.259C596.248 206.586 596.43 206.004 596.8 205.511C597.174 205.014 597.692 204.631 598.355 204.361C599.023 204.086 599.792 203.949 600.663 203.949C601.942 203.949 602.948 204.221 603.682 204.766C604.42 205.31 604.877 206.046 605.053 206.974ZM612.854 204.091V206.08H606.583V204.091H612.854ZM608.131 201.477H610.702V211.719C610.702 212.064 610.754 212.33 610.859 212.514C610.968 212.694 611.11 212.817 611.285 212.884C611.46 212.95 611.654 212.983 611.867 212.983C612.028 212.983 612.175 212.971 612.308 212.947C612.445 212.924 612.549 212.902 612.62 212.884L613.053 214.893C612.916 214.941 612.719 214.993 612.464 215.05C612.213 215.107 611.905 215.14 611.54 215.149C610.897 215.168 610.317 215.071 609.8 214.858C609.284 214.64 608.875 214.304 608.572 213.849C608.273 213.395 608.127 212.827 608.131 212.145V201.477ZM618.144 215.22C617.453 215.22 616.83 215.097 616.276 214.851C615.727 214.6 615.291 214.231 614.969 213.743C614.652 213.255 614.493 212.654 614.493 211.939C614.493 211.323 614.607 210.814 614.834 210.412C615.061 210.009 615.372 209.688 615.765 209.446C616.158 209.205 616.6 209.022 617.093 208.899C617.59 208.771 618.104 208.679 618.634 208.622C619.273 208.556 619.792 208.497 620.189 208.445C620.587 208.388 620.876 208.303 621.056 208.189C621.24 208.071 621.333 207.888 621.333 207.642V207.599C621.333 207.064 621.174 206.65 620.857 206.357C620.54 206.063 620.083 205.916 619.486 205.916C618.856 205.916 618.357 206.054 617.988 206.328C617.623 206.603 617.377 206.927 617.249 207.301L614.848 206.96C615.038 206.297 615.35 205.743 615.786 205.298C616.221 204.848 616.754 204.512 617.384 204.29C618.014 204.062 618.71 203.949 619.472 203.949C619.998 203.949 620.521 204.01 621.042 204.134C621.562 204.257 622.038 204.46 622.469 204.744C622.9 205.024 623.246 205.405 623.506 205.888C623.771 206.371 623.904 206.974 623.904 207.699V215H621.432V213.501H621.347C621.191 213.804 620.971 214.089 620.686 214.354C620.407 214.614 620.054 214.825 619.628 214.986C619.207 215.142 618.712 215.22 618.144 215.22ZM618.811 213.331C619.328 213.331 619.775 213.229 620.154 213.026C620.533 212.817 620.824 212.543 621.027 212.202C621.236 211.861 621.34 211.489 621.34 211.087V209.801C621.259 209.867 621.122 209.929 620.928 209.986C620.739 210.043 620.525 210.092 620.289 210.135C620.052 210.178 619.818 210.215 619.586 210.249C619.354 210.282 619.152 210.31 618.982 210.334C618.598 210.386 618.255 210.471 617.952 210.589C617.649 210.708 617.41 210.874 617.235 211.087C617.06 211.295 616.972 211.565 616.972 211.896C616.972 212.37 617.145 212.727 617.49 212.969C617.836 213.21 618.276 213.331 618.811 213.331ZM631.936 204.091V206.08H625.665V204.091H631.936ZM627.213 201.477H629.784V211.719C629.784 212.064 629.837 212.33 629.941 212.514C630.05 212.694 630.192 212.817 630.367 212.884C630.542 212.95 630.736 212.983 630.949 212.983C631.11 212.983 631.257 212.971 631.39 212.947C631.527 212.924 631.631 212.902 631.702 212.884L632.135 214.893C631.998 214.941 631.801 214.993 631.546 215.05C631.295 215.107 630.987 215.14 630.623 215.149C629.979 215.168 629.399 215.071 628.882 214.858C628.366 214.64 627.957 214.304 627.654 213.849C627.355 213.395 627.209 212.827 627.213 212.145V201.477ZM641.04 210.412V204.091H643.611V215H641.118V213.061H641.004C640.758 213.672 640.353 214.171 639.79 214.56C639.231 214.948 638.542 215.142 637.723 215.142C637.008 215.142 636.376 214.983 635.827 214.666C635.282 214.344 634.856 213.878 634.548 213.267C634.241 212.652 634.087 211.908 634.087 211.037V204.091H636.658V210.639C636.658 211.33 636.847 211.88 637.226 212.287C637.605 212.694 638.102 212.898 638.717 212.898C639.096 212.898 639.463 212.805 639.818 212.621C640.173 212.436 640.464 212.161 640.692 211.797C640.924 211.428 641.04 210.966 641.04 210.412ZM654.877 206.974L652.533 207.23C652.467 206.993 652.351 206.771 652.185 206.562C652.024 206.354 651.806 206.186 651.532 206.058C651.257 205.93 650.921 205.866 650.523 205.866C649.988 205.866 649.538 205.982 649.174 206.214C648.814 206.446 648.636 206.747 648.641 207.116C648.636 207.434 648.752 207.692 648.989 207.891C649.23 208.089 649.628 208.253 650.182 208.381L652.043 208.778C653.075 209.001 653.842 209.354 654.344 209.837C654.851 210.32 655.106 210.952 655.111 211.733C655.106 212.42 654.905 213.026 654.507 213.551C654.114 214.072 653.568 214.479 652.867 214.773C652.166 215.066 651.361 215.213 650.452 215.213C649.117 215.213 648.042 214.934 647.228 214.375C646.413 213.812 645.928 213.028 645.772 212.024L648.279 211.783C648.392 212.275 648.634 212.647 649.003 212.898C649.373 213.149 649.853 213.274 650.445 213.274C651.056 213.274 651.546 213.149 651.915 212.898C652.289 212.647 652.476 212.337 652.476 211.967C652.476 211.655 652.355 211.397 652.114 211.193C651.877 210.99 651.508 210.833 651.006 210.724L649.145 210.334C648.099 210.116 647.325 209.749 646.823 209.233C646.321 208.712 646.072 208.054 646.077 207.259C646.072 206.586 646.255 206.004 646.624 205.511C646.998 205.014 647.516 204.631 648.179 204.361C648.847 204.086 649.616 203.949 650.488 203.949C651.766 203.949 652.772 204.221 653.506 204.766C654.245 205.31 654.702 206.046 654.877 206.974ZM666.936 219.318C666.013 219.318 665.22 219.193 664.557 218.942C663.894 218.696 663.362 218.364 662.959 217.947C662.557 217.531 662.277 217.069 662.121 216.562L664.436 216.001C664.541 216.214 664.692 216.425 664.891 216.634C665.09 216.847 665.357 217.022 665.694 217.159C666.034 217.301 666.463 217.372 666.979 217.372C667.708 217.372 668.312 217.195 668.79 216.839C669.268 216.489 669.507 215.911 669.507 215.107V213.04H669.38C669.247 213.305 669.053 213.577 668.797 213.857C668.546 214.136 668.212 214.37 667.796 214.56C667.384 214.749 666.865 214.844 666.24 214.844C665.402 214.844 664.642 214.647 663.961 214.254C663.283 213.857 662.744 213.265 662.341 212.479C661.944 211.688 661.745 210.698 661.745 209.51C661.745 208.312 661.944 207.301 662.341 206.477C662.744 205.649 663.286 205.021 663.968 204.595C664.65 204.164 665.409 203.949 666.248 203.949C666.887 203.949 667.412 204.058 667.824 204.276C668.241 204.489 668.572 204.747 668.819 205.05C669.065 205.348 669.252 205.63 669.38 205.895H669.522V204.091H672.057V215.178C672.057 216.11 671.835 216.882 671.39 217.493C670.944 218.104 670.336 218.561 669.564 218.864C668.792 219.167 667.917 219.318 666.936 219.318ZM666.958 212.827C667.502 212.827 667.966 212.694 668.35 212.429C668.733 212.164 669.025 211.783 669.223 211.286C669.422 210.788 669.522 210.192 669.522 209.496C669.522 208.809 669.422 208.208 669.223 207.692C669.029 207.176 668.74 206.776 668.357 206.491C667.978 206.203 667.512 206.058 666.958 206.058C666.385 206.058 665.907 206.207 665.523 206.506C665.14 206.804 664.851 207.214 664.657 207.734C664.462 208.25 664.365 208.838 664.365 209.496C664.365 210.163 664.462 210.748 664.657 211.25C664.855 211.747 665.147 212.135 665.53 212.415C665.918 212.689 666.394 212.827 666.958 212.827ZM679.451 215.213C678.385 215.213 677.462 214.979 676.681 214.51C675.9 214.041 675.293 213.385 674.863 212.543C674.436 211.7 674.223 210.715 674.223 209.588C674.223 208.461 674.436 207.474 674.863 206.626C675.293 205.779 675.9 205.121 676.681 204.652C677.462 204.183 678.385 203.949 679.451 203.949C680.516 203.949 681.439 204.183 682.221 204.652C683.002 205.121 683.605 205.779 684.032 206.626C684.462 207.474 684.678 208.461 684.678 209.588C684.678 210.715 684.462 211.7 684.032 212.543C683.605 213.385 683.002 214.041 682.221 214.51C681.439 214.979 680.516 215.213 679.451 215.213ZM679.465 213.153C680.042 213.153 680.525 212.995 680.914 212.678C681.302 212.356 681.591 211.925 681.78 211.385C681.974 210.845 682.071 210.244 682.071 209.581C682.071 208.913 681.974 208.31 681.78 207.77C681.591 207.225 681.302 206.792 680.914 206.47C680.525 206.148 680.042 205.987 679.465 205.987C678.873 205.987 678.381 206.148 677.988 206.47C677.599 206.792 677.308 207.225 677.114 207.77C676.925 208.31 676.83 208.913 676.83 209.581C676.83 210.244 676.925 210.845 677.114 211.385C677.308 211.925 677.599 212.356 677.988 212.678C678.381 212.995 678.873 213.153 679.465 213.153ZM696.864 215H691.935V200.455H696.963C698.407 200.455 699.648 200.746 700.685 201.328C701.726 201.906 702.527 202.737 703.085 203.821C703.644 204.905 703.923 206.203 703.923 207.713C703.923 209.228 703.642 210.53 703.078 211.619C702.519 212.708 701.712 213.544 700.656 214.126C699.605 214.709 698.341 215 696.864 215ZM694.57 212.72H696.736C697.749 212.72 698.594 212.536 699.271 212.166C699.948 211.792 700.457 211.236 700.798 210.497C701.139 209.754 701.31 208.826 701.31 207.713C701.31 206.6 701.139 205.677 700.798 204.943C700.457 204.205 699.953 203.653 699.286 203.288C698.623 202.919 697.799 202.734 696.814 202.734H694.57V212.72ZM709.452 215.22C708.761 215.22 708.138 215.097 707.585 214.851C707.035 214.6 706.6 214.231 706.278 213.743C705.96 213.255 705.802 212.654 705.802 211.939C705.802 211.323 705.915 210.814 706.143 210.412C706.37 210.009 706.68 209.688 707.073 209.446C707.466 209.205 707.909 209.022 708.401 208.899C708.898 208.771 709.412 208.679 709.942 208.622C710.582 208.556 711.1 208.497 711.498 208.445C711.896 208.388 712.184 208.303 712.364 208.189C712.549 208.071 712.641 207.888 712.641 207.642V207.599C712.641 207.064 712.483 206.65 712.165 206.357C711.848 206.063 711.391 205.916 710.795 205.916C710.165 205.916 709.665 206.054 709.296 206.328C708.932 206.603 708.685 206.927 708.558 207.301L706.157 206.96C706.346 206.297 706.659 205.743 707.094 205.298C707.53 204.848 708.063 204.512 708.692 204.29C709.322 204.062 710.018 203.949 710.781 203.949C711.306 203.949 711.829 204.01 712.35 204.134C712.871 204.257 713.347 204.46 713.778 204.744C714.209 205.024 714.554 205.405 714.815 205.888C715.08 206.371 715.212 206.974 715.212 207.699V215H712.741V213.501H712.656C712.499 213.804 712.279 214.089 711.995 214.354C711.716 214.614 711.363 214.825 710.937 214.986C710.515 215.142 710.021 215.22 709.452 215.22ZM710.12 213.331C710.636 213.331 711.084 213.229 711.462 213.026C711.841 212.817 712.132 212.543 712.336 212.202C712.544 211.861 712.648 211.489 712.648 211.087V209.801C712.568 209.867 712.431 209.929 712.237 209.986C712.047 210.043 711.834 210.092 711.597 210.135C711.361 210.178 711.126 210.215 710.894 210.249C710.662 210.282 710.461 210.31 710.29 210.334C709.907 210.386 709.564 210.471 709.261 210.589C708.958 210.708 708.719 210.874 708.543 211.087C708.368 211.295 708.281 211.565 708.281 211.896C708.281 212.37 708.453 212.727 708.799 212.969C709.145 213.21 709.585 213.331 710.12 213.331ZM720.369 208.608V215H717.798V204.091H720.255V205.945H720.383C720.634 205.334 721.034 204.848 721.583 204.489C722.137 204.129 722.821 203.949 723.636 203.949C724.388 203.949 725.044 204.11 725.603 204.432C726.166 204.754 726.602 205.22 726.91 205.831C727.222 206.442 727.376 207.183 727.371 208.054V215H724.8V208.452C724.8 207.723 724.611 207.152 724.232 206.74C723.858 206.328 723.34 206.122 722.677 206.122C722.227 206.122 721.827 206.222 721.477 206.42C721.131 206.615 720.859 206.896 720.66 207.266C720.466 207.635 720.369 208.082 720.369 208.608ZM734.729 219.318C733.806 219.318 733.013 219.193 732.35 218.942C731.687 218.696 731.155 218.364 730.752 217.947C730.35 217.531 730.07 217.069 729.914 216.562L732.229 216.001C732.334 216.214 732.485 216.425 732.684 216.634C732.883 216.847 733.15 217.022 733.487 217.159C733.827 217.301 734.256 217.372 734.772 217.372C735.501 217.372 736.105 217.195 736.583 216.839C737.061 216.489 737.3 215.911 737.3 215.107V213.04H737.173C737.04 213.305 736.846 213.577 736.59 213.857C736.339 214.136 736.005 214.37 735.589 214.56C735.177 214.749 734.658 214.844 734.033 214.844C733.195 214.844 732.435 214.647 731.754 214.254C731.076 213.857 730.537 213.265 730.134 212.479C729.737 211.688 729.538 210.698 729.538 209.51C729.538 208.312 729.737 207.301 730.134 206.477C730.537 205.649 731.079 205.021 731.761 204.595C732.442 204.164 733.202 203.949 734.04 203.949C734.68 203.949 735.205 204.058 735.617 204.276C736.034 204.489 736.365 204.747 736.612 205.05C736.858 205.348 737.045 205.63 737.173 205.895H737.315V204.091H739.85V215.178C739.85 216.11 739.628 216.882 739.183 217.493C738.737 218.104 738.129 218.561 737.357 218.864C736.585 219.167 735.71 219.318 734.729 219.318ZM734.751 212.827C735.295 212.827 735.759 212.694 736.143 212.429C736.526 212.164 736.817 211.783 737.016 211.286C737.215 210.788 737.315 210.192 737.315 209.496C737.315 208.809 737.215 208.208 737.016 207.692C736.822 207.176 736.533 206.776 736.15 206.491C735.771 206.203 735.305 206.058 734.751 206.058C734.178 206.058 733.7 206.207 733.316 206.506C732.933 206.804 732.644 207.214 732.45 207.734C732.255 208.25 732.158 208.838 732.158 209.496C732.158 210.163 732.255 210.748 732.45 211.25C732.648 211.747 732.94 212.135 733.323 212.415C733.711 212.689 734.187 212.827 734.751 212.827ZM744.069 215.156C743.638 215.156 743.269 215.005 742.961 214.702C742.653 214.399 742.502 214.029 742.506 213.594C742.502 213.168 742.653 212.803 742.961 212.5C743.269 212.197 743.638 212.045 744.069 212.045C744.486 212.045 744.848 212.197 745.156 212.5C745.468 212.803 745.627 213.168 745.631 213.594C745.627 213.883 745.551 214.145 745.404 214.382C745.262 214.619 745.073 214.808 744.836 214.95C744.604 215.088 744.348 215.156 744.069 215.156ZM749.87 215.156C749.439 215.156 749.069 215.005 748.762 214.702C748.454 214.399 748.302 214.029 748.307 213.594C748.302 213.168 748.454 212.803 748.762 212.5C749.069 212.197 749.439 212.045 749.87 212.045C750.286 212.045 750.649 212.197 750.956 212.5C751.269 212.803 751.427 213.168 751.432 213.594C751.427 213.883 751.352 214.145 751.205 214.382C751.063 214.619 750.873 214.808 750.637 214.95C750.405 215.088 750.149 215.156 749.87 215.156Z" fill="black"/>
<rect x="-198.75" y="504.25" width="553.5" height="255.5" rx="26.75" fill="white" stroke="black" stroke-width="2.5"/>
<rect x="1101.25" y="-127.75" width="553.5" height="255.5" rx="26.75" fill="white" stroke="black" stroke-width="2.5"/>
<rect x="254.25" y="-199.75" width="553.5" height="255.5" rx="26.75" fill="white" stroke="black" stroke-width="2.5"/>
</g>
<defs>
<clipPath id="clip0_1_2">
<rect width="1240" height="743" fill="white"/>
</clipPath>
</defs>
</svg>
