<svg width="1240" height="743" viewBox="0 0 1240 743" fill="none" xmlns="http://www.w3.org/2000/svg">
<g clip-path="url(#clip0_8_2)">
<rect width="1240" height="743" fill="white"/>
<path d="M519.882 96.1602C519.719 94.6405 519.035 93.4573 517.828 92.6104C516.634 91.7636 515.079 91.3402 513.165 91.3402C511.819 91.3402 510.665 91.5432 509.702 91.9492C508.74 92.3552 508.003 92.9062 507.493 93.6023C506.982 94.2983 506.721 95.0929 506.71 95.9862C506.71 96.7286 506.878 97.3724 507.214 97.9176C507.562 98.4628 508.032 98.9268 508.624 99.3097C509.215 99.6809 509.871 99.9941 510.59 100.249C511.309 100.504 512.034 100.719 512.765 100.893L516.106 101.728C517.451 102.042 518.745 102.465 519.986 102.999C521.239 103.532 522.358 104.205 523.344 105.017C524.342 105.829 525.131 106.809 525.711 107.958C526.291 109.106 526.581 110.452 526.581 111.995C526.581 114.083 526.047 115.921 524.98 117.511C523.913 119.088 522.37 120.324 520.352 121.217C518.345 122.099 515.914 122.539 513.061 122.539C510.288 122.539 507.881 122.11 505.839 121.252C503.809 120.393 502.22 119.141 501.072 117.493C499.935 115.846 499.32 113.839 499.227 111.473H505.578C505.671 112.714 506.054 113.746 506.727 114.57C507.4 115.394 508.276 116.008 509.354 116.414C510.445 116.82 511.663 117.023 513.009 117.023C514.412 117.023 515.642 116.815 516.697 116.397C517.765 115.968 518.6 115.376 519.203 114.622C519.806 113.857 520.114 112.963 520.125 111.942C520.114 111.014 519.841 110.249 519.308 109.646C518.774 109.031 518.026 108.52 517.063 108.114C516.112 107.697 514.998 107.326 513.722 107.001L509.668 105.957C506.733 105.203 504.413 104.06 502.707 102.529C501.014 100.986 500.167 98.9384 500.167 96.3864C500.167 94.2867 500.735 92.448 501.872 90.8704C503.021 89.2927 504.581 88.0689 506.553 87.1989C508.525 86.3172 510.758 85.8764 513.252 85.8764C515.781 85.8764 517.997 86.3172 519.899 87.1989C521.813 88.0689 523.315 89.2811 524.406 90.8356C525.496 92.3784 526.059 94.1533 526.094 96.1602H519.882ZM530.77 91.7752V86.3636H559.203V91.7752H548.188V122H541.785V91.7752H530.77ZM564.954 122H558.063L570.609 86.3636H578.578L591.141 122H584.251L574.733 93.6719H574.454L564.954 122ZM565.18 108.027H583.972V113.213H565.18V108.027ZM589.963 91.7752V86.3636H618.395V91.7752H607.381V122H600.977V91.7752H589.963ZM623.876 86.3636H631.776L642.356 112.186H642.773L653.353 86.3636H661.253V122H655.058V97.5174H654.727L644.879 121.896H640.25L630.401 97.4652H630.071V122H623.876V86.3636ZM672.859 122H665.968L678.514 86.3636H686.483L699.047 122H692.156L682.638 93.6719H682.36L672.859 122ZM673.085 108.027H691.878V113.213H673.085V108.027ZM733.026 86.3636V122H727.283L710.492 97.7262H710.196V122H703.741V86.3636H709.517L726.292 110.655H726.605V86.3636H733.026Z" fill="black"/>
<path d="M553.496 171L549.391 156.455H552.224L554.845 167.143H554.98L557.778 156.455H560.357L563.162 167.151H563.29L565.911 156.455H568.744L564.639 171H562.04L559.128 160.794H559.014L556.095 171H553.496ZM574.103 171.213C573.038 171.213 572.114 170.979 571.333 170.51C570.552 170.041 569.946 169.385 569.515 168.543C569.089 167.7 568.876 166.715 568.876 165.588C568.876 164.461 569.089 163.474 569.515 162.626C569.946 161.779 570.552 161.121 571.333 160.652C572.114 160.183 573.038 159.949 574.103 159.949C575.168 159.949 576.092 160.183 576.873 160.652C577.654 161.121 578.258 161.779 578.684 162.626C579.115 163.474 579.33 164.461 579.33 165.588C579.33 166.715 579.115 167.7 578.684 168.543C578.258 169.385 577.654 170.041 576.873 170.51C576.092 170.979 575.168 171.213 574.103 171.213ZM574.117 169.153C574.695 169.153 575.178 168.995 575.566 168.678C575.954 168.356 576.243 167.925 576.433 167.385C576.627 166.845 576.724 166.244 576.724 165.581C576.724 164.913 576.627 164.31 576.433 163.77C576.243 163.225 575.954 162.792 575.566 162.47C575.178 162.148 574.695 161.987 574.117 161.987C573.525 161.987 573.033 162.148 572.64 162.47C572.252 162.792 571.96 163.225 571.766 163.77C571.577 164.31 571.482 164.913 571.482 165.581C571.482 166.244 571.577 166.845 571.766 167.385C571.96 167.925 572.252 168.356 572.64 168.678C573.033 168.995 573.525 169.153 574.117 169.153ZM581.512 171V160.091H584.005V161.909H584.119C584.318 161.279 584.659 160.794 585.142 160.453C585.629 160.107 586.186 159.935 586.811 159.935C586.953 159.935 587.111 159.942 587.287 159.956C587.467 159.965 587.616 159.982 587.734 160.006V162.371C587.625 162.333 587.452 162.3 587.216 162.271C586.984 162.238 586.759 162.222 586.541 162.222C586.072 162.222 585.651 162.323 585.277 162.527C584.907 162.726 584.616 163.003 584.403 163.358C584.19 163.713 584.083 164.123 584.083 164.587V171H581.512ZM593.041 171.192C592.184 171.192 591.417 170.972 590.74 170.531C590.063 170.091 589.528 169.452 589.135 168.614C588.742 167.776 588.545 166.758 588.545 165.56C588.545 164.348 588.744 163.325 589.142 162.491C589.545 161.653 590.087 161.021 590.768 160.595C591.45 160.164 592.21 159.949 593.048 159.949C593.688 159.949 594.213 160.058 594.625 160.276C595.037 160.489 595.364 160.747 595.605 161.05C595.847 161.348 596.034 161.63 596.166 161.895H596.273V156.455H598.851V171H596.322V169.281H596.166C596.034 169.546 595.842 169.828 595.591 170.126C595.34 170.42 595.009 170.671 594.597 170.879C594.185 171.088 593.666 171.192 593.041 171.192ZM593.759 169.082C594.303 169.082 594.767 168.936 595.151 168.642C595.534 168.344 595.825 167.929 596.024 167.399C596.223 166.869 596.322 166.251 596.322 165.545C596.322 164.84 596.223 164.227 596.024 163.706C595.83 163.185 595.541 162.78 595.158 162.491C594.779 162.203 594.313 162.058 593.759 162.058C593.186 162.058 592.707 162.207 592.324 162.506C591.94 162.804 591.652 163.216 591.457 163.741C591.263 164.267 591.166 164.868 591.166 165.545C591.166 166.227 591.263 166.836 591.457 167.371C591.656 167.901 591.947 168.32 592.331 168.628C592.719 168.931 593.195 169.082 593.759 169.082ZM606.665 171V156.455H612.233C613.284 156.455 614.158 156.62 614.854 156.952C615.555 157.278 616.078 157.726 616.424 158.294C616.774 158.862 616.949 159.506 616.949 160.226C616.949 160.818 616.836 161.324 616.608 161.746C616.381 162.162 616.076 162.501 615.692 162.761C615.309 163.022 614.88 163.209 614.407 163.322V163.464C614.923 163.493 615.417 163.652 615.891 163.94C616.369 164.224 616.76 164.627 617.063 165.148C617.366 165.669 617.517 166.298 617.517 167.037C617.517 167.79 617.335 168.467 616.971 169.068C616.606 169.665 616.057 170.136 615.323 170.482C614.589 170.827 613.666 171 612.553 171H606.665ZM609.3 168.798H612.134C613.09 168.798 613.779 168.616 614.201 168.251C614.627 167.882 614.84 167.409 614.84 166.831C614.84 166.4 614.733 166.012 614.52 165.666C614.307 165.316 614.004 165.041 613.611 164.842C613.218 164.639 612.749 164.537 612.205 164.537H609.3V168.798ZM609.3 162.641H611.907C612.361 162.641 612.771 162.558 613.135 162.392C613.5 162.222 613.786 161.982 613.995 161.675C614.208 161.362 614.314 160.993 614.314 160.567C614.314 160.003 614.115 159.539 613.718 159.175C613.325 158.81 612.74 158.628 611.963 158.628H609.3V162.641ZM621.294 175.091C620.944 175.091 620.619 175.063 620.321 175.006C620.027 174.954 619.793 174.892 619.618 174.821L620.214 172.818C620.589 172.927 620.922 172.979 621.216 172.974C621.509 172.97 621.768 172.877 621.99 172.697C622.217 172.522 622.409 172.229 622.565 171.817L622.786 171.227L618.83 160.091H621.557L624.071 168.33H624.185L626.706 160.091H629.44L625.072 172.321C624.869 172.899 624.599 173.393 624.263 173.805C623.927 174.222 623.515 174.539 623.027 174.757C622.544 174.98 621.966 175.091 621.294 175.091ZM639.355 171L635.25 156.455H638.084L640.705 167.143H640.839L643.638 156.455H646.216L649.021 167.151H649.149L651.77 156.455H654.604L650.499 171H647.899L644.987 160.794H644.874L641.955 171H639.355ZM659.962 171.213C658.897 171.213 657.974 170.979 657.192 170.51C656.411 170.041 655.805 169.385 655.374 168.543C654.948 167.7 654.735 166.715 654.735 165.588C654.735 164.461 654.948 163.474 655.374 162.626C655.805 161.779 656.411 161.121 657.192 160.652C657.974 160.183 658.897 159.949 659.962 159.949C661.028 159.949 661.951 160.183 662.732 160.652C663.513 161.121 664.117 161.779 664.543 162.626C664.974 163.474 665.19 164.461 665.19 165.588C665.19 166.715 664.974 167.7 664.543 168.543C664.117 169.385 663.513 170.041 662.732 170.51C661.951 170.979 661.028 171.213 659.962 171.213ZM659.977 169.153C660.554 169.153 661.037 168.995 661.425 168.678C661.814 168.356 662.103 167.925 662.292 167.385C662.486 166.845 662.583 166.244 662.583 165.581C662.583 164.913 662.486 164.31 662.292 163.77C662.103 163.225 661.814 162.792 661.425 162.47C661.037 162.148 660.554 161.987 659.977 161.987C659.385 161.987 658.892 162.148 658.499 162.47C658.111 162.792 657.82 163.225 657.626 163.77C657.436 164.31 657.342 164.913 657.342 165.581C657.342 166.244 657.436 166.845 657.626 167.385C657.82 167.925 658.111 168.356 658.499 168.678C658.892 168.995 659.385 169.153 659.977 169.153ZM667.372 171V160.091H669.865V161.909H669.978C670.177 161.279 670.518 160.794 671.001 160.453C671.489 160.107 672.045 159.935 672.67 159.935C672.812 159.935 672.971 159.942 673.146 159.956C673.326 159.965 673.475 159.982 673.593 160.006V162.371C673.484 162.333 673.312 162.3 673.075 162.271C672.843 162.238 672.618 162.222 672.4 162.222C671.931 162.222 671.51 162.323 671.136 162.527C670.767 162.726 670.475 163.003 670.262 163.358C670.049 163.713 669.943 164.123 669.943 164.587V171H667.372ZM678.901 171.192C678.044 171.192 677.277 170.972 676.599 170.531C675.922 170.091 675.387 169.452 674.994 168.614C674.601 167.776 674.405 166.758 674.405 165.56C674.405 164.348 674.604 163.325 675.001 162.491C675.404 161.653 675.946 161.021 676.628 160.595C677.31 160.164 678.07 159.949 678.908 159.949C679.547 159.949 680.072 160.058 680.484 160.276C680.896 160.489 681.223 160.747 681.464 161.05C681.706 161.348 681.893 161.63 682.026 161.895H682.132V156.455H684.71V171H682.182V169.281H682.026C681.893 169.546 681.701 169.828 681.45 170.126C681.199 170.42 680.868 170.671 680.456 170.879C680.044 171.088 679.526 171.192 678.901 171.192ZM679.618 169.082C680.162 169.082 680.626 168.936 681.01 168.642C681.393 168.344 681.685 167.929 681.884 167.399C682.082 166.869 682.182 166.251 682.182 165.545C682.182 164.84 682.082 164.227 681.884 163.706C681.689 163.185 681.401 162.78 681.017 162.491C680.638 162.203 680.172 162.058 679.618 162.058C679.045 162.058 678.567 162.207 678.183 162.506C677.8 162.804 677.511 163.216 677.317 163.741C677.123 164.267 677.026 164.868 677.026 165.545C677.026 166.227 677.123 166.836 677.317 167.371C677.516 167.901 677.807 168.32 678.19 168.628C678.579 168.931 679.054 169.082 679.618 169.082Z" fill="black"/>
<rect x="-198.75" y="504.25" width="553.5" height="255.5" rx="26.75" fill="white" stroke="black" stroke-width="2.5"/>
<rect x="1101.25" y="-127.75" width="553.5" height="255.5" rx="26.75" fill="white" stroke="black" stroke-width="2.5"/>
<rect x="254.25" y="-199.75" width="1672.5" height="255.5" rx="26.75" fill="white" stroke="black" stroke-width="2.5"/>
</g>
<defs>
<clipPath id="clip0_8_2">
<rect width="1240" height="743" fill="white"/>
</clipPath>
</defs>
</svg>
