<svg width="1240" height="743" viewBox="0 0 1240 743" fill="none" xmlns="http://www.w3.org/2000/svg">
<g clip-path="url(#clip0_9_35)">
<rect width="1240" height="743" fill="white"/>
<path d="M519.882 96.1602C519.719 94.6405 519.035 93.4573 517.828 92.6104C516.634 91.7636 515.079 91.3402 513.165 91.3402C511.819 91.3402 510.665 91.5432 509.702 91.9492C508.74 92.3552 508.003 92.9062 507.493 93.6023C506.982 94.2983 506.721 95.0929 506.71 95.9862C506.71 96.7286 506.878 97.3724 507.214 97.9176C507.562 98.4628 508.032 98.9268 508.624 99.3097C509.215 99.6809 509.871 99.9941 510.59 100.249C511.309 100.504 512.034 100.719 512.765 100.893L516.106 101.728C517.451 102.042 518.745 102.465 519.986 102.999C521.239 103.532 522.358 104.205 523.344 105.017C524.342 105.829 525.131 106.809 525.711 107.958C526.291 109.106 526.581 110.452 526.581 111.995C526.581 114.083 526.047 115.921 524.98 117.511C523.913 119.088 522.37 120.324 520.352 121.217C518.345 122.099 515.914 122.539 513.061 122.539C510.288 122.539 507.881 122.11 505.839 121.252C503.809 120.393 502.22 119.141 501.072 117.493C499.935 115.846 499.32 113.839 499.227 111.473H505.578C505.671 112.714 506.054 113.746 506.727 114.57C507.4 115.394 508.276 116.008 509.354 116.414C510.445 116.82 511.663 117.023 513.009 117.023C514.412 117.023 515.642 116.815 516.697 116.397C517.765 115.968 518.6 115.376 519.203 114.622C519.806 113.857 520.114 112.963 520.125 111.942C520.114 111.014 519.841 110.249 519.308 109.646C518.774 109.031 518.026 108.52 517.063 108.114C516.112 107.697 514.998 107.326 513.722 107.001L509.668 105.957C506.733 105.203 504.413 104.06 502.707 102.529C501.014 100.986 500.167 98.9384 500.167 96.3864C500.167 94.2867 500.735 92.448 501.872 90.8704C503.021 89.2927 504.581 88.0689 506.553 87.1989C508.525 86.3172 510.758 85.8764 513.252 85.8764C515.781 85.8764 517.997 86.3172 519.899 87.1989C521.813 88.0689 523.315 89.2811 524.406 90.8356C525.496 92.3784 526.059 94.1533 526.094 96.1602H519.882ZM530.77 91.7752V86.3636H559.203V91.7752H548.188V122H541.785V91.7752H530.77ZM564.954 122H558.063L570.609 86.3636H578.578L591.141 122H584.251L574.733 93.6719H574.454L564.954 122ZM565.18 108.027H583.972V113.213H565.18V108.027ZM589.963 91.7752V86.3636H618.395V91.7752H607.381V122H600.977V91.7752H589.963ZM623.876 86.3636H631.776L642.356 112.186H642.773L653.353 86.3636H661.253V122H655.058V97.5174H654.727L644.879 121.896H640.25L630.401 97.4652H630.071V122H623.876V86.3636ZM672.859 122H665.968L678.514 86.3636H686.483L699.047 122H692.156L682.638 93.6719H682.36L672.859 122ZM673.085 108.027H691.878V113.213H673.085V108.027ZM733.026 86.3636V122H727.283L710.492 97.7262H710.196V122H703.741V86.3636H709.517L726.292 110.655H726.605V86.3636H733.026Z" fill="#FF7373"/>
<rect x="-198.75" y="504.25" width="553.5" height="255.5" rx="26.75" fill="white" stroke="#FF7373" stroke-width="2.5"/>
<rect x="343.25" y="181.25" width="553.5" height="255.5" rx="26.75" fill="white" stroke="#FF7373" stroke-width="2.5"/>
<rect x="1101.25" y="-127.75" width="553.5" height="255.5" rx="26.75" fill="white" stroke="#FF7373" stroke-width="2.5"/>
<rect x="254.25" y="-199.75" width="1672.5" height="255.5" rx="26.75" fill="white" stroke="#FF7373" stroke-width="2.5"/>
<path d="M379.152 240V218.182H393.342V221.495H383.104V227.418H392.607V230.732H383.104V236.687H393.428V240H379.152ZM397.375 240V218.182H405.556C407.233 218.182 408.639 218.473 409.775 219.055C410.919 219.638 411.782 220.455 412.364 221.506C412.953 222.55 413.248 223.768 413.248 225.16C413.248 226.559 412.95 227.773 412.353 228.803C411.764 229.826 410.894 230.618 409.743 231.179C408.593 231.733 407.179 232.01 405.503 232.01H399.676V228.729H404.971C405.951 228.729 406.753 228.594 407.378 228.324C408.003 228.047 408.465 227.646 408.763 227.12C409.069 226.587 409.221 225.934 409.221 225.16C409.221 224.386 409.069 223.725 408.763 223.178C408.458 222.624 407.993 222.205 407.368 221.921C406.743 221.63 405.936 221.484 404.949 221.484H401.327V240H397.375ZM408.646 230.114L414.047 240H409.637L404.331 230.114H408.646ZM416.886 240V218.182H425.068C426.744 218.182 428.151 218.473 429.287 219.055C430.43 219.638 431.293 220.455 431.876 221.506C432.465 222.55 432.76 223.768 432.76 225.16C432.76 226.559 432.462 227.773 431.865 228.803C431.276 229.826 430.406 230.618 429.255 231.179C428.104 231.733 426.691 232.01 425.015 232.01H419.188V228.729H424.482C425.462 228.729 426.265 228.594 426.89 228.324C427.515 228.047 427.977 227.646 428.275 227.12C428.58 226.587 428.733 225.934 428.733 225.16C428.733 224.386 428.58 223.725 428.275 223.178C427.969 222.624 427.504 222.205 426.879 221.921C426.254 221.63 425.448 221.484 424.461 221.484H420.839V240H416.886ZM428.158 230.114L433.559 240H429.148L423.843 230.114H428.158ZM455.894 229.091C455.894 231.442 455.453 233.455 454.573 235.131C453.699 236.8 452.506 238.079 450.993 238.967C449.488 239.854 447.779 240.298 445.869 240.298C443.958 240.298 442.247 239.854 440.734 238.967C439.228 238.072 438.035 236.79 437.154 235.121C436.281 233.445 435.844 231.435 435.844 229.091C435.844 226.74 436.281 224.73 437.154 223.061C438.035 221.385 439.228 220.103 440.734 219.215C442.247 218.327 443.958 217.884 445.869 217.884C447.779 217.884 449.488 218.327 450.993 219.215C452.506 220.103 453.699 221.385 454.573 223.061C455.453 224.73 455.894 226.74 455.894 229.091ZM451.92 229.091C451.92 227.436 451.661 226.04 451.142 224.904C450.631 223.761 449.921 222.898 449.012 222.315C448.103 221.726 447.055 221.431 445.869 221.431C444.683 221.431 443.635 221.726 442.726 222.315C441.817 222.898 441.103 223.761 440.585 224.904C440.074 226.04 439.818 227.436 439.818 229.091C439.818 230.746 440.074 232.145 440.585 233.288C441.103 234.425 441.817 235.288 442.726 235.877C443.635 236.46 444.683 236.751 445.869 236.751C447.055 236.751 448.103 236.46 449.012 235.877C449.921 235.288 450.631 234.425 451.142 233.288C451.661 232.145 451.92 230.746 451.92 229.091ZM459.631 240V218.182H467.812C469.488 218.182 470.895 218.473 472.031 219.055C473.175 219.638 474.037 220.455 474.62 221.506C475.209 222.55 475.504 223.768 475.504 225.16C475.504 226.559 475.206 227.773 474.609 228.803C474.02 229.826 473.15 230.618 471.999 231.179C470.849 231.733 469.435 232.01 467.759 232.01H461.932V228.729H467.226C468.206 228.729 469.009 228.594 469.634 228.324C470.259 228.047 470.721 227.646 471.019 227.12C471.324 226.587 471.477 225.934 471.477 225.16C471.477 224.386 471.324 223.725 471.019 223.178C470.714 222.624 470.248 222.205 469.623 221.921C468.998 221.63 468.192 221.484 467.205 221.484H463.583V240H459.631ZM470.902 230.114L476.303 240H471.893L466.587 230.114H470.902ZM496.331 227.504V230.678H486.509V227.504H496.331ZM515.851 240.415C514.097 240.415 512.591 239.972 511.334 239.084C510.084 238.189 509.122 236.9 508.447 235.217C507.779 233.526 507.446 231.491 507.446 229.112C507.453 226.733 507.79 224.709 508.458 223.04C509.132 221.364 510.095 220.085 511.345 219.205C512.602 218.324 514.104 217.884 515.851 217.884C517.598 217.884 519.1 218.324 520.358 219.205C521.615 220.085 522.577 221.364 523.245 223.04C523.919 224.716 524.257 226.74 524.257 229.112C524.257 231.499 523.919 233.537 523.245 235.227C522.577 236.911 521.615 238.196 520.358 239.084C519.108 239.972 517.605 240.415 515.851 240.415ZM515.851 237.081C517.215 237.081 518.291 236.41 519.079 235.067C519.875 233.718 520.272 231.733 520.272 229.112C520.272 227.379 520.091 225.923 519.729 224.744C519.367 223.565 518.855 222.678 518.195 222.081C517.534 221.477 516.753 221.175 515.851 221.175C514.495 221.175 513.422 221.85 512.634 223.2C511.846 224.542 511.448 226.513 511.441 229.112C511.434 230.852 511.608 232.315 511.963 233.501C512.325 234.687 512.836 235.582 513.497 236.186C514.157 236.783 514.942 237.081 515.851 237.081Z" fill="#FF6363"/>
<path d="M377.795 281.663V279.455H389.401V281.663H384.905V294H382.291V281.663H377.795ZM394.095 287.608V294H391.524V279.455H394.038V284.945H394.166C394.422 284.329 394.817 283.844 395.352 283.489C395.892 283.129 396.579 282.949 397.412 282.949C398.17 282.949 398.83 283.107 399.393 283.425C399.957 283.742 400.393 284.206 400.7 284.817C401.013 285.428 401.169 286.173 401.169 287.054V294H398.598V287.452C398.598 286.718 398.409 286.147 398.03 285.74C397.656 285.328 397.13 285.122 396.453 285.122C395.999 285.122 395.591 285.222 395.232 285.42C394.876 285.615 394.597 285.896 394.393 286.266C394.195 286.635 394.095 287.082 394.095 287.608ZM403.79 294V283.091H406.361V294H403.79ZM405.082 281.543C404.675 281.543 404.325 281.408 404.031 281.138C403.738 280.863 403.591 280.534 403.591 280.151C403.591 279.762 403.738 279.433 404.031 279.163C404.325 278.889 404.675 278.751 405.082 278.751C405.494 278.751 405.845 278.889 406.134 279.163C406.427 279.433 406.574 279.762 406.574 280.151C406.574 280.534 406.427 280.863 406.134 281.138C405.845 281.408 405.494 281.543 405.082 281.543ZM417.627 285.974L415.283 286.23C415.217 285.993 415.101 285.771 414.935 285.562C414.774 285.354 414.556 285.186 414.282 285.058C414.007 284.93 413.671 284.866 413.273 284.866C412.738 284.866 412.288 284.982 411.924 285.214C411.564 285.446 411.386 285.747 411.391 286.116C411.386 286.434 411.502 286.692 411.739 286.891C411.98 287.089 412.378 287.253 412.932 287.381L414.793 287.778C415.825 288.001 416.592 288.354 417.094 288.837C417.601 289.32 417.856 289.952 417.861 290.733C417.856 291.42 417.655 292.026 417.257 292.551C416.864 293.072 416.318 293.479 415.617 293.773C414.916 294.066 414.111 294.213 413.202 294.213C411.867 294.213 410.792 293.934 409.978 293.375C409.163 292.812 408.678 292.028 408.522 291.024L411.029 290.783C411.142 291.275 411.384 291.647 411.753 291.898C412.123 292.149 412.603 292.274 413.195 292.274C413.806 292.274 414.296 292.149 414.665 291.898C415.039 291.647 415.226 291.337 415.226 290.967C415.226 290.655 415.105 290.397 414.864 290.193C414.627 289.99 414.258 289.833 413.756 289.724L411.895 289.334C410.849 289.116 410.075 288.749 409.573 288.233C409.071 287.712 408.822 287.054 408.827 286.259C408.822 285.586 409.005 285.004 409.374 284.511C409.748 284.014 410.266 283.631 410.929 283.361C411.597 283.086 412.366 282.949 413.238 282.949C414.516 282.949 415.522 283.221 416.256 283.766C416.995 284.31 417.452 285.046 417.627 285.974ZM429.772 294.213C428.678 294.213 427.733 293.986 426.938 293.531C426.147 293.072 425.539 292.423 425.113 291.585C424.686 290.742 424.473 289.75 424.473 288.609C424.473 287.487 424.686 286.502 425.113 285.655C425.543 284.803 426.145 284.14 426.917 283.666C427.688 283.188 428.595 282.949 429.637 282.949C430.309 282.949 430.944 283.058 431.54 283.276C432.141 283.489 432.672 283.82 433.131 284.27C433.595 284.72 433.96 285.293 434.225 285.989C434.49 286.68 434.623 287.504 434.623 288.46V289.249H425.681V287.516H432.158C432.153 287.023 432.047 286.585 431.838 286.202C431.63 285.813 431.339 285.508 430.965 285.286C430.596 285.063 430.165 284.952 429.672 284.952C429.147 284.952 428.685 285.08 428.287 285.335C427.89 285.586 427.579 285.918 427.357 286.33C427.139 286.737 427.028 287.184 427.023 287.672V289.185C427.023 289.819 427.139 290.364 427.371 290.818C427.603 291.268 427.927 291.614 428.344 291.855C428.761 292.092 429.248 292.21 429.807 292.21C430.181 292.21 430.52 292.158 430.823 292.054C431.126 291.945 431.389 291.786 431.611 291.578C431.834 291.37 432.002 291.112 432.115 290.804L434.516 291.074C434.364 291.708 434.076 292.262 433.65 292.736C433.228 293.205 432.688 293.569 432.03 293.83C431.372 294.085 430.619 294.213 429.772 294.213ZM436.798 294V283.091H439.29V284.909H439.404C439.603 284.279 439.944 283.794 440.427 283.453C440.915 283.107 441.471 282.935 442.096 282.935C442.238 282.935 442.397 282.942 442.572 282.956C442.752 282.965 442.901 282.982 443.019 283.006V285.371C442.91 285.333 442.737 285.3 442.501 285.271C442.269 285.238 442.044 285.222 441.826 285.222C441.357 285.222 440.936 285.323 440.562 285.527C440.192 285.726 439.901 286.003 439.688 286.358C439.475 286.713 439.369 287.123 439.369 287.587V294H436.798ZM444.727 294V283.091H447.22V284.909H447.334C447.533 284.279 447.874 283.794 448.357 283.453C448.844 283.107 449.401 282.935 450.026 282.935C450.168 282.935 450.326 282.942 450.501 282.956C450.681 282.965 450.83 282.982 450.949 283.006V285.371C450.84 285.333 450.667 285.3 450.43 285.271C450.198 285.238 449.973 285.222 449.756 285.222C449.287 285.222 448.866 285.323 448.491 285.527C448.122 285.726 447.831 286.003 447.618 286.358C447.405 286.713 447.298 287.123 447.298 287.587V294H444.727ZM456.966 294.213C455.901 294.213 454.978 293.979 454.196 293.51C453.415 293.041 452.809 292.385 452.378 291.543C451.952 290.7 451.739 289.715 451.739 288.588C451.739 287.461 451.952 286.474 452.378 285.626C452.809 284.779 453.415 284.121 454.196 283.652C454.978 283.183 455.901 282.949 456.966 282.949C458.032 282.949 458.955 283.183 459.736 283.652C460.517 284.121 461.121 284.779 461.547 285.626C461.978 286.474 462.194 287.461 462.194 288.588C462.194 289.715 461.978 290.7 461.547 291.543C461.121 292.385 460.517 293.041 459.736 293.51C458.955 293.979 458.032 294.213 456.966 294.213ZM456.98 292.153C457.558 292.153 458.041 291.995 458.429 291.678C458.818 291.356 459.106 290.925 459.296 290.385C459.49 289.845 459.587 289.244 459.587 288.581C459.587 287.913 459.49 287.31 459.296 286.77C459.106 286.225 458.818 285.792 458.429 285.47C458.041 285.148 457.558 284.987 456.98 284.987C456.389 284.987 455.896 285.148 455.503 285.47C455.115 285.792 454.824 286.225 454.63 286.77C454.44 287.31 454.346 287.913 454.346 288.581C454.346 289.244 454.44 289.845 454.63 290.385C454.824 290.925 455.115 291.356 455.503 291.678C455.896 291.995 456.389 292.153 456.98 292.153ZM464.376 294V283.091H466.869V284.909H466.982C467.181 284.279 467.522 283.794 468.005 283.453C468.493 283.107 469.049 282.935 469.674 282.935C469.816 282.935 469.975 282.942 470.15 282.956C470.33 282.965 470.479 282.982 470.597 283.006V285.371C470.488 285.333 470.316 285.3 470.079 285.271C469.847 285.238 469.622 285.222 469.404 285.222C468.935 285.222 468.514 285.323 468.14 285.527C467.771 285.726 467.479 286.003 467.266 286.358C467.053 286.713 466.947 287.123 466.947 287.587V294H464.376ZM477.38 294V279.455H479.951V284.895H480.058C480.19 284.63 480.377 284.348 480.619 284.05C480.86 283.747 481.187 283.489 481.599 283.276C482.011 283.058 482.536 282.949 483.175 282.949C484.018 282.949 484.778 283.164 485.455 283.595C486.137 284.021 486.677 284.653 487.075 285.491C487.477 286.325 487.678 287.348 487.678 288.56C487.678 289.758 487.482 290.776 487.089 291.614C486.696 292.452 486.161 293.091 485.484 293.531C484.807 293.972 484.04 294.192 483.183 294.192C482.558 294.192 482.039 294.088 481.627 293.879C481.215 293.671 480.884 293.42 480.633 293.126C480.387 292.828 480.195 292.546 480.058 292.281H479.908V294H477.38ZM479.901 288.545C479.901 289.251 480.001 289.869 480.2 290.399C480.403 290.929 480.694 291.344 481.073 291.642C481.457 291.936 481.921 292.082 482.465 292.082C483.033 292.082 483.509 291.931 483.893 291.628C484.276 291.32 484.565 290.901 484.759 290.371C484.958 289.836 485.058 289.227 485.058 288.545C485.058 287.868 484.96 287.267 484.766 286.741C484.572 286.216 484.283 285.804 483.9 285.506C483.516 285.207 483.038 285.058 482.465 285.058C481.916 285.058 481.45 285.203 481.066 285.491C480.683 285.78 480.391 286.185 480.192 286.706C479.998 287.227 479.901 287.84 479.901 288.545ZM494.694 294.213C493.6 294.213 492.655 293.986 491.86 293.531C491.069 293.072 490.461 292.423 490.034 291.585C489.608 290.742 489.395 289.75 489.395 288.609C489.395 287.487 489.608 286.502 490.034 285.655C490.465 284.803 491.067 284.14 491.838 283.666C492.61 283.188 493.517 282.949 494.559 282.949C495.231 282.949 495.865 283.058 496.462 283.276C497.063 283.489 497.594 283.82 498.053 284.27C498.517 284.72 498.882 285.293 499.147 285.989C499.412 286.68 499.544 287.504 499.544 288.46V289.249H490.603V287.516H497.08C497.075 287.023 496.969 286.585 496.76 286.202C496.552 285.813 496.261 285.508 495.887 285.286C495.517 285.063 495.087 284.952 494.594 284.952C494.069 284.952 493.607 285.08 493.209 285.335C492.811 285.586 492.501 285.918 492.279 286.33C492.061 286.737 491.95 287.184 491.945 287.672V289.185C491.945 289.819 492.061 290.364 492.293 290.818C492.525 291.268 492.849 291.614 493.266 291.855C493.683 292.092 494.17 292.21 494.729 292.21C495.103 292.21 495.442 292.158 495.745 292.054C496.048 291.945 496.31 291.786 496.533 291.578C496.756 291.37 496.924 291.112 497.037 290.804L499.438 291.074C499.286 291.708 498.998 292.262 498.571 292.736C498.15 293.205 497.61 293.569 496.952 293.83C496.294 294.085 495.541 294.213 494.694 294.213ZM515.303 285.974L512.959 286.23C512.893 285.993 512.777 285.771 512.611 285.562C512.45 285.354 512.232 285.186 511.957 285.058C511.683 284.93 511.347 284.866 510.949 284.866C510.414 284.866 509.964 284.982 509.599 285.214C509.24 285.446 509.062 285.747 509.067 286.116C509.062 286.434 509.178 286.692 509.415 286.891C509.656 287.089 510.054 287.253 510.608 287.381L512.469 287.778C513.501 288.001 514.268 288.354 514.77 288.837C515.277 289.32 515.532 289.952 515.537 290.733C515.532 291.42 515.331 292.026 514.933 292.551C514.54 293.072 513.993 293.479 513.293 293.773C512.592 294.066 511.787 294.213 510.878 294.213C509.543 294.213 508.468 293.934 507.653 293.375C506.839 292.812 506.354 292.028 506.197 291.024L508.705 290.783C508.818 291.275 509.06 291.647 509.429 291.898C509.798 292.149 510.279 292.274 510.871 292.274C511.482 292.274 511.972 292.149 512.341 291.898C512.715 291.647 512.902 291.337 512.902 290.967C512.902 290.655 512.781 290.397 512.54 290.193C512.303 289.99 511.934 289.833 511.432 289.724L509.571 289.334C508.525 289.116 507.75 288.749 507.249 288.233C506.747 287.712 506.498 287.054 506.503 286.259C506.498 285.586 506.68 285.004 507.05 284.511C507.424 284.014 507.942 283.631 508.605 283.361C509.273 283.086 510.042 282.949 510.913 282.949C512.192 282.949 513.198 283.221 513.932 283.766C514.67 284.31 515.127 285.046 515.303 285.974ZM520.228 287.608V294H517.657V279.455H520.171V284.945H520.299C520.555 284.329 520.95 283.844 521.485 283.489C522.025 283.129 522.711 282.949 523.545 282.949C524.302 282.949 524.963 283.107 525.526 283.425C526.09 283.742 526.525 284.206 526.833 284.817C527.146 285.428 527.302 286.173 527.302 287.054V294H524.731V287.452C524.731 286.718 524.541 286.147 524.163 285.74C523.789 285.328 523.263 285.122 522.586 285.122C522.131 285.122 521.724 285.222 521.364 285.42C521.009 285.615 520.73 285.896 520.526 286.266C520.327 286.635 520.228 287.082 520.228 287.608ZM534.681 294.213C533.616 294.213 532.692 293.979 531.911 293.51C531.13 293.041 530.524 292.385 530.093 291.543C529.667 290.7 529.454 289.715 529.454 288.588C529.454 287.461 529.667 286.474 530.093 285.626C530.524 284.779 531.13 284.121 531.911 283.652C532.692 283.183 533.616 282.949 534.681 282.949C535.746 282.949 536.67 283.183 537.451 283.652C538.232 284.121 538.836 284.779 539.262 285.626C539.693 286.474 539.908 287.461 539.908 288.588C539.908 289.715 539.693 290.7 539.262 291.543C538.836 292.385 538.232 293.041 537.451 293.51C536.67 293.979 535.746 294.213 534.681 294.213ZM534.695 292.153C535.273 292.153 535.756 291.995 536.144 291.678C536.532 291.356 536.821 290.925 537.011 290.385C537.205 289.845 537.302 289.244 537.302 288.581C537.302 287.913 537.205 287.31 537.011 286.77C536.821 286.225 536.532 285.792 536.144 285.47C535.756 285.148 535.273 284.987 534.695 284.987C534.103 284.987 533.611 285.148 533.218 285.47C532.83 285.792 532.539 286.225 532.344 286.77C532.155 287.31 532.06 287.913 532.06 288.581C532.06 289.244 532.155 289.845 532.344 290.385C532.539 290.925 532.83 291.356 533.218 291.678C533.611 291.995 534.103 292.153 534.695 292.153ZM544.029 294L540.947 283.091H543.568L545.485 290.761H545.585L547.545 283.091H550.137L552.098 290.719H552.204L554.093 283.091H556.721L553.632 294H550.954L548.909 286.628H548.76L546.714 294H544.029ZM561.087 287.608V294H558.516V283.091H560.974V284.945H561.102C561.353 284.334 561.753 283.848 562.302 283.489C562.856 283.129 563.54 282.949 564.354 282.949C565.107 282.949 565.763 283.11 566.322 283.432C566.885 283.754 567.321 284.22 567.629 284.831C567.941 285.442 568.095 286.183 568.09 287.054V294H565.519V287.452C565.519 286.723 565.33 286.152 564.951 285.74C564.577 285.328 564.058 285.122 563.396 285.122C562.946 285.122 562.546 285.222 562.195 285.42C561.85 285.615 561.577 285.896 561.379 286.266C561.184 286.635 561.087 287.082 561.087 287.608ZM575.665 294V283.091H578.236V294H575.665ZM576.957 281.543C576.55 281.543 576.2 281.408 575.906 281.138C575.613 280.863 575.466 280.534 575.466 280.151C575.466 279.762 575.613 279.433 575.906 279.163C576.2 278.889 576.55 278.751 576.957 278.751C577.369 278.751 577.72 278.889 578.009 279.163C578.302 279.433 578.449 279.762 578.449 280.151C578.449 280.534 578.302 280.863 578.009 281.138C577.72 281.408 577.369 281.543 576.957 281.543ZM586.405 283.091V285.08H579.956V283.091H586.405ZM581.569 294V282.061C581.569 281.327 581.72 280.716 582.023 280.229C582.331 279.741 582.743 279.376 583.259 279.135C583.775 278.893 584.348 278.773 584.978 278.773C585.423 278.773 585.818 278.808 586.164 278.879C586.509 278.95 586.765 279.014 586.931 279.071L586.419 281.06C586.31 281.027 586.173 280.993 586.007 280.96C585.842 280.922 585.657 280.903 585.453 280.903C584.975 280.903 584.637 281.019 584.438 281.251C584.244 281.479 584.147 281.805 584.147 282.232V294H581.569ZM594.978 298.091C594.627 298.091 594.303 298.063 594.005 298.006C593.711 297.954 593.477 297.892 593.301 297.821L593.898 295.818C594.272 295.927 594.606 295.979 594.9 295.974C595.193 295.97 595.451 295.877 595.674 295.697C595.901 295.522 596.093 295.229 596.249 294.817L596.469 294.227L592.513 283.091H595.24L597.755 291.33H597.868L600.39 283.091H603.124L598.756 295.321C598.552 295.899 598.283 296.393 597.946 296.805C597.61 297.222 597.198 297.539 596.711 297.757C596.228 297.98 595.65 298.091 594.978 298.091ZM609.29 294.213C608.225 294.213 607.302 293.979 606.521 293.51C605.739 293.041 605.133 292.385 604.702 291.543C604.276 290.7 604.063 289.715 604.063 288.588C604.063 287.461 604.276 286.474 604.702 285.626C605.133 284.779 605.739 284.121 606.521 283.652C607.302 283.183 608.225 282.949 609.29 282.949C610.356 282.949 611.279 283.183 612.06 283.652C612.842 284.121 613.445 284.779 613.871 285.626C614.302 286.474 614.518 287.461 614.518 288.588C614.518 289.715 614.302 290.7 613.871 291.543C613.445 292.385 612.842 293.041 612.06 293.51C611.279 293.979 610.356 294.213 609.29 294.213ZM609.305 292.153C609.882 292.153 610.365 291.995 610.754 291.678C611.142 291.356 611.431 290.925 611.62 290.385C611.814 289.845 611.911 289.244 611.911 288.581C611.911 287.913 611.814 287.31 611.62 286.77C611.431 286.225 611.142 285.792 610.754 285.47C610.365 285.148 609.882 284.987 609.305 284.987C608.713 284.987 608.22 285.148 607.827 285.47C607.439 285.792 607.148 286.225 606.954 286.77C606.764 287.31 606.67 287.913 606.67 288.581C606.67 289.244 606.764 289.845 606.954 290.385C607.148 290.925 607.439 291.356 607.827 291.678C608.22 291.995 608.713 292.153 609.305 292.153ZM623.653 289.412V283.091H626.224V294H623.731V292.061H623.618C623.371 292.672 622.967 293.171 622.403 293.56C621.844 293.948 621.155 294.142 620.336 294.142C619.621 294.142 618.989 293.983 618.44 293.666C617.895 293.344 617.469 292.878 617.162 292.267C616.854 291.652 616.7 290.908 616.7 290.037V283.091H619.271V289.639C619.271 290.33 619.46 290.88 619.839 291.287C620.218 291.694 620.715 291.898 621.331 291.898C621.709 291.898 622.076 291.805 622.431 291.621C622.787 291.436 623.078 291.161 623.305 290.797C623.537 290.428 623.653 289.966 623.653 289.412ZM636.08 294L632.998 283.091H635.619L637.536 290.761H637.636L639.596 283.091H642.188L644.148 290.719H644.255L646.144 283.091H648.772L645.683 294H643.005L640.96 286.628H640.81L638.765 294H636.08ZM653.138 287.608V294H650.567V279.455H653.081V284.945H653.209C653.465 284.329 653.86 283.844 654.395 283.489C654.935 283.129 655.622 282.949 656.455 282.949C657.212 282.949 657.873 283.107 658.436 283.425C659 283.742 659.435 284.206 659.743 284.817C660.056 285.428 660.212 286.173 660.212 287.054V294H657.641V287.452C657.641 286.718 657.452 286.147 657.073 285.74C656.699 285.328 656.173 285.122 655.496 285.122C655.042 285.122 654.634 285.222 654.275 285.42C653.919 285.615 653.64 285.896 653.436 286.266C653.238 286.635 653.138 287.082 653.138 287.608ZM667.662 294.213C666.569 294.213 665.624 293.986 664.828 293.531C664.038 293.072 663.429 292.423 663.003 291.585C662.577 290.742 662.364 289.75 662.364 288.609C662.364 287.487 662.577 286.502 663.003 285.655C663.434 284.803 664.035 284.14 664.807 283.666C665.579 283.188 666.486 282.949 667.527 282.949C668.2 282.949 668.834 283.058 669.431 283.276C670.032 283.489 670.562 283.82 671.022 284.27C671.486 284.72 671.85 285.293 672.115 285.989C672.381 286.68 672.513 287.504 672.513 288.46V289.249H663.571V287.516H670.049C670.044 287.023 669.937 286.585 669.729 286.202C669.521 285.813 669.23 285.508 668.855 285.286C668.486 285.063 668.055 284.952 667.563 284.952C667.037 284.952 666.576 285.08 666.178 285.335C665.78 285.586 665.47 285.918 665.248 286.33C665.03 286.737 664.918 287.184 664.914 287.672V289.185C664.914 289.819 665.03 290.364 665.262 290.818C665.494 291.268 665.818 291.614 666.235 291.855C666.651 292.092 667.139 292.21 667.698 292.21C668.072 292.21 668.41 292.158 668.713 292.054C669.016 291.945 669.279 291.786 669.502 291.578C669.724 291.37 669.892 291.112 670.006 290.804L672.407 291.074C672.255 291.708 671.966 292.262 671.54 292.736C671.119 293.205 670.579 293.569 669.921 293.83C669.263 294.085 668.51 294.213 667.662 294.213ZM674.688 294V283.091H677.181V284.909H677.295C677.494 284.279 677.835 283.794 678.317 283.453C678.805 283.107 679.362 282.935 679.987 282.935C680.129 282.935 680.287 282.942 680.462 282.956C680.642 282.965 680.791 282.982 680.91 283.006V285.371C680.801 285.333 680.628 285.3 680.391 285.271C680.159 285.238 679.934 285.222 679.717 285.222C679.248 285.222 678.826 285.323 678.452 285.527C678.083 285.726 677.792 286.003 677.579 286.358C677.366 286.713 677.259 287.123 677.259 287.587V294H674.688ZM686.998 294.213C685.904 294.213 684.96 293.986 684.164 293.531C683.374 293.072 682.765 292.423 682.339 291.585C681.913 290.742 681.7 289.75 681.7 288.609C681.7 287.487 681.913 286.502 682.339 285.655C682.77 284.803 683.371 284.14 684.143 283.666C684.915 283.188 685.822 282.949 686.863 282.949C687.536 282.949 688.17 283.058 688.767 283.276C689.368 283.489 689.898 283.82 690.358 284.27C690.822 284.72 691.186 285.293 691.451 285.989C691.717 286.68 691.849 287.504 691.849 288.46V289.249H682.907V287.516H689.385C689.38 287.023 689.273 286.585 689.065 286.202C688.857 285.813 688.565 285.508 688.191 285.286C687.822 285.063 687.391 284.952 686.899 284.952C686.373 284.952 685.912 285.08 685.514 285.335C685.116 285.586 684.806 285.918 684.583 286.33C684.366 286.737 684.254 287.184 684.25 287.672V289.185C684.25 289.819 684.366 290.364 684.598 290.818C684.83 291.268 685.154 291.614 685.571 291.855C685.987 292.092 686.475 292.21 687.034 292.21C687.408 292.21 687.746 292.158 688.049 292.054C688.352 291.945 688.615 291.786 688.838 291.578C689.06 291.37 689.228 291.112 689.342 290.804L691.743 291.074C691.591 291.708 691.302 292.262 690.876 292.736C690.455 293.205 689.915 293.569 689.257 293.83C688.599 294.085 687.846 294.213 686.998 294.213ZM704.433 283.091V285.08H698.161V283.091H704.433ZM699.71 280.477H702.281V290.719C702.281 291.064 702.333 291.33 702.437 291.514C702.546 291.694 702.688 291.817 702.863 291.884C703.038 291.95 703.232 291.983 703.445 291.983C703.606 291.983 703.753 291.971 703.886 291.947C704.023 291.924 704.127 291.902 704.198 291.884L704.631 293.893C704.494 293.941 704.298 293.993 704.042 294.05C703.791 294.107 703.483 294.14 703.119 294.149C702.475 294.168 701.895 294.071 701.379 293.858C700.862 293.64 700.453 293.304 700.15 292.849C699.852 292.395 699.705 291.827 699.71 291.145V280.477ZM706.583 294V283.091H709.076V284.909H709.189C709.388 284.279 709.729 283.794 710.212 283.453C710.7 283.107 711.256 282.935 711.881 282.935C712.023 282.935 712.182 282.942 712.357 282.956C712.537 282.965 712.686 282.982 712.804 283.006V285.371C712.695 285.333 712.523 285.3 712.286 285.271C712.054 285.238 711.829 285.222 711.611 285.222C711.142 285.222 710.721 285.323 710.347 285.527C709.978 285.726 709.686 286.003 709.473 286.358C709.26 286.713 709.154 287.123 709.154 287.587V294H706.583ZM716.442 298.091C716.092 298.091 715.768 298.063 715.469 298.006C715.176 297.954 714.942 297.892 714.766 297.821L715.363 295.818C715.737 295.927 716.071 295.979 716.364 295.974C716.658 295.97 716.916 295.877 717.138 295.697C717.366 295.522 717.558 295.229 717.714 294.817L717.934 294.227L713.978 283.091H716.705L719.219 291.33H719.333L721.854 283.091H724.589L720.221 295.321C720.017 295.899 719.747 296.393 719.411 296.805C719.075 297.222 718.663 297.539 718.175 297.757C717.692 297.98 717.115 298.091 716.442 298.091ZM726.368 294V283.091H728.939V294H726.368ZM727.661 281.543C727.253 281.543 726.903 281.408 726.609 281.138C726.316 280.863 726.169 280.534 726.169 280.151C726.169 279.762 726.316 279.433 726.609 279.163C726.903 278.889 727.253 278.751 727.661 278.751C728.072 278.751 728.423 278.889 728.712 279.163C729.005 279.433 729.152 279.762 729.152 280.151C729.152 280.534 729.005 280.863 728.712 281.138C728.423 281.408 728.072 281.543 727.661 281.543ZM734.154 287.608V294H731.583V283.091H734.04V284.945H734.168C734.419 284.334 734.819 283.848 735.368 283.489C735.922 283.129 736.606 282.949 737.421 282.949C738.174 282.949 738.829 283.11 739.388 283.432C739.952 283.754 740.387 284.22 740.695 284.831C741.007 285.442 741.161 286.183 741.157 287.054V294H738.586V287.452C738.586 286.723 738.396 286.152 738.017 285.74C737.643 285.328 737.125 285.122 736.462 285.122C736.012 285.122 735.612 285.222 735.262 285.42C734.916 285.615 734.644 285.896 734.445 286.266C734.251 286.635 734.154 287.082 734.154 287.608ZM748.515 298.318C747.591 298.318 746.798 298.193 746.135 297.942C745.472 297.696 744.94 297.364 744.537 296.947C744.135 296.531 743.855 296.069 743.699 295.562L746.015 295.001C746.119 295.214 746.27 295.425 746.469 295.634C746.668 295.847 746.935 296.022 747.272 296.159C747.613 296.301 748.041 296.372 748.557 296.372C749.286 296.372 749.89 296.195 750.368 295.839C750.846 295.489 751.086 294.911 751.086 294.107V292.04H750.958C750.825 292.305 750.631 292.577 750.375 292.857C750.124 293.136 749.791 293.37 749.374 293.56C748.962 293.749 748.444 293.844 747.819 293.844C746.98 293.844 746.221 293.647 745.539 293.254C744.862 292.857 744.322 292.265 743.919 291.479C743.522 290.688 743.323 289.698 743.323 288.51C743.323 287.312 743.522 286.301 743.919 285.477C744.322 284.649 744.864 284.021 745.546 283.595C746.228 283.164 746.988 282.949 747.826 282.949C748.465 282.949 748.99 283.058 749.402 283.276C749.819 283.489 750.15 283.747 750.397 284.05C750.643 284.348 750.83 284.63 750.958 284.895H751.1V283.091H753.635V294.178C753.635 295.11 753.413 295.882 752.968 296.493C752.523 297.104 751.914 297.561 751.142 297.864C750.371 298.167 749.495 298.318 748.515 298.318ZM748.536 291.827C749.08 291.827 749.544 291.694 749.928 291.429C750.311 291.164 750.603 290.783 750.801 290.286C751 289.788 751.1 289.192 751.1 288.496C751.1 287.809 751 287.208 750.801 286.692C750.607 286.176 750.319 285.776 749.935 285.491C749.556 285.203 749.09 285.058 748.536 285.058C747.963 285.058 747.485 285.207 747.101 285.506C746.718 285.804 746.429 286.214 746.235 286.734C746.041 287.25 745.944 287.838 745.944 288.496C745.944 289.163 746.041 289.748 746.235 290.25C746.434 290.747 746.725 291.135 747.108 291.415C747.497 291.689 747.972 291.827 748.536 291.827ZM766.679 283.091V285.08H760.407V283.091H766.679ZM761.956 280.477H764.527V290.719C764.527 291.064 764.579 291.33 764.683 291.514C764.792 291.694 764.934 291.817 765.109 291.884C765.284 291.95 765.478 291.983 765.691 291.983C765.852 291.983 765.999 291.971 766.132 291.947C766.269 291.924 766.373 291.902 766.444 291.884L766.877 293.893C766.74 293.941 766.544 293.993 766.288 294.05C766.037 294.107 765.729 294.14 765.365 294.149C764.721 294.168 764.141 294.071 763.625 293.858C763.109 293.64 762.699 293.304 762.396 292.849C762.098 292.395 761.951 291.827 761.956 291.145V280.477ZM773.47 294.213C772.405 294.213 771.482 293.979 770.7 293.51C769.919 293.041 769.313 292.385 768.882 291.543C768.456 290.7 768.243 289.715 768.243 288.588C768.243 287.461 768.456 286.474 768.882 285.626C769.313 284.779 769.919 284.121 770.7 283.652C771.482 283.183 772.405 282.949 773.47 282.949C774.536 282.949 775.459 283.183 776.24 283.652C777.021 284.121 777.625 284.779 778.051 285.626C778.482 286.474 778.697 287.461 778.697 288.588C778.697 289.715 778.482 290.7 778.051 291.543C777.625 292.385 777.021 293.041 776.24 293.51C775.459 293.979 774.536 294.213 773.47 294.213ZM773.484 292.153C774.062 292.153 774.545 291.995 774.933 291.678C775.321 291.356 775.61 290.925 775.8 290.385C775.994 289.845 776.091 289.244 776.091 288.581C776.091 287.913 775.994 287.31 775.8 286.77C775.61 286.225 775.321 285.792 774.933 285.47C774.545 285.148 774.062 284.987 773.484 284.987C772.893 284.987 772.4 285.148 772.007 285.47C771.619 285.792 771.328 286.225 771.134 286.77C770.944 287.31 770.849 287.913 770.849 288.581C770.849 289.244 770.944 289.845 771.134 290.385C771.328 290.925 771.619 291.356 772.007 291.678C772.4 291.995 772.893 292.153 773.484 292.153ZM794.463 285.974L792.119 286.23C792.053 285.993 791.937 285.771 791.771 285.562C791.61 285.354 791.392 285.186 791.118 285.058C790.843 284.93 790.507 284.866 790.109 284.866C789.574 284.866 789.124 284.982 788.76 285.214C788.4 285.446 788.222 285.747 788.227 286.116C788.222 286.434 788.338 286.692 788.575 286.891C788.816 287.089 789.214 287.253 789.768 287.381L791.629 287.778C792.661 288.001 793.428 288.354 793.93 288.837C794.437 289.32 794.692 289.952 794.697 290.733C794.692 291.42 794.491 292.026 794.093 292.551C793.7 293.072 793.154 293.479 792.453 293.773C791.752 294.066 790.947 294.213 790.038 294.213C788.703 294.213 787.628 293.934 786.814 293.375C785.999 292.812 785.514 292.028 785.358 291.024L787.865 290.783C787.978 291.275 788.22 291.647 788.589 291.898C788.958 292.149 789.439 292.274 790.031 292.274C790.642 292.274 791.132 292.149 791.501 291.898C791.875 291.647 792.062 291.337 792.062 290.967C792.062 290.655 791.941 290.397 791.7 290.193C791.463 289.99 791.094 289.833 790.592 289.724L788.731 289.334C787.685 289.116 786.911 288.749 786.409 288.233C785.907 287.712 785.658 287.054 785.663 286.259C785.658 285.586 785.841 285.004 786.21 284.511C786.584 284.014 787.102 283.631 787.765 283.361C788.433 283.086 789.202 282.949 790.074 282.949C791.352 282.949 792.358 283.221 793.092 283.766C793.831 284.31 794.288 285.046 794.463 285.974ZM802.265 283.091V285.08H795.993V283.091H802.265ZM797.542 280.477H800.113V290.719C800.113 291.064 800.165 291.33 800.269 291.514C800.378 291.694 800.52 291.817 800.695 291.884C800.87 291.95 801.064 291.983 801.277 291.983C801.438 291.983 801.585 291.971 801.718 291.947C801.855 291.924 801.959 291.902 802.03 291.884L802.463 293.893C802.326 293.941 802.13 293.993 801.874 294.05C801.623 294.107 801.315 294.14 800.951 294.149C800.307 294.168 799.727 294.071 799.211 293.858C798.694 293.64 798.285 293.304 797.982 292.849C797.684 292.395 797.537 291.827 797.542 291.145V280.477ZM809.056 294.213C807.991 294.213 807.067 293.979 806.286 293.51C805.505 293.041 804.899 292.385 804.468 291.543C804.042 290.7 803.829 289.715 803.829 288.588C803.829 287.461 804.042 286.474 804.468 285.626C804.899 284.779 805.505 284.121 806.286 283.652C807.067 283.183 807.991 282.949 809.056 282.949C810.121 282.949 811.045 283.183 811.826 283.652C812.607 284.121 813.211 284.779 813.637 285.626C814.068 286.474 814.283 287.461 814.283 288.588C814.283 289.715 814.068 290.7 813.637 291.543C813.211 292.385 812.607 293.041 811.826 293.51C811.045 293.979 810.121 294.213 809.056 294.213ZM809.07 292.153C809.648 292.153 810.131 291.995 810.519 291.678C810.907 291.356 811.196 290.925 811.386 290.385C811.58 289.845 811.677 289.244 811.677 288.581C811.677 287.913 811.58 287.31 811.386 286.77C811.196 286.225 810.907 285.792 810.519 285.47C810.131 285.148 809.648 284.987 809.07 284.987C808.478 284.987 807.986 285.148 807.593 285.47C807.205 285.792 806.914 286.225 806.719 286.77C806.53 287.31 806.435 287.913 806.435 288.581C806.435 289.244 806.53 289.845 806.719 290.385C806.914 290.925 807.205 291.356 807.593 291.678C807.986 291.995 808.478 292.153 809.07 292.153ZM816.466 298.091V283.091H818.994V284.895H819.143C819.276 284.63 819.463 284.348 819.704 284.05C819.946 283.747 820.272 283.489 820.684 283.276C821.096 283.058 821.622 282.949 822.261 282.949C823.104 282.949 823.864 283.164 824.541 283.595C825.223 284.021 825.762 284.653 826.16 285.491C826.563 286.325 826.764 287.348 826.764 288.56C826.764 289.758 826.567 290.776 826.174 291.614C825.781 292.452 825.246 293.091 824.569 293.531C823.892 293.972 823.125 294.192 822.268 294.192C821.643 294.192 821.125 294.088 820.713 293.879C820.301 293.671 819.969 293.42 819.718 293.126C819.472 292.828 819.28 292.546 819.143 292.281H819.037V298.091H816.466ZM818.987 288.545C818.987 289.251 819.086 289.869 819.285 290.399C819.489 290.929 819.78 291.344 820.159 291.642C820.542 291.936 821.006 292.082 821.551 292.082C822.119 292.082 822.595 291.931 822.978 291.628C823.362 291.32 823.651 290.901 823.845 290.371C824.044 289.836 824.143 289.227 824.143 288.545C824.143 287.868 824.046 287.267 823.852 286.741C823.658 286.216 823.369 285.804 822.985 285.506C822.602 285.207 822.124 285.058 821.551 285.058C821.002 285.058 820.535 285.203 820.152 285.491C819.768 285.78 819.477 286.185 819.278 286.706C819.084 287.227 818.987 287.84 818.987 288.545ZM381.46 318.22C380.769 318.22 380.146 318.097 379.592 317.851C379.043 317.6 378.607 317.231 378.286 316.743C377.968 316.255 377.81 315.654 377.81 314.939C377.81 314.323 377.923 313.814 378.151 313.412C378.378 313.009 378.688 312.688 379.081 312.446C379.474 312.205 379.917 312.022 380.409 311.899C380.906 311.771 381.42 311.679 381.95 311.622C382.589 311.556 383.108 311.497 383.506 311.445C383.903 311.388 384.192 311.303 384.372 311.189C384.557 311.071 384.649 310.888 384.649 310.642V310.599C384.649 310.064 384.491 309.65 384.173 309.357C383.856 309.063 383.399 308.916 382.803 308.916C382.173 308.916 381.673 309.054 381.304 309.328C380.939 309.603 380.693 309.927 380.565 310.301L378.165 309.96C378.354 309.297 378.667 308.743 379.102 308.298C379.538 307.848 380.071 307.512 380.7 307.29C381.33 307.062 382.026 306.949 382.788 306.949C383.314 306.949 383.837 307.01 384.358 307.134C384.879 307.257 385.355 307.46 385.786 307.744C386.216 308.024 386.562 308.405 386.822 308.888C387.088 309.371 387.22 309.974 387.22 310.699V318H384.749V316.501H384.663C384.507 316.804 384.287 317.089 384.003 317.354C383.723 317.614 383.371 317.825 382.945 317.986C382.523 318.142 382.028 318.22 381.46 318.22ZM382.128 316.331C382.644 316.331 383.091 316.229 383.47 316.026C383.849 315.817 384.14 315.543 384.344 315.202C384.552 314.861 384.656 314.489 384.656 314.087V312.801C384.576 312.867 384.438 312.929 384.244 312.986C384.055 313.043 383.842 313.092 383.605 313.135C383.368 313.178 383.134 313.215 382.902 313.249C382.67 313.282 382.469 313.31 382.298 313.334C381.915 313.386 381.571 313.471 381.268 313.589C380.965 313.708 380.726 313.874 380.551 314.087C380.376 314.295 380.288 314.565 380.288 314.896C380.288 315.37 380.461 315.727 380.807 315.969C381.152 316.21 381.593 316.331 382.128 316.331ZM394.766 322.091V307.091H397.295V308.895H397.444C397.576 308.63 397.763 308.348 398.005 308.05C398.246 307.747 398.573 307.489 398.985 307.276C399.397 307.058 399.923 306.949 400.562 306.949C401.405 306.949 402.165 307.164 402.842 307.595C403.523 308.021 404.063 308.653 404.461 309.491C404.863 310.325 405.065 311.348 405.065 312.56C405.065 313.758 404.868 314.776 404.475 315.614C404.082 316.452 403.547 317.091 402.87 317.531C402.193 317.972 401.426 318.192 400.569 318.192C399.944 318.192 399.425 318.088 399.013 317.879C398.602 317.671 398.27 317.42 398.019 317.126C397.773 316.828 397.581 316.546 397.444 316.281H397.337V322.091H394.766ZM397.288 312.545C397.288 313.251 397.387 313.869 397.586 314.399C397.79 314.929 398.081 315.344 398.46 315.642C398.843 315.936 399.307 316.082 399.852 316.082C400.42 316.082 400.896 315.931 401.279 315.628C401.663 315.32 401.951 314.901 402.146 314.371C402.344 313.836 402.444 313.227 402.444 312.545C402.444 311.868 402.347 311.267 402.153 310.741C401.959 310.216 401.67 309.804 401.286 309.506C400.903 309.207 400.424 309.058 399.852 309.058C399.302 309.058 398.836 309.203 398.452 309.491C398.069 309.78 397.778 310.185 397.579 310.706C397.385 311.227 397.288 311.84 397.288 312.545ZM407.266 318V307.091H409.759V308.909H409.873C410.072 308.279 410.413 307.794 410.896 307.453C411.383 307.107 411.94 306.935 412.565 306.935C412.707 306.935 412.865 306.942 413.04 306.956C413.22 306.965 413.37 306.982 413.488 307.006V309.371C413.379 309.333 413.206 309.3 412.969 309.271C412.737 309.238 412.513 309.222 412.295 309.222C411.826 309.222 411.405 309.323 411.031 309.527C410.661 309.726 410.37 310.003 410.157 310.358C409.944 310.713 409.837 311.123 409.837 311.587V318H407.266ZM419.505 318.213C418.44 318.213 417.517 317.979 416.735 317.51C415.954 317.041 415.348 316.385 414.917 315.543C414.491 314.7 414.278 313.715 414.278 312.588C414.278 311.461 414.491 310.474 414.917 309.626C415.348 308.779 415.954 308.121 416.735 307.652C417.517 307.183 418.44 306.949 419.505 306.949C420.571 306.949 421.494 307.183 422.275 307.652C423.056 308.121 423.66 308.779 424.086 309.626C424.517 310.474 424.733 311.461 424.733 312.588C424.733 313.715 424.517 314.7 424.086 315.543C423.66 316.385 423.056 317.041 422.275 317.51C421.494 317.979 420.571 318.213 419.505 318.213ZM419.52 316.153C420.097 316.153 420.58 315.995 420.968 315.678C421.357 315.356 421.645 314.925 421.835 314.385C422.029 313.845 422.126 313.244 422.126 312.581C422.126 311.913 422.029 311.31 421.835 310.77C421.645 310.225 421.357 309.792 420.968 309.47C420.58 309.148 420.097 308.987 419.52 308.987C418.928 308.987 418.435 309.148 418.042 309.47C417.654 309.792 417.363 310.225 417.169 310.77C416.979 311.31 416.885 311.913 416.885 312.581C416.885 313.244 416.979 313.845 417.169 314.385C417.363 314.925 417.654 315.356 418.042 315.678C418.435 315.995 418.928 316.153 419.52 316.153ZM431.673 318.213C430.584 318.213 429.649 317.974 428.868 317.496C428.091 317.018 427.492 316.357 427.071 315.514C426.654 314.667 426.446 313.691 426.446 312.588C426.446 311.48 426.659 310.502 427.085 309.655C427.511 308.803 428.113 308.14 428.889 307.666C429.67 307.188 430.594 306.949 431.659 306.949C432.545 306.949 433.328 307.112 434.01 307.439C434.696 307.761 435.243 308.218 435.651 308.81C436.058 309.397 436.29 310.083 436.347 310.869H433.889C433.79 310.344 433.553 309.906 433.179 309.555C432.81 309.2 432.315 309.023 431.695 309.023C431.169 309.023 430.707 309.165 430.31 309.449C429.912 309.728 429.602 310.131 429.379 310.656C429.161 311.182 429.053 311.812 429.053 312.545C429.053 313.289 429.161 313.928 429.379 314.463C429.597 314.993 429.902 315.403 430.295 315.692C430.693 315.976 431.16 316.118 431.695 316.118C432.073 316.118 432.412 316.047 432.71 315.905C433.013 315.758 433.267 315.547 433.47 315.273C433.674 314.998 433.813 314.664 433.889 314.271H436.347C436.285 315.043 436.058 315.727 435.665 316.324C435.272 316.916 434.737 317.38 434.06 317.716C433.383 318.047 432.587 318.213 431.673 318.213ZM443.287 318.213C442.194 318.213 441.249 317.986 440.453 317.531C439.663 317.072 439.054 316.423 438.628 315.585C438.202 314.742 437.989 313.75 437.989 312.609C437.989 311.487 438.202 310.502 438.628 309.655C439.059 308.803 439.66 308.14 440.432 307.666C441.204 307.188 442.111 306.949 443.152 306.949C443.825 306.949 444.459 307.058 445.056 307.276C445.657 307.489 446.187 307.82 446.647 308.27C447.111 308.72 447.475 309.293 447.74 309.989C448.006 310.68 448.138 311.504 448.138 312.46V313.249H439.196V311.516H445.674C445.669 311.023 445.562 310.585 445.354 310.202C445.146 309.813 444.855 309.508 444.48 309.286C444.111 309.063 443.68 308.952 443.188 308.952C442.662 308.952 442.201 309.08 441.803 309.335C441.405 309.586 441.095 309.918 440.873 310.33C440.655 310.737 440.543 311.184 440.539 311.672V313.185C440.539 313.819 440.655 314.364 440.887 314.818C441.119 315.268 441.443 315.614 441.86 315.855C442.276 316.092 442.764 316.21 443.323 316.21C443.697 316.21 444.035 316.158 444.338 316.054C444.641 315.945 444.904 315.786 445.127 315.578C445.349 315.37 445.517 315.112 445.631 314.804L448.032 315.074C447.88 315.708 447.591 316.262 447.165 316.736C446.744 317.205 446.204 317.569 445.546 317.83C444.888 318.085 444.135 318.213 443.287 318.213ZM458.935 309.974L456.592 310.23C456.525 309.993 456.409 309.771 456.244 309.562C456.083 309.354 455.865 309.186 455.59 309.058C455.316 308.93 454.979 308.866 454.582 308.866C454.047 308.866 453.597 308.982 453.232 309.214C452.872 309.446 452.695 309.747 452.7 310.116C452.695 310.434 452.811 310.692 453.048 310.891C453.289 311.089 453.687 311.253 454.241 311.381L456.102 311.778C457.134 312.001 457.901 312.354 458.403 312.837C458.909 313.32 459.165 313.952 459.17 314.733C459.165 315.42 458.964 316.026 458.566 316.551C458.173 317.072 457.626 317.479 456.925 317.773C456.225 318.066 455.42 318.213 454.511 318.213C453.175 318.213 452.101 317.934 451.286 317.375C450.472 316.812 449.987 316.028 449.83 315.024L452.337 314.783C452.451 315.275 452.692 315.647 453.062 315.898C453.431 316.149 453.912 316.274 454.504 316.274C455.114 316.274 455.604 316.149 455.974 315.898C456.348 315.647 456.535 315.337 456.535 314.967C456.535 314.655 456.414 314.397 456.173 314.193C455.936 313.99 455.567 313.833 455.065 313.724L453.204 313.334C452.157 313.116 451.383 312.749 450.881 312.233C450.379 311.712 450.131 311.054 450.136 310.259C450.131 309.586 450.313 309.004 450.683 308.511C451.057 308.014 451.575 307.631 452.238 307.361C452.906 307.086 453.675 306.949 454.546 306.949C455.825 306.949 456.831 307.221 457.565 307.766C458.303 308.31 458.76 309.046 458.935 309.974ZM469.912 309.974L467.568 310.23C467.502 309.993 467.386 309.771 467.22 309.562C467.059 309.354 466.841 309.186 466.567 309.058C466.292 308.93 465.956 308.866 465.558 308.866C465.023 308.866 464.573 308.982 464.209 309.214C463.849 309.446 463.671 309.747 463.676 310.116C463.671 310.434 463.787 310.692 464.024 310.891C464.266 311.089 464.663 311.253 465.217 311.381L467.078 311.778C468.11 312.001 468.877 312.354 469.379 312.837C469.886 313.32 470.142 313.952 470.146 314.733C470.142 315.42 469.94 316.026 469.543 316.551C469.15 317.072 468.603 317.479 467.902 317.773C467.201 318.066 466.396 318.213 465.487 318.213C464.152 318.213 463.077 317.934 462.263 317.375C461.448 316.812 460.963 316.028 460.807 315.024L463.314 314.783C463.428 315.275 463.669 315.647 464.038 315.898C464.408 316.149 464.888 316.274 465.48 316.274C466.091 316.274 466.581 316.149 466.95 315.898C467.324 315.647 467.511 315.337 467.511 314.967C467.511 314.655 467.391 314.397 467.149 314.193C466.912 313.99 466.543 313.833 466.041 313.724L464.18 313.334C463.134 313.116 462.36 312.749 461.858 312.233C461.356 311.712 461.107 311.054 461.112 310.259C461.107 309.586 461.29 309.004 461.659 308.511C462.033 308.014 462.552 307.631 463.214 307.361C463.882 307.086 464.652 306.949 465.523 306.949C466.801 306.949 467.807 307.221 468.541 307.766C469.28 308.31 469.737 309.046 469.912 309.974ZM479.479 318L476.396 307.091H479.017L480.935 314.761H481.034L482.994 307.091H485.587L487.547 314.719H487.653L489.543 307.091H492.17L489.081 318H486.403L484.358 310.628H484.209L482.163 318H479.479ZM496.537 311.608V318H493.966V303.455H496.48V308.945H496.608C496.863 308.329 497.259 307.844 497.794 307.489C498.333 307.129 499.02 306.949 499.853 306.949C500.611 306.949 501.271 307.107 501.835 307.425C502.398 307.742 502.834 308.206 503.142 308.817C503.454 309.428 503.61 310.173 503.61 311.054V318H501.039V311.452C501.039 310.718 500.85 310.147 500.471 309.74C500.097 309.328 499.572 309.122 498.895 309.122C498.44 309.122 498.033 309.222 497.673 309.42C497.318 309.615 497.038 309.896 496.835 310.266C496.636 310.635 496.537 311.082 496.537 311.608ZM506.231 318V307.091H508.802V318H506.231ZM507.524 305.543C507.117 305.543 506.766 305.408 506.473 305.138C506.179 304.863 506.032 304.534 506.032 304.151C506.032 303.762 506.179 303.433 506.473 303.163C506.766 302.889 507.117 302.751 507.524 302.751C507.936 302.751 508.286 302.889 508.575 303.163C508.868 303.433 509.015 303.762 509.015 304.151C509.015 304.534 508.868 304.863 508.575 305.138C508.286 305.408 507.936 305.543 507.524 305.543ZM516.205 318.213C515.116 318.213 514.18 317.974 513.399 317.496C512.623 317.018 512.024 316.357 511.602 315.514C511.186 314.667 510.977 313.691 510.977 312.588C510.977 311.48 511.19 310.502 511.616 309.655C512.043 308.803 512.644 308.14 513.42 307.666C514.202 307.188 515.125 306.949 516.19 306.949C517.076 306.949 517.859 307.112 518.541 307.439C519.228 307.761 519.775 308.218 520.182 308.81C520.589 309.397 520.821 310.083 520.878 310.869H518.42C518.321 310.344 518.084 309.906 517.71 309.555C517.341 309.2 516.846 309.023 516.226 309.023C515.7 309.023 515.239 309.165 514.841 309.449C514.443 309.728 514.133 310.131 513.911 310.656C513.693 311.182 513.584 311.812 513.584 312.545C513.584 313.289 513.693 313.928 513.911 314.463C514.128 314.993 514.434 315.403 514.827 315.692C515.224 315.976 515.691 316.118 516.226 316.118C516.605 316.118 516.943 316.047 517.241 315.905C517.545 315.758 517.798 315.547 518.001 315.273C518.205 314.998 518.345 314.664 518.42 314.271H520.878C520.816 315.043 520.589 315.727 520.196 316.324C519.803 316.916 519.268 317.38 518.591 317.716C517.914 318.047 517.118 318.213 516.205 318.213ZM525.56 311.608V318H522.989V303.455H525.503V308.945H525.631C525.887 308.329 526.282 307.844 526.817 307.489C527.357 307.129 528.043 306.949 528.877 306.949C529.634 306.949 530.295 307.107 530.858 307.425C531.422 307.742 531.857 308.206 532.165 308.817C532.478 309.428 532.634 310.173 532.634 311.054V318H530.063V311.452C530.063 310.718 529.873 310.147 529.495 309.74C529.121 309.328 528.595 309.122 527.918 309.122C527.463 309.122 527.056 309.222 526.696 309.42C526.341 309.615 526.062 309.896 525.858 310.266C525.659 310.635 525.56 311.082 525.56 311.608ZM542.467 318L539.385 307.091H542.005L543.923 314.761H544.022L545.983 307.091H548.575L550.535 314.719H550.642L552.531 307.091H555.159L552.069 318H549.392L547.346 310.628H547.197L545.152 318H542.467ZM560.093 318.22C559.402 318.22 558.779 318.097 558.225 317.851C557.676 317.6 557.24 317.231 556.918 316.743C556.601 316.255 556.442 315.654 556.442 314.939C556.442 314.323 556.556 313.814 556.783 313.412C557.011 313.009 557.321 312.688 557.714 312.446C558.107 312.205 558.549 312.022 559.042 311.899C559.539 311.771 560.053 311.679 560.583 311.622C561.222 311.556 561.741 311.497 562.138 311.445C562.536 311.388 562.825 311.303 563.005 311.189C563.19 311.071 563.282 310.888 563.282 310.642V310.599C563.282 310.064 563.123 309.65 562.806 309.357C562.489 309.063 562.032 308.916 561.435 308.916C560.806 308.916 560.306 309.054 559.937 309.328C559.572 309.603 559.326 309.927 559.198 310.301L556.798 309.96C556.987 309.297 557.299 308.743 557.735 308.298C558.171 307.848 558.703 307.512 559.333 307.29C559.963 307.062 560.659 306.949 561.421 306.949C561.947 306.949 562.47 307.01 562.991 307.134C563.512 307.257 563.987 307.46 564.418 307.744C564.849 308.024 565.195 308.405 565.455 308.888C565.72 309.371 565.853 309.974 565.853 310.699V318H563.381V316.501H563.296C563.14 316.804 562.92 317.089 562.636 317.354C562.356 317.614 562.004 317.825 561.577 317.986C561.156 318.142 560.661 318.22 560.093 318.22ZM560.761 316.331C561.277 316.331 561.724 316.229 562.103 316.026C562.482 315.817 562.773 315.543 562.977 315.202C563.185 314.861 563.289 314.489 563.289 314.087V312.801C563.209 312.867 563.071 312.929 562.877 312.986C562.688 313.043 562.475 313.092 562.238 313.135C562.001 313.178 561.767 313.215 561.535 313.249C561.303 313.282 561.102 313.31 560.931 313.334C560.548 313.386 560.204 313.471 559.901 313.589C559.598 313.708 559.359 313.874 559.184 314.087C559.009 314.295 558.921 314.565 558.921 314.896C558.921 315.37 559.094 315.727 559.44 315.969C559.785 316.21 560.226 316.331 560.761 316.331ZM577.06 309.974L574.717 310.23C574.65 309.993 574.534 309.771 574.369 309.562C574.208 309.354 573.99 309.186 573.715 309.058C573.441 308.93 573.104 308.866 572.707 308.866C572.172 308.866 571.722 308.982 571.357 309.214C570.997 309.446 570.82 309.747 570.825 310.116C570.82 310.434 570.936 310.692 571.173 310.891C571.414 311.089 571.812 311.253 572.366 311.381L574.227 311.778C575.259 312.001 576.026 312.354 576.528 312.837C577.034 313.32 577.29 313.952 577.295 314.733C577.29 315.42 577.089 316.026 576.691 316.551C576.298 317.072 575.751 317.479 575.05 317.773C574.35 318.066 573.545 318.213 572.636 318.213C571.3 318.213 570.226 317.934 569.411 317.375C568.597 316.812 568.112 316.028 567.955 315.024L570.462 314.783C570.576 315.275 570.817 315.647 571.187 315.898C571.556 316.149 572.037 316.274 572.629 316.274C573.239 316.274 573.729 316.149 574.099 315.898C574.473 315.647 574.66 315.337 574.66 314.967C574.66 314.655 574.539 314.397 574.298 314.193C574.061 313.99 573.692 313.833 573.19 313.724L571.329 313.334C570.282 313.116 569.508 312.749 569.006 312.233C568.504 311.712 568.256 311.054 568.261 310.259C568.256 309.586 568.438 309.004 568.808 308.511C569.182 308.014 569.7 307.631 570.363 307.361C571.031 307.086 571.8 306.949 572.671 306.949C573.95 306.949 574.956 307.221 575.69 307.766C576.428 308.31 576.885 309.046 577.06 309.974ZM581.986 311.608V318H579.415V307.091H581.872V308.945H582C582.251 308.334 582.651 307.848 583.2 307.489C583.754 307.129 584.438 306.949 585.253 306.949C586.006 306.949 586.661 307.11 587.22 307.432C587.784 307.754 588.219 308.22 588.527 308.831C588.839 309.442 588.993 310.183 588.989 311.054V318H586.418V311.452C586.418 310.723 586.228 310.152 585.849 309.74C585.475 309.328 584.957 309.122 584.294 309.122C583.844 309.122 583.444 309.222 583.094 309.42C582.748 309.615 582.476 309.896 582.277 310.266C582.083 310.635 581.986 311.082 581.986 311.608ZM593.783 303.455V304.903C593.783 305.32 593.702 305.753 593.541 306.203C593.385 306.648 593.17 307.074 592.895 307.482C592.62 307.884 592.308 308.23 591.957 308.518L590.764 307.744C591.025 307.351 591.252 306.928 591.446 306.473C591.64 306.014 591.737 305.495 591.737 304.918V303.455H593.783ZM601.679 307.091V309.08H595.407V307.091H601.679ZM596.956 304.477H599.527V314.719C599.527 315.064 599.579 315.33 599.683 315.514C599.792 315.694 599.934 315.817 600.109 315.884C600.284 315.95 600.478 315.983 600.691 315.983C600.852 315.983 600.999 315.971 601.132 315.947C601.269 315.924 601.373 315.902 601.444 315.884L601.877 317.893C601.74 317.941 601.544 317.993 601.288 318.05C601.037 318.107 600.729 318.14 600.365 318.149C599.721 318.168 599.141 318.071 598.625 317.858C598.109 317.64 597.699 317.304 597.396 316.849C597.098 316.395 596.951 315.827 596.956 315.145V304.477ZM608.79 318V307.091H611.283V308.909H611.396C611.595 308.279 611.936 307.794 612.419 307.453C612.907 307.107 613.463 306.935 614.088 306.935C614.23 306.935 614.389 306.942 614.564 306.956C614.744 306.965 614.893 306.982 615.011 307.006V309.371C614.902 309.333 614.73 309.3 614.493 309.271C614.261 309.238 614.036 309.222 613.818 309.222C613.349 309.222 612.928 309.323 612.554 309.527C612.185 309.726 611.893 310.003 611.68 310.358C611.467 310.713 611.361 311.123 611.361 311.587V318H608.79ZM623.673 313.412V307.091H626.244V318H623.751V316.061H623.637C623.391 316.672 622.986 317.171 622.423 317.56C621.864 317.948 621.175 318.142 620.356 318.142C619.641 318.142 619.009 317.983 618.46 317.666C617.915 317.344 617.489 316.878 617.181 316.267C616.873 315.652 616.719 314.908 616.719 314.037V307.091H619.29V313.639C619.29 314.33 619.48 314.88 619.859 315.287C620.237 315.694 620.735 315.898 621.35 315.898C621.729 315.898 622.096 315.805 622.451 315.621C622.806 315.436 623.097 315.161 623.325 314.797C623.557 314.428 623.673 313.966 623.673 313.412ZM631.458 311.608V318H628.887V307.091H631.345V308.945H631.473C631.724 308.334 632.124 307.848 632.673 307.489C633.227 307.129 633.911 306.949 634.725 306.949C635.478 306.949 636.134 307.11 636.693 307.432C637.256 307.754 637.692 308.22 638 308.831C638.312 309.442 638.466 310.183 638.461 311.054V318H635.89V311.452C635.89 310.723 635.701 310.152 635.322 309.74C634.948 309.328 634.43 309.122 633.767 309.122C633.317 309.122 632.917 309.222 632.566 309.42C632.221 309.615 631.949 309.896 631.75 310.266C631.556 310.635 631.458 311.082 631.458 311.608ZM643.646 311.608V318H641.075V307.091H643.532V308.945H643.66C643.911 308.334 644.311 307.848 644.86 307.489C645.414 307.129 646.099 306.949 646.913 306.949C647.666 306.949 648.322 307.11 648.88 307.432C649.444 307.754 649.879 308.22 650.187 308.831C650.5 309.442 650.654 310.183 650.649 311.054V318H648.078V311.452C648.078 310.723 647.888 310.152 647.51 309.74C647.136 309.328 646.617 309.122 645.954 309.122C645.504 309.122 645.104 309.222 644.754 309.42C644.408 309.615 644.136 309.896 643.937 310.266C643.743 310.635 643.646 311.082 643.646 311.608ZM653.262 318V307.091H655.833V318H653.262ZM654.555 305.543C654.148 305.543 653.797 305.408 653.504 305.138C653.21 304.863 653.064 304.534 653.064 304.151C653.064 303.762 653.21 303.433 653.504 303.163C653.797 302.889 654.148 302.751 654.555 302.751C654.967 302.751 655.317 302.889 655.606 303.163C655.9 303.433 656.047 303.762 656.047 304.151C656.047 304.534 655.9 304.863 655.606 305.138C655.317 305.408 654.967 305.543 654.555 305.543ZM661.048 311.608V318H658.477V307.091H660.935V308.945H661.062C661.313 308.334 661.714 307.848 662.263 307.489C662.817 307.129 663.501 306.949 664.315 306.949C665.068 306.949 665.724 307.11 666.283 307.432C666.846 307.754 667.282 308.22 667.589 308.831C667.902 309.442 668.056 310.183 668.051 311.054V318H665.48V311.452C665.48 310.723 665.291 310.152 664.912 309.74C664.538 309.328 664.019 309.122 663.357 309.122C662.907 309.122 662.507 309.222 662.156 309.42C661.811 309.615 661.538 309.896 661.339 310.266C661.145 310.635 661.048 311.082 661.048 311.608ZM675.409 322.318C674.486 322.318 673.693 322.193 673.03 321.942C672.367 321.696 671.834 321.364 671.432 320.947C671.029 320.531 670.75 320.069 670.594 319.562L672.909 319.001C673.013 319.214 673.165 319.425 673.364 319.634C673.563 319.847 673.83 320.022 674.166 320.159C674.507 320.301 674.936 320.372 675.452 320.372C676.181 320.372 676.785 320.195 677.263 319.839C677.741 319.489 677.98 318.911 677.98 318.107V316.04H677.852C677.72 316.305 677.526 316.577 677.27 316.857C677.019 317.136 676.685 317.37 676.268 317.56C675.857 317.749 675.338 317.844 674.713 317.844C673.875 317.844 673.115 317.647 672.433 317.254C671.756 316.857 671.216 316.265 670.814 315.479C670.416 314.688 670.217 313.698 670.217 312.51C670.217 311.312 670.416 310.301 670.814 309.477C671.216 308.649 671.759 308.021 672.44 307.595C673.122 307.164 673.882 306.949 674.72 306.949C675.359 306.949 675.885 307.058 676.297 307.276C676.714 307.489 677.045 307.747 677.291 308.05C677.537 308.348 677.724 308.63 677.852 308.895H677.994V307.091H680.53V318.178C680.53 319.11 680.307 319.882 679.862 320.493C679.417 321.104 678.809 321.561 678.037 321.864C677.265 322.167 676.389 322.318 675.409 322.318ZM675.43 315.827C675.975 315.827 676.439 315.694 676.822 315.429C677.206 315.164 677.497 314.783 677.696 314.286C677.895 313.788 677.994 313.192 677.994 312.496C677.994 311.809 677.895 311.208 677.696 310.692C677.502 310.176 677.213 309.776 676.83 309.491C676.451 309.203 675.984 309.058 675.43 309.058C674.857 309.058 674.379 309.207 673.996 309.506C673.612 309.804 673.323 310.214 673.129 310.734C672.935 311.25 672.838 311.838 672.838 312.496C672.838 313.163 672.935 313.748 673.129 314.25C673.328 314.747 673.619 315.135 674.003 315.415C674.391 315.689 674.867 315.827 675.43 315.827ZM684.749 318.156C684.318 318.156 683.948 318.005 683.641 317.702C683.333 317.399 683.181 317.029 683.186 316.594C683.181 316.168 683.333 315.803 683.641 315.5C683.948 315.197 684.318 315.045 684.749 315.045C685.165 315.045 685.527 315.197 685.835 315.5C686.148 315.803 686.306 316.168 686.311 316.594C686.306 316.883 686.231 317.145 686.084 317.382C685.942 317.619 685.752 317.808 685.516 317.95C685.284 318.088 685.028 318.156 684.749 318.156ZM690.549 318.156C690.118 318.156 689.749 318.005 689.441 317.702C689.134 317.399 688.982 317.029 688.987 316.594C688.982 316.168 689.134 315.803 689.441 315.5C689.749 315.197 690.118 315.045 690.549 315.045C690.966 315.045 691.328 315.197 691.636 315.5C691.949 315.803 692.107 316.168 692.112 316.594C692.107 316.883 692.031 317.145 691.885 317.382C691.743 317.619 691.553 317.808 691.316 317.95C691.084 318.088 690.829 318.156 690.549 318.156ZM696.35 318.156C695.919 318.156 695.55 318.005 695.242 317.702C694.934 317.399 694.783 317.029 694.788 316.594C694.783 316.168 694.934 315.803 695.242 315.5C695.55 315.197 695.919 315.045 696.35 315.045C696.767 315.045 697.129 315.197 697.437 315.5C697.749 315.803 697.908 316.168 697.913 316.594C697.908 316.883 697.832 317.145 697.685 317.382C697.543 317.619 697.354 317.808 697.117 317.95C696.885 318.088 696.629 318.156 696.35 318.156Z" fill="#FF7373"/>
</g>
<defs>
<clipPath id="clip0_9_35">
<rect width="1240" height="743" fill="white"/>
</clipPath>
</defs>
</svg>
