<svg width="1240" height="743" viewBox="0 0 1240 743" fill="none" xmlns="http://www.w3.org/2000/svg">
<g clip-path="url(#clip0_12_2)">
<rect width="1240" height="743" fill="white"/>
<path d="M519.882 96.1602C519.719 94.6405 519.035 93.4573 517.828 92.6104C516.634 91.7636 515.079 91.3402 513.165 91.3402C511.819 91.3402 510.665 91.5432 509.702 91.9492C508.74 92.3552 508.003 92.9062 507.493 93.6023C506.982 94.2983 506.721 95.0929 506.71 95.9862C506.71 96.7286 506.878 97.3724 507.214 97.9176C507.562 98.4628 508.032 98.9268 508.624 99.3097C509.215 99.6809 509.871 99.9941 510.59 100.249C511.309 100.504 512.034 100.719 512.765 100.893L516.106 101.728C517.451 102.042 518.745 102.465 519.986 102.999C521.239 103.532 522.358 104.205 523.344 105.017C524.342 105.829 525.131 106.809 525.711 107.958C526.291 109.106 526.581 110.452 526.581 111.995C526.581 114.083 526.047 115.921 524.98 117.511C523.913 119.088 522.37 120.324 520.352 121.217C518.345 122.099 515.914 122.539 513.061 122.539C510.288 122.539 507.881 122.11 505.839 121.252C503.809 120.393 502.22 119.141 501.072 117.493C499.935 115.846 499.32 113.839 499.227 111.473H505.578C505.671 112.714 506.054 113.746 506.727 114.57C507.4 115.394 508.276 116.008 509.354 116.414C510.445 116.82 511.663 117.023 513.009 117.023C514.412 117.023 515.642 116.815 516.697 116.397C517.765 115.968 518.6 115.376 519.203 114.622C519.806 113.857 520.114 112.963 520.125 111.942C520.114 111.014 519.841 110.249 519.308 109.646C518.774 109.031 518.026 108.52 517.063 108.114C516.112 107.697 514.998 107.326 513.722 107.001L509.668 105.957C506.733 105.203 504.413 104.06 502.707 102.529C501.014 100.986 500.167 98.9384 500.167 96.3864C500.167 94.2867 500.735 92.448 501.872 90.8704C503.021 89.2927 504.581 88.0689 506.553 87.1989C508.525 86.3172 510.758 85.8764 513.252 85.8764C515.781 85.8764 517.997 86.3172 519.899 87.1989C521.813 88.0689 523.315 89.2811 524.406 90.8356C525.496 92.3784 526.059 94.1533 526.094 96.1602H519.882ZM530.77 91.7752V86.3636H559.203V91.7752H548.188V122H541.785V91.7752H530.77ZM564.954 122H558.063L570.609 86.3636H578.578L591.141 122H584.251L574.733 93.6719H574.454L564.954 122ZM565.18 108.027H583.972V113.213H565.18V108.027ZM589.963 91.7752V86.3636H618.395V91.7752H607.381V122H600.977V91.7752H589.963ZM623.876 86.3636H631.776L642.356 112.186H642.773L653.353 86.3636H661.253V122H655.058V97.5174H654.727L644.879 121.896H640.25L630.401 97.4652H630.071V122H623.876V86.3636ZM672.859 122H665.968L678.514 86.3636H686.483L699.047 122H692.156L682.638 93.6719H682.36L672.859 122ZM673.085 108.027H691.878V113.213H673.085V108.027ZM733.026 86.3636V122H727.283L710.492 97.7262H710.196V122H703.741V86.3636H709.517L726.292 110.655H726.605V86.3636H733.026Z" fill="#FF7373"/>
<rect x="-198.75" y="504.25" width="553.5" height="255.5" rx="26.75" fill="white" stroke="#FF7373" stroke-width="2.5"/>
<rect x="343.25" y="181.25" width="553.5" height="255.5" rx="26.75" fill="white" stroke="#FF7373" stroke-width="2.5"/>
<rect x="1101.25" y="-127.75" width="553.5" height="255.5" rx="26.75" fill="white" stroke="#FF7373" stroke-width="2.5"/>
<rect x="254.25" y="-199.75" width="1672.5" height="255.5" rx="26.75" fill="white" stroke="#FF7373" stroke-width="2.5"/>
<path d="M379.152 240V218.182H393.342V221.495H383.104V227.418H392.607V230.732H383.104V236.687H393.428V240H379.152ZM397.375 240V218.182H405.556C407.233 218.182 408.639 218.473 409.775 219.055C410.919 219.638 411.782 220.455 412.364 221.506C412.953 222.55 413.248 223.768 413.248 225.16C413.248 226.559 412.95 227.773 412.353 228.803C411.764 229.826 410.894 230.618 409.743 231.179C408.593 231.733 407.179 232.01 405.503 232.01H399.676V228.729H404.971C405.951 228.729 406.753 228.594 407.378 228.324C408.003 228.047 408.465 227.646 408.763 227.12C409.069 226.587 409.221 225.934 409.221 225.16C409.221 224.386 409.069 223.725 408.763 223.178C408.458 222.624 407.993 222.205 407.368 221.921C406.743 221.63 405.936 221.484 404.949 221.484H401.327V240H397.375ZM408.646 230.114L414.047 240H409.637L404.331 230.114H408.646ZM416.886 240V218.182H425.068C426.744 218.182 428.151 218.473 429.287 219.055C430.43 219.638 431.293 220.455 431.876 221.506C432.465 222.55 432.76 223.768 432.76 225.16C432.76 226.559 432.462 227.773 431.865 228.803C431.276 229.826 430.406 230.618 429.255 231.179C428.104 231.733 426.691 232.01 425.015 232.01H419.188V228.729H424.482C425.462 228.729 426.265 228.594 426.89 228.324C427.515 228.047 427.977 227.646 428.275 227.12C428.58 226.587 428.733 225.934 428.733 225.16C428.733 224.386 428.58 223.725 428.275 223.178C427.969 222.624 427.504 222.205 426.879 221.921C426.254 221.63 425.448 221.484 424.461 221.484H420.839V240H416.886ZM428.158 230.114L433.559 240H429.148L423.843 230.114H428.158ZM455.894 229.091C455.894 231.442 455.453 233.455 454.573 235.131C453.699 236.8 452.506 238.079 450.993 238.967C449.488 239.854 447.779 240.298 445.869 240.298C443.958 240.298 442.247 239.854 440.734 238.967C439.228 238.072 438.035 236.79 437.154 235.121C436.281 233.445 435.844 231.435 435.844 229.091C435.844 226.74 436.281 224.73 437.154 223.061C438.035 221.385 439.228 220.103 440.734 219.215C442.247 218.327 443.958 217.884 445.869 217.884C447.779 217.884 449.488 218.327 450.993 219.215C452.506 220.103 453.699 221.385 454.573 223.061C455.453 224.73 455.894 226.74 455.894 229.091ZM451.92 229.091C451.92 227.436 451.661 226.04 451.142 224.904C450.631 223.761 449.921 222.898 449.012 222.315C448.103 221.726 447.055 221.431 445.869 221.431C444.683 221.431 443.635 221.726 442.726 222.315C441.817 222.898 441.103 223.761 440.585 224.904C440.074 226.04 439.818 227.436 439.818 229.091C439.818 230.746 440.074 232.145 440.585 233.288C441.103 234.425 441.817 235.288 442.726 235.877C443.635 236.46 444.683 236.751 445.869 236.751C447.055 236.751 448.103 236.46 449.012 235.877C449.921 235.288 450.631 234.425 451.142 233.288C451.661 232.145 451.92 230.746 451.92 229.091ZM459.631 240V218.182H467.812C469.488 218.182 470.895 218.473 472.031 219.055C473.175 219.638 474.037 220.455 474.62 221.506C475.209 222.55 475.504 223.768 475.504 225.16C475.504 226.559 475.206 227.773 474.609 228.803C474.02 229.826 473.15 230.618 471.999 231.179C470.849 231.733 469.435 232.01 467.759 232.01H461.932V228.729H467.226C468.206 228.729 469.009 228.594 469.634 228.324C470.259 228.047 470.721 227.646 471.019 227.12C471.324 226.587 471.477 225.934 471.477 225.16C471.477 224.386 471.324 223.725 471.019 223.178C470.714 222.624 470.248 222.205 469.623 221.921C468.998 221.63 468.192 221.484 467.205 221.484H463.583V240H459.631ZM470.902 230.114L476.303 240H471.893L466.587 230.114H470.902ZM496.331 227.504V230.678H486.509V227.504H496.331ZM507.787 240V237.145L515.361 229.719C516.086 228.988 516.689 228.338 517.172 227.77C517.655 227.202 518.017 226.651 518.259 226.119C518.5 225.586 518.621 225.018 518.621 224.414C518.621 223.725 518.465 223.136 518.152 222.646C517.84 222.148 517.41 221.765 516.863 221.495C516.316 221.225 515.695 221.09 514.999 221.09C514.282 221.09 513.653 221.239 513.113 221.538C512.574 221.829 512.154 222.244 511.856 222.784C511.565 223.324 511.419 223.967 511.419 224.712H507.659C507.659 223.327 507.975 222.124 508.607 221.101C509.239 220.078 510.109 219.286 511.217 218.725C512.332 218.164 513.61 217.884 515.052 217.884C516.515 217.884 517.801 218.157 518.909 218.704C520.017 219.251 520.876 220 521.487 220.952C522.105 221.903 522.414 222.99 522.414 224.212C522.414 225.028 522.257 225.831 521.945 226.619C521.632 227.408 521.082 228.281 520.294 229.24C519.512 230.199 518.415 231.36 517.002 232.724L513.241 236.548V236.697H522.744V240H507.787Z" fill="#FF6363"/>
<path d="M381.07 279.455V294H378.435V279.455H381.07ZM386.38 287.608V294H383.809V283.091H386.267V284.945H386.395C386.645 284.334 387.046 283.848 387.595 283.489C388.149 283.129 388.833 282.949 389.647 282.949C390.4 282.949 391.056 283.11 391.615 283.432C392.178 283.754 392.614 284.22 392.922 284.831C393.234 285.442 393.388 286.183 393.383 287.054V294H390.812V287.452C390.812 286.723 390.623 286.152 390.244 285.74C389.87 285.328 389.351 285.122 388.689 285.122C388.239 285.122 387.839 285.222 387.488 285.42C387.143 285.615 386.87 285.896 386.672 286.266C386.477 286.635 386.38 287.082 386.38 287.608ZM405.35 283.091L401.466 294H398.625L394.74 283.091H397.481L399.988 291.195H400.102L402.616 283.091H405.35ZM409.956 294.22C409.265 294.22 408.642 294.097 408.088 293.851C407.539 293.6 407.104 293.231 406.782 292.743C406.464 292.255 406.306 291.654 406.306 290.939C406.306 290.323 406.419 289.814 406.647 289.412C406.874 289.009 407.184 288.688 407.577 288.446C407.97 288.205 408.413 288.022 408.905 287.899C409.402 287.771 409.916 287.679 410.446 287.622C411.086 287.556 411.604 287.497 412.002 287.445C412.4 287.388 412.688 287.303 412.868 287.189C413.053 287.071 413.145 286.888 413.145 286.642V286.599C413.145 286.064 412.987 285.65 412.669 285.357C412.352 285.063 411.895 284.916 411.299 284.916C410.669 284.916 410.169 285.054 409.8 285.328C409.435 285.603 409.189 285.927 409.061 286.301L406.661 285.96C406.85 285.297 407.163 284.743 407.598 284.298C408.034 283.848 408.567 283.512 409.196 283.29C409.826 283.062 410.522 282.949 411.284 282.949C411.81 282.949 412.333 283.01 412.854 283.134C413.375 283.257 413.851 283.46 414.282 283.744C414.712 284.024 415.058 284.405 415.319 284.888C415.584 285.371 415.716 285.974 415.716 286.699V294H413.245V292.501H413.159C413.003 292.804 412.783 293.089 412.499 293.354C412.22 293.614 411.867 293.825 411.441 293.986C411.019 294.142 410.525 294.22 409.956 294.22ZM410.624 292.331C411.14 292.331 411.587 292.229 411.966 292.026C412.345 291.817 412.636 291.543 412.84 291.202C413.048 290.861 413.152 290.489 413.152 290.087V288.801C413.072 288.867 412.935 288.929 412.74 288.986C412.551 289.043 412.338 289.092 412.101 289.135C411.864 289.178 411.63 289.215 411.398 289.249C411.166 289.282 410.965 289.31 410.794 289.334C410.411 289.386 410.068 289.471 409.765 289.589C409.462 289.708 409.222 289.874 409.047 290.087C408.872 290.295 408.784 290.565 408.784 290.896C408.784 291.37 408.957 291.727 409.303 291.969C409.649 292.21 410.089 292.331 410.624 292.331ZM420.873 279.455V294H418.301V279.455H420.873ZM423.516 294V283.091H426.087V294H423.516ZM424.809 281.543C424.402 281.543 424.051 281.408 423.758 281.138C423.464 280.863 423.317 280.534 423.317 280.151C423.317 279.762 423.464 279.433 423.758 279.163C424.051 278.889 424.402 278.751 424.809 278.751C425.221 278.751 425.571 278.889 425.86 279.163C426.154 279.433 426.3 279.762 426.3 280.151C426.3 280.534 426.154 280.863 425.86 281.138C425.571 281.408 425.221 281.543 424.809 281.543ZM432.779 294.192C431.922 294.192 431.155 293.972 430.478 293.531C429.801 293.091 429.266 292.452 428.873 291.614C428.48 290.776 428.284 289.758 428.284 288.56C428.284 287.348 428.483 286.325 428.88 285.491C429.283 284.653 429.825 284.021 430.507 283.595C431.189 283.164 431.949 282.949 432.787 282.949C433.426 282.949 433.951 283.058 434.363 283.276C434.775 283.489 435.102 283.747 435.343 284.05C435.585 284.348 435.772 284.63 435.904 284.895H436.011V279.455H438.589V294H436.061V292.281H435.904C435.772 292.546 435.58 292.828 435.329 293.126C435.078 293.42 434.747 293.671 434.335 293.879C433.923 294.088 433.404 294.192 432.779 294.192ZM433.497 292.082C434.041 292.082 434.505 291.936 434.889 291.642C435.272 291.344 435.564 290.929 435.762 290.399C435.961 289.869 436.061 289.251 436.061 288.545C436.061 287.84 435.961 287.227 435.762 286.706C435.568 286.185 435.279 285.78 434.896 285.491C434.517 285.203 434.051 285.058 433.497 285.058C432.924 285.058 432.446 285.207 432.062 285.506C431.679 285.804 431.39 286.216 431.196 286.741C431.002 287.267 430.904 287.868 430.904 288.545C430.904 289.227 431.002 289.836 431.196 290.371C431.395 290.901 431.686 291.32 432.069 291.628C432.458 291.931 432.933 292.082 433.497 292.082ZM445.764 281.663V279.455H457.369V281.663H452.874V294H450.26V281.663H445.764ZM462.669 294.213C461.604 294.213 460.681 293.979 459.9 293.51C459.118 293.041 458.512 292.385 458.081 291.543C457.655 290.7 457.442 289.715 457.442 288.588C457.442 287.461 457.655 286.474 458.081 285.626C458.512 284.779 459.118 284.121 459.9 283.652C460.681 283.183 461.604 282.949 462.669 282.949C463.735 282.949 464.658 283.183 465.439 283.652C466.221 284.121 466.824 284.779 467.25 285.626C467.681 286.474 467.897 287.461 467.897 288.588C467.897 289.715 467.681 290.7 467.25 291.543C466.824 292.385 466.221 293.041 465.439 293.51C464.658 293.979 463.735 294.213 462.669 294.213ZM462.684 292.153C463.261 292.153 463.744 291.995 464.132 291.678C464.521 291.356 464.81 290.925 464.999 290.385C465.193 289.845 465.29 289.244 465.29 288.581C465.29 287.913 465.193 287.31 464.999 286.77C464.81 286.225 464.521 285.792 464.132 285.47C463.744 285.148 463.261 284.987 462.684 284.987C462.092 284.987 461.599 285.148 461.206 285.47C460.818 285.792 460.527 286.225 460.333 286.77C460.143 287.31 460.049 287.913 460.049 288.581C460.049 289.244 460.143 289.845 460.333 290.385C460.527 290.925 460.818 291.356 461.206 291.678C461.599 291.995 462.092 292.153 462.684 292.153ZM472.423 290.577L472.415 287.473H472.827L476.748 283.091H479.752L474.93 288.46H474.397L472.423 290.577ZM470.079 294V279.455H472.65V294H470.079ZM476.925 294L473.374 289.036L475.107 287.224L480.001 294H476.925ZM485.846 294.213C484.752 294.213 483.808 293.986 483.012 293.531C482.221 293.072 481.613 292.423 481.187 291.585C480.761 290.742 480.548 289.75 480.548 288.609C480.548 287.487 480.761 286.502 481.187 285.655C481.618 284.803 482.219 284.14 482.991 283.666C483.763 283.188 484.669 282.949 485.711 282.949C486.383 282.949 487.018 283.058 487.614 283.276C488.216 283.489 488.746 283.82 489.205 284.27C489.669 284.72 490.034 285.293 490.299 285.989C490.564 286.68 490.697 287.504 490.697 288.46V289.249H481.755V287.516H488.232C488.228 287.023 488.121 286.585 487.913 286.202C487.704 285.813 487.413 285.508 487.039 285.286C486.67 285.063 486.239 284.952 485.746 284.952C485.221 284.952 484.759 285.08 484.362 285.335C483.964 285.586 483.654 285.918 483.431 286.33C483.213 286.737 483.102 287.184 483.097 287.672V289.185C483.097 289.819 483.213 290.364 483.445 290.818C483.677 291.268 484.002 291.614 484.418 291.855C484.835 292.092 485.323 292.21 485.881 292.21C486.255 292.21 486.594 292.158 486.897 292.054C487.2 291.945 487.463 291.786 487.685 291.578C487.908 291.37 488.076 291.112 488.19 290.804L490.59 291.074C490.439 291.708 490.15 292.262 489.724 292.736C489.302 293.205 488.763 293.569 488.104 293.83C487.446 294.085 486.693 294.213 485.846 294.213ZM495.443 287.608V294H492.872V283.091H495.329V284.945H495.457C495.708 284.334 496.108 283.848 496.657 283.489C497.211 283.129 497.895 282.949 498.71 282.949C499.463 282.949 500.118 283.11 500.677 283.432C501.241 283.754 501.676 284.22 501.984 284.831C502.297 285.442 502.45 286.183 502.446 287.054V294H499.875V287.452C499.875 286.723 499.685 286.152 499.306 285.74C498.932 285.328 498.414 285.122 497.751 285.122C497.301 285.122 496.901 285.222 496.551 285.42C496.205 285.615 495.933 285.896 495.734 286.266C495.54 286.635 495.443 287.082 495.443 287.608ZM512.272 294L509.189 283.091H511.81L513.728 290.761H513.827L515.787 283.091H518.38L520.34 290.719H520.446L522.336 283.091H524.963L521.874 294H519.196L517.151 286.628H517.002L514.956 294H512.272ZM529.898 294.22C529.206 294.22 528.584 294.097 528.03 293.851C527.481 293.6 527.045 293.231 526.723 292.743C526.406 292.255 526.247 291.654 526.247 290.939C526.247 290.323 526.361 289.814 526.588 289.412C526.815 289.009 527.125 288.688 527.518 288.446C527.911 288.205 528.354 288.022 528.847 287.899C529.344 287.771 529.857 287.679 530.388 287.622C531.027 287.556 531.545 287.497 531.943 287.445C532.341 287.388 532.63 287.303 532.81 287.189C532.994 287.071 533.087 286.888 533.087 286.642V286.599C533.087 286.064 532.928 285.65 532.611 285.357C532.294 285.063 531.837 284.916 531.24 284.916C530.61 284.916 530.111 285.054 529.741 285.328C529.377 285.603 529.131 285.927 529.003 286.301L526.602 285.96C526.792 285.297 527.104 284.743 527.54 284.298C527.975 283.848 528.508 283.512 529.138 283.29C529.768 283.062 530.464 282.949 531.226 282.949C531.751 282.949 532.275 283.01 532.795 283.134C533.316 283.257 533.792 283.46 534.223 283.744C534.654 284.024 535 284.405 535.26 284.888C535.525 285.371 535.658 285.974 535.658 286.699V294H533.186V292.501H533.101C532.945 292.804 532.724 293.089 532.44 293.354C532.161 293.614 531.808 293.825 531.382 293.986C530.961 294.142 530.466 294.22 529.898 294.22ZM530.565 292.331C531.081 292.331 531.529 292.229 531.908 292.026C532.286 291.817 532.578 291.543 532.781 291.202C532.99 290.861 533.094 290.489 533.094 290.087V288.801C533.013 288.867 532.876 288.929 532.682 288.986C532.492 289.043 532.279 289.092 532.043 289.135C531.806 289.178 531.571 289.215 531.339 289.249C531.107 289.282 530.906 289.31 530.736 289.334C530.352 289.386 530.009 289.471 529.706 289.589C529.403 289.708 529.164 289.874 528.989 290.087C528.813 290.295 528.726 290.565 528.726 290.896C528.726 291.37 528.899 291.727 529.244 291.969C529.59 292.21 530.03 292.331 530.565 292.331ZM546.865 285.974L544.521 286.23C544.455 285.993 544.339 285.771 544.173 285.562C544.012 285.354 543.795 285.186 543.52 285.058C543.245 284.93 542.909 284.866 542.511 284.866C541.976 284.866 541.527 284.982 541.162 285.214C540.802 285.446 540.625 285.747 540.629 286.116C540.625 286.434 540.741 286.692 540.977 286.891C541.219 287.089 541.616 287.253 542.17 287.381L544.031 287.778C545.063 288.001 545.83 288.354 546.332 288.837C546.839 289.32 547.095 289.952 547.099 290.733C547.095 291.42 546.893 292.026 546.496 292.551C546.103 293.072 545.556 293.479 544.855 293.773C544.154 294.066 543.349 294.213 542.44 294.213C541.105 294.213 540.03 293.934 539.216 293.375C538.402 292.812 537.916 292.028 537.76 291.024L540.267 290.783C540.381 291.275 540.622 291.647 540.991 291.898C541.361 292.149 541.841 292.274 542.433 292.274C543.044 292.274 543.534 292.149 543.903 291.898C544.277 291.647 544.464 291.337 544.464 290.967C544.464 290.655 544.344 290.397 544.102 290.193C543.866 289.99 543.496 289.833 542.994 289.724L541.134 289.334C540.087 289.116 539.313 288.749 538.811 288.233C538.309 287.712 538.061 287.054 538.065 286.259C538.061 285.586 538.243 285.004 538.612 284.511C538.986 284.014 539.505 283.631 540.168 283.361C540.835 283.086 541.605 282.949 542.476 282.949C543.754 282.949 544.76 283.221 545.494 283.766C546.233 284.31 546.69 285.046 546.865 285.974ZM561.134 289.412V283.091H563.705V294H561.212V292.061H561.098C560.852 292.672 560.447 293.171 559.884 293.56C559.325 293.948 558.636 294.142 557.817 294.142C557.102 294.142 556.47 293.983 555.92 293.666C555.376 293.344 554.95 292.878 554.642 292.267C554.334 291.652 554.18 290.908 554.18 290.037V283.091H556.751V289.639C556.751 290.33 556.941 290.88 557.32 291.287C557.698 291.694 558.196 291.898 558.811 291.898C559.19 291.898 559.557 291.805 559.912 291.621C560.267 291.436 560.558 291.161 560.786 290.797C561.018 290.428 561.134 289.966 561.134 289.412ZM574.971 285.974L572.627 286.23C572.56 285.993 572.444 285.771 572.279 285.562C572.118 285.354 571.9 285.186 571.625 285.058C571.351 284.93 571.015 284.866 570.617 284.866C570.082 284.866 569.632 284.982 569.267 285.214C568.908 285.446 568.73 285.747 568.735 286.116C568.73 286.434 568.846 286.692 569.083 286.891C569.324 287.089 569.722 287.253 570.276 287.381L572.137 287.778C573.169 288.001 573.936 288.354 574.438 288.837C574.944 289.32 575.2 289.952 575.205 290.733C575.2 291.42 574.999 292.026 574.601 292.551C574.208 293.072 573.661 293.479 572.961 293.773C572.26 294.066 571.455 294.213 570.546 294.213C569.211 294.213 568.136 293.934 567.321 293.375C566.507 292.812 566.022 292.028 565.865 291.024L568.373 290.783C568.486 291.275 568.728 291.647 569.097 291.898C569.466 292.149 569.947 292.274 570.539 292.274C571.15 292.274 571.64 292.149 572.009 291.898C572.383 291.647 572.57 291.337 572.57 290.967C572.57 290.655 572.449 290.397 572.208 290.193C571.971 289.99 571.602 289.833 571.1 289.724L569.239 289.334C568.193 289.116 567.418 288.749 566.917 288.233C566.415 287.712 566.166 287.054 566.171 286.259C566.166 285.586 566.348 285.004 566.718 284.511C567.092 284.014 567.61 283.631 568.273 283.361C568.941 283.086 569.71 282.949 570.581 282.949C571.86 282.949 572.866 283.221 573.6 283.766C574.338 284.31 574.795 285.046 574.971 285.974ZM582.154 294.213C581.061 294.213 580.116 293.986 579.321 293.531C578.53 293.072 577.922 292.423 577.495 291.585C577.069 290.742 576.856 289.75 576.856 288.609C576.856 287.487 577.069 286.502 577.495 285.655C577.926 284.803 578.528 284.14 579.299 283.666C580.071 283.188 580.978 282.949 582.02 282.949C582.692 282.949 583.326 283.058 583.923 283.276C584.524 283.489 585.055 283.82 585.514 284.27C585.978 284.72 586.342 285.293 586.608 285.989C586.873 286.68 587.005 287.504 587.005 288.46V289.249H578.064V287.516H584.541C584.536 287.023 584.43 286.585 584.221 286.202C584.013 285.813 583.722 285.508 583.348 285.286C582.978 285.063 582.547 284.952 582.055 284.952C581.529 284.952 581.068 285.08 580.67 285.335C580.272 285.586 579.962 285.918 579.74 286.33C579.522 286.737 579.411 287.184 579.406 287.672V289.185C579.406 289.819 579.522 290.364 579.754 290.818C579.986 291.268 580.31 291.614 580.727 291.855C581.144 292.092 581.631 292.21 582.19 292.21C582.564 292.21 582.903 292.158 583.206 292.054C583.509 291.945 583.771 291.786 583.994 291.578C584.217 291.37 584.385 291.112 584.498 290.804L586.899 291.074C586.747 291.708 586.458 292.262 586.032 292.736C585.611 293.205 585.071 293.569 584.413 293.83C583.755 294.085 583.002 294.213 582.154 294.213ZM593.229 294.192C592.372 294.192 591.605 293.972 590.928 293.531C590.25 293.091 589.715 292.452 589.322 291.614C588.929 290.776 588.733 289.758 588.733 288.56C588.733 287.348 588.932 286.325 589.33 285.491C589.732 284.653 590.274 284.021 590.956 283.595C591.638 283.164 592.398 282.949 593.236 282.949C593.875 282.949 594.401 283.058 594.812 283.276C595.224 283.489 595.551 283.747 595.793 284.05C596.034 284.348 596.221 284.63 596.354 284.895H596.46V279.455H599.038V294H596.51V292.281H596.354C596.221 292.546 596.029 292.828 595.778 293.126C595.527 293.42 595.196 293.671 594.784 293.879C594.372 294.088 593.854 294.192 593.229 294.192ZM593.946 292.082C594.491 292.082 594.955 291.936 595.338 291.642C595.722 291.344 596.013 290.929 596.212 290.399C596.411 289.869 596.51 289.251 596.51 288.545C596.51 287.84 596.411 287.227 596.212 286.706C596.018 286.185 595.729 285.78 595.345 285.491C594.966 285.203 594.5 285.058 593.946 285.058C593.373 285.058 592.895 285.207 592.511 285.506C592.128 285.804 591.839 286.216 591.645 286.741C591.451 287.267 591.354 287.868 591.354 288.545C591.354 289.227 591.451 289.836 591.645 290.371C591.844 290.901 592.135 291.32 592.518 291.628C592.907 291.931 593.383 292.082 593.946 292.082ZM603.362 294.156C602.931 294.156 602.562 294.005 602.254 293.702C601.946 293.399 601.795 293.029 601.799 292.594C601.795 292.168 601.946 291.803 602.254 291.5C602.562 291.197 602.931 291.045 603.362 291.045C603.779 291.045 604.141 291.197 604.449 291.5C604.761 291.803 604.92 292.168 604.924 292.594C604.92 292.883 604.844 293.145 604.697 293.382C604.555 293.619 604.366 293.808 604.129 293.95C603.897 294.088 603.641 294.156 603.362 294.156ZM609.163 294.156C608.732 294.156 608.362 294.005 608.055 293.702C607.747 293.399 607.595 293.029 607.6 292.594C607.595 292.168 607.747 291.803 608.055 291.5C608.362 291.197 608.732 291.045 609.163 291.045C609.579 291.045 609.942 291.197 610.249 291.5C610.562 291.803 610.72 292.168 610.725 292.594C610.72 292.883 610.645 293.145 610.498 293.382C610.356 293.619 610.166 293.808 609.93 293.95C609.698 294.088 609.442 294.156 609.163 294.156Z" fill="#FF7373"/>
</g>
<defs>
<clipPath id="clip0_12_2">
<rect width="1240" height="743" fill="white"/>
</clipPath>
</defs>
</svg>
